<?xml version="1.0" encoding="UTF-8" standalone="no"?><svg xmlns="http://www.w3.org/2000/svg" xmlns:xlink="http://www.w3.org/1999/xlink" contentScriptType="application/ecmascript" contentStyleType="text/css" height="2747px" preserveAspectRatio="none" style="width:695px;height:2747px;background:#FFFFFF;" version="1.1" viewBox="0 0 695 2747" width="695px" zoomAndPan="magnify"><defs/><g><!--MD5=[ec29e91dc25d1de100b0c34c5ff13c12]
cluster OpenApi\\Attributes--><polygon fill="#FFFFFF" points="16,6,173,6,180,28.2969,678,28.2969,678,625,16,625,16,6" style="stroke:#000000;stroke-width:1.5;"/><line style="stroke:#000000;stroke-width:1.5;" x1="16" x2="180" y1="28.2969" y2="28.2969"/><text fill="#000000" font-family="sans-serif" font-size="14" font-weight="bold" lengthAdjust="spacing" textLength="151" x="20" y="20.9951">OpenApi\Attributes</text><!--MD5=[f38fe2b8efeed6aaab9c82e65e6619ff]
cluster OpenApi\\Attributes\\Callbacks--><polygon fill="#FFFFFF" points="284.5,649,520.5,649,527.5,671.2969,530.5,671.2969,530.5,732,284.5,732,284.5,649" style="stroke:#000000;stroke-width:1.5;"/><line style="stroke:#000000;stroke-width:1.5;" x1="284.5" x2="527.5" y1="671.2969" y2="671.2969"/><text fill="#000000" font-family="sans-serif" font-size="14" font-weight="bold" lengthAdjust="spacing" textLength="230" x="288.5" y="663.9951">OpenApi\Attributes\Callbacks</text><!--MD5=[c98838eaefeb483145f051830abb706f]
cluster OpenApi\\Attributes\\Extensions--><polygon fill="#FFFFFF" points="278.5,756,526.5,756,533.5,778.2969,536.5,778.2969,536.5,906,278.5,906,278.5,756" style="stroke:#000000;stroke-width:1.5;"/><line style="stroke:#000000;stroke-width:1.5;" x1="278.5" x2="533.5" y1="778.2969" y2="778.2969"/><text fill="#000000" font-family="sans-serif" font-size="14" font-weight="bold" lengthAdjust="spacing" textLength="242" x="282.5" y="770.9951">OpenApi\Attributes\Extensions</text><!--MD5=[4638ca63c5276de0124a6f211fea9d7b]
cluster OpenApi\\Attributes\\Headers--><polygon fill="#FFFFFF" points="288.5,930,516.5,930,523.5,952.2969,526.5,952.2969,526.5,1013,288.5,1013,288.5,930" style="stroke:#000000;stroke-width:1.5;"/><line style="stroke:#000000;stroke-width:1.5;" x1="288.5" x2="523.5" y1="952.2969" y2="952.2969"/><text fill="#000000" font-family="sans-serif" font-size="14" font-weight="bold" lengthAdjust="spacing" textLength="222" x="292.5" y="944.9951">OpenApi\Attributes\Headers</text><!--MD5=[9ef85838a6efa30b7dc06fd0b68cb717]
cluster OpenApi\\Attributes\\Info--><polygon fill="#FFFFFF" points="307,1037,499,1037,506,1059.2969,509,1059.2969,509,1254,307,1254,307,1037" style="stroke:#000000;stroke-width:1.5;"/><line style="stroke:#000000;stroke-width:1.5;" x1="307" x2="506" y1="1059.2969" y2="1059.2969"/><text fill="#000000" font-family="sans-serif" font-size="14" font-weight="bold" lengthAdjust="spacing" textLength="186" x="311" y="1051.9951">OpenApi\Attributes\Info</text><!--MD5=[db38a42e85fe28bb3f898e63ca4f2cdc]
cluster OpenApi\\Attributes\\Links--><polygon fill="#FFFFFF" points="301.5,1278,504.5,1278,511.5,1300.2969,514.5,1300.2969,514.5,1428,301.5,1428,301.5,1278" style="stroke:#000000;stroke-width:1.5;"/><line style="stroke:#000000;stroke-width:1.5;" x1="301.5" x2="511.5" y1="1300.2969" y2="1300.2969"/><text fill="#000000" font-family="sans-serif" font-size="14" font-weight="bold" lengthAdjust="spacing" textLength="197" x="305.5" y="1292.9951">OpenApi\Attributes\Links</text><!--MD5=[120bd557a5cec6b64d35af1c94606cf3]
cluster OpenApi\\Attributes\\Media--><polygon fill="#FFFFFF" points="299,1452,507,1452,514,1474.2969,517,1474.2969,517,1870,299,1870,299,1452" style="stroke:#000000;stroke-width:1.5;"/><line style="stroke:#000000;stroke-width:1.5;" x1="299" x2="514" y1="1474.2969" y2="1474.2969"/><text fill="#000000" font-family="sans-serif" font-size="14" font-weight="bold" lengthAdjust="spacing" textLength="202" x="303" y="1466.9951">OpenApi\Attributes\Media</text><!--MD5=[a774c0a463dc5171da9ef873451ff6eb]
cluster OpenApi\\Attributes\\Parameters--><polygon fill="#FFFFFF" points="276.5,1894,529.5,1894,536.5,1916.2969,539.5,1916.2969,539.5,1977,276.5,1977,276.5,1894" style="stroke:#000000;stroke-width:1.5;"/><line style="stroke:#000000;stroke-width:1.5;" x1="276.5" x2="536.5" y1="1916.2969" y2="1916.2969"/><text fill="#000000" font-family="sans-serif" font-size="14" font-weight="bold" lengthAdjust="spacing" textLength="247" x="280.5" y="1908.9951">OpenApi\Attributes\Parameters</text><!--MD5=[f6ccb1dcf5ce891051a7de0fb6161fba]
cluster OpenApi\\Attributes\\Responses--><polygon fill="#FFFFFF" points="278,2001,527,2001,534,2023.2969,537,2023.2969,537,2084,278,2084,278,2001" style="stroke:#000000;stroke-width:1.5;"/><line style="stroke:#000000;stroke-width:1.5;" x1="278" x2="534" y1="2023.2969" y2="2023.2969"/><text fill="#000000" font-family="sans-serif" font-size="14" font-weight="bold" lengthAdjust="spacing" textLength="243" x="282" y="2015.9951">OpenApi\Attributes\Responses</text><!--MD5=[b2bff33b9aa8709d1839afdda4dee180]
cluster OpenApi\\Attributes\\Security--><polygon fill="#FFFFFF" points="289.5,2108,516.5,2108,523.5,2130.2969,526.5,2130.2969,526.5,2459,289.5,2459,289.5,2108" style="stroke:#000000;stroke-width:1.5;"/><line style="stroke:#000000;stroke-width:1.5;" x1="289.5" x2="523.5" y1="2130.2969" y2="2130.2969"/><text fill="#000000" font-family="sans-serif" font-size="14" font-weight="bold" lengthAdjust="spacing" textLength="221" x="293.5" y="2122.9951">OpenApi\Attributes\Security</text><!--MD5=[9e32c22eec5fa62cdca5b46294083da6]
cluster OpenApi\\Attributes\\Servers--><polygon fill="#FFFFFF" points="291,2483,515,2483,522,2505.2969,525,2505.2969,525,2633,291,2633,291,2483" style="stroke:#000000;stroke-width:1.5;"/><line style="stroke:#000000;stroke-width:1.5;" x1="291" x2="522" y1="2505.2969" y2="2505.2969"/><text fill="#000000" font-family="sans-serif" font-size="14" font-weight="bold" lengthAdjust="spacing" textLength="218" x="295" y="2497.9951">OpenApi\Attributes\Servers</text><!--MD5=[709899edcc8d01b710a765be93975f5b]
cluster OpenApi\\Attributes\\Tags--><polygon fill="#FFFFFF" points="303,2657,503,2657,510,2679.2969,513,2679.2969,513,2740,303,2740,303,2657" style="stroke:#000000;stroke-width:1.5;"/><line style="stroke:#000000;stroke-width:1.5;" x1="303" x2="510" y1="2679.2969" y2="2679.2969"/><text fill="#000000" font-family="sans-serif" font-size="14" font-weight="bold" lengthAdjust="spacing" textLength="194" x="307" y="2671.9951">OpenApi\Attributes\Tags</text><!--MD5=[68a750ec0fd782a61e9c80a9f52a6b97]
class OpenApi\\Attributes\\Consumes--><rect codeLine="15" fill="#FEFECE" height="32" id="OpenApi\\Attributes\\Consumes" style="stroke:#A80036;stroke-width:1.5;" width="97" x="359" y="577"/><ellipse cx="374" cy="593" fill="#ADD1B2" rx="11" ry="11" style="stroke:#A80036;stroke-width:1.0;"/><path d="M376.9688,598.6406 Q376.3906,598.9375 375.75,599.0781 Q375.1094,599.2344 374.4063,599.2344 Q371.9063,599.2344 370.5781,597.5938 Q369.2656,595.9375 369.2656,592.8125 Q369.2656,589.6875 370.5781,588.0313 Q371.9063,586.375 374.4063,586.375 Q375.1094,586.375 375.75,586.5313 Q376.4063,586.6875 376.9688,586.9844 L376.9688,589.7031 Q376.3438,589.125 375.75,588.8594 Q375.1563,588.5781 374.5313,588.5781 Q373.1875,588.5781 372.5,589.6563 Q371.8125,590.7188 371.8125,592.8125 Q371.8125,594.9063 372.5,595.9844 Q373.1875,597.0469 374.5313,597.0469 Q375.1563,597.0469 375.75,596.7813 Q376.3438,596.5 376.9688,595.9219 L376.9688,598.6406 Z " fill="#000000"/><text fill="#000000" font-family="sans-serif" font-size="12" lengthAdjust="spacing" textLength="65" x="388" y="597.1543">Consumes</text><!--MD5=[5279190170e2fbbe46bb146660ee1769]
class OpenApi\\Attributes\\OpenApiAttributeInterface--><rect codeLine="57" fill="#FEFECE" height="32" id="OpenApi\\Attributes\\OpenApiAttributeInterface" style="stroke:#A80036;stroke-width:1.5;" width="195" x="32" y="577"/><ellipse cx="47" cy="593" fill="#B4A7E5" rx="11" ry="11" style="stroke:#A80036;stroke-width:1.0;"/><path d="M42.9219,588.7656 L42.9219,586.6094 L50.3125,586.6094 L50.3125,588.7656 L47.8438,588.7656 L47.8438,596.8438 L50.3125,596.8438 L50.3125,599 L42.9219,599 L42.9219,596.8438 L45.3906,596.8438 L45.3906,588.7656 L42.9219,588.7656 Z " fill="#000000"/><text fill="#000000" font-family="sans-serif" font-size="12" font-style="italic" lengthAdjust="spacing" textLength="163" x="61" y="597.1543">OpenApiAttributeInterface</text><!--MD5=[9973185b885642d0438426ebcf618140]
class OpenApi\\Attributes\\Delete--><rect codeLine="18" fill="#FEFECE" height="32" id="OpenApi\\Attributes\\Delete" style="stroke:#A80036;stroke-width:1.5;" width="73" x="589" y="577"/><ellipse cx="604" cy="593" fill="#ADD1B2" rx="11" ry="11" style="stroke:#A80036;stroke-width:1.0;"/><path d="M606.9688,598.6406 Q606.3906,598.9375 605.75,599.0781 Q605.1094,599.2344 604.4063,599.2344 Q601.9063,599.2344 600.5781,597.5938 Q599.2656,595.9375 599.2656,592.8125 Q599.2656,589.6875 600.5781,588.0313 Q601.9063,586.375 604.4063,586.375 Q605.1094,586.375 605.75,586.5313 Q606.4063,586.6875 606.9688,586.9844 L606.9688,589.7031 Q606.3438,589.125 605.75,588.8594 Q605.1563,588.5781 604.5313,588.5781 Q603.1875,588.5781 602.5,589.6563 Q601.8125,590.7188 601.8125,592.8125 Q601.8125,594.9063 602.5,595.9844 Q603.1875,597.0469 604.5313,597.0469 Q605.1563,597.0469 605.75,596.7813 Q606.3438,596.5 606.9688,595.9219 L606.9688,598.6406 Z " fill="#000000"/><text fill="#000000" font-family="sans-serif" font-size="12" lengthAdjust="spacing" textLength="41" x="618" y="597.1543">Delete</text><!--MD5=[24d56d94ccef5748bff76108c557e073]
class OpenApi\\Attributes\\Method--><rect codeLine="30" fill="#FEFECE" height="32" id="OpenApi\\Attributes\\Method" style="stroke:#A80036;stroke-width:1.5;" width="79" x="368" y="510"/><ellipse cx="383" cy="526" fill="#A9DCDF" rx="11" ry="11" style="stroke:#A80036;stroke-width:1.0;"/><path d="M383.1094,521.3438 L381.9531,526.4219 L384.2813,526.4219 L383.1094,521.3438 Z M381.625,519.1094 L384.6094,519.1094 L387.9688,531.5 L385.5156,531.5 L384.75,528.4375 L381.4688,528.4375 L380.7188,531.5 L378.2813,531.5 L381.625,519.1094 Z " fill="#000000"/><text fill="#000000" font-family="sans-serif" font-size="12" font-style="italic" lengthAdjust="spacing" textLength="47" x="397" y="530.1543">Method</text><!--MD5=[d767490dc2ede07ee9f3bf84ee0d913d]
class OpenApi\\Attributes\\ExternalDocumentation--><rect codeLine="21" fill="#FEFECE" height="32" id="OpenApi\\Attributes\\ExternalDocumentation" style="stroke:#A80036;stroke-width:1.5;" width="179" x="318" y="443"/><ellipse cx="333" cy="459" fill="#ADD1B2" rx="11" ry="11" style="stroke:#A80036;stroke-width:1.0;"/><path d="M335.9688,464.6406 Q335.3906,464.9375 334.75,465.0781 Q334.1094,465.2344 333.4063,465.2344 Q330.9063,465.2344 329.5781,463.5938 Q328.2656,461.9375 328.2656,458.8125 Q328.2656,455.6875 329.5781,454.0313 Q330.9063,452.375 333.4063,452.375 Q334.1094,452.375 334.75,452.5313 Q335.4063,452.6875 335.9688,452.9844 L335.9688,455.7031 Q335.3438,455.125 334.75,454.8594 Q334.1563,454.5781 333.5313,454.5781 Q332.1875,454.5781 331.5,455.6563 Q330.8125,456.7188 330.8125,458.8125 Q330.8125,460.9063 331.5,461.9844 Q332.1875,463.0469 333.5313,463.0469 Q334.1563,463.0469 334.75,462.7813 Q335.3438,462.5 335.9688,461.9219 L335.9688,464.6406 Z " fill="#000000"/><text fill="#000000" font-family="sans-serif" font-size="12" lengthAdjust="spacing" textLength="147" x="347" y="463.1543">ExternalDocumentation</text><!--MD5=[b7ff8c04a91f881ffea5d12bce9ac879]
class OpenApi\\Attributes\\Get--><rect codeLine="24" fill="#FEFECE" height="32" id="OpenApi\\Attributes\\Get" style="stroke:#A80036;stroke-width:1.5;" width="54" x="598.5" y="510"/><ellipse cx="613.5" cy="526" fill="#ADD1B2" rx="11" ry="11" style="stroke:#A80036;stroke-width:1.0;"/><path d="M616.4688,531.6406 Q615.8906,531.9375 615.25,532.0781 Q614.6094,532.2344 613.9063,532.2344 Q611.4063,532.2344 610.0781,530.5938 Q608.7656,528.9375 608.7656,525.8125 Q608.7656,522.6875 610.0781,521.0313 Q611.4063,519.375 613.9063,519.375 Q614.6094,519.375 615.25,519.5313 Q615.9063,519.6875 616.4688,519.9844 L616.4688,522.7031 Q615.8438,522.125 615.25,521.8594 Q614.6563,521.5781 614.0313,521.5781 Q612.6875,521.5781 612,522.6563 Q611.3125,523.7188 611.3125,525.8125 Q611.3125,527.9063 612,528.9844 Q612.6875,530.0469 614.0313,530.0469 Q614.6563,530.0469 615.25,529.7813 Q615.8438,529.5 616.4688,528.9219 L616.4688,531.6406 Z " fill="#000000"/><text fill="#000000" font-family="sans-serif" font-size="12" lengthAdjust="spacing" textLength="22" x="627.5" y="530.1543">Get</text><!--MD5=[891baf5b3d199a75f348ab9126795d04]
class OpenApi\\Attributes\\Hidden--><rect codeLine="27" fill="#FEFECE" height="32" id="OpenApi\\Attributes\\Hidden" style="stroke:#A80036;stroke-width:1.5;" width="76" x="369.5" y="376"/><ellipse cx="384.5" cy="392" fill="#ADD1B2" rx="11" ry="11" style="stroke:#A80036;stroke-width:1.0;"/><path d="M387.4688,397.6406 Q386.8906,397.9375 386.25,398.0781 Q385.6094,398.2344 384.9063,398.2344 Q382.4063,398.2344 381.0781,396.5938 Q379.7656,394.9375 379.7656,391.8125 Q379.7656,388.6875 381.0781,387.0313 Q382.4063,385.375 384.9063,385.375 Q385.6094,385.375 386.25,385.5313 Q386.9063,385.6875 387.4688,385.9844 L387.4688,388.7031 Q386.8438,388.125 386.25,387.8594 Q385.6563,387.5781 385.0313,387.5781 Q383.6875,387.5781 383,388.6563 Q382.3125,389.7188 382.3125,391.8125 Q382.3125,393.9063 383,394.9844 Q383.6875,396.0469 385.0313,396.0469 Q385.6563,396.0469 386.25,395.7813 Q386.8438,395.5 387.4688,394.9219 L387.4688,397.6406 Z " fill="#000000"/><text fill="#000000" font-family="sans-serif" font-size="12" lengthAdjust="spacing" textLength="44" x="398.5" y="396.1543">Hidden</text><!--MD5=[c706ccaf2f568111d9cd277fa9bc348e]
class OpenApi\\Attributes\\OpenAPIDefinition--><rect codeLine="33" fill="#FEFECE" height="32" id="OpenApi\\Attributes\\OpenAPIDefinition" style="stroke:#A80036;stroke-width:1.5;" width="143" x="336" y="309"/><ellipse cx="351" cy="325" fill="#ADD1B2" rx="11" ry="11" style="stroke:#A80036;stroke-width:1.0;"/><path d="M353.9688,330.6406 Q353.3906,330.9375 352.75,331.0781 Q352.1094,331.2344 351.4063,331.2344 Q348.9063,331.2344 347.5781,329.5938 Q346.2656,327.9375 346.2656,324.8125 Q346.2656,321.6875 347.5781,320.0313 Q348.9063,318.375 351.4063,318.375 Q352.1094,318.375 352.75,318.5313 Q353.4063,318.6875 353.9688,318.9844 L353.9688,321.7031 Q353.3438,321.125 352.75,320.8594 Q352.1563,320.5781 351.5313,320.5781 Q350.1875,320.5781 349.5,321.6563 Q348.8125,322.7188 348.8125,324.8125 Q348.8125,326.9063 349.5,327.9844 Q350.1875,329.0469 351.5313,329.0469 Q352.1563,329.0469 352.75,328.7813 Q353.3438,328.5 353.9688,327.9219 L353.9688,330.6406 Z " fill="#000000"/><text fill="#000000" font-family="sans-serif" font-size="12" lengthAdjust="spacing" textLength="111" x="365" y="329.1543">OpenAPIDefinition</text><!--MD5=[6a8b26bacf17adb1066f0fce51547dd0]
class OpenApi\\Attributes\\Operation--><rect codeLine="36" fill="#FEFECE" height="32" id="OpenApi\\Attributes\\Operation" style="stroke:#A80036;stroke-width:1.5;" width="94" x="360.5" y="242"/><ellipse cx="375.5" cy="258" fill="#ADD1B2" rx="11" ry="11" style="stroke:#A80036;stroke-width:1.0;"/><path d="M378.4688,263.6406 Q377.8906,263.9375 377.25,264.0781 Q376.6094,264.2344 375.9063,264.2344 Q373.4063,264.2344 372.0781,262.5938 Q370.7656,260.9375 370.7656,257.8125 Q370.7656,254.6875 372.0781,253.0313 Q373.4063,251.375 375.9063,251.375 Q376.6094,251.375 377.25,251.5313 Q377.9063,251.6875 378.4688,251.9844 L378.4688,254.7031 Q377.8438,254.125 377.25,253.8594 Q376.6563,253.5781 376.0313,253.5781 Q374.6875,253.5781 374,254.6563 Q373.3125,255.7188 373.3125,257.8125 Q373.3125,259.9063 374,260.9844 Q374.6875,262.0469 376.0313,262.0469 Q376.6563,262.0469 377.25,261.7813 Q377.8438,261.5 378.4688,260.9219 L378.4688,263.6406 Z " fill="#000000"/><text fill="#000000" font-family="sans-serif" font-size="12" lengthAdjust="spacing" textLength="62" x="389.5" y="262.1543">Operation</text><!--MD5=[2620a53753ba7f9a4132ed9d5468a5f9]
class OpenApi\\Attributes\\Parameter--><rect codeLine="39" fill="#FEFECE" height="32" id="OpenApi\\Attributes\\Parameter" style="stroke:#A80036;stroke-width:1.5;" width="98" x="358.5" y="175"/><ellipse cx="373.5" cy="191" fill="#ADD1B2" rx="11" ry="11" style="stroke:#A80036;stroke-width:1.0;"/><path d="M376.4688,196.6406 Q375.8906,196.9375 375.25,197.0781 Q374.6094,197.2344 373.9063,197.2344 Q371.4063,197.2344 370.0781,195.5938 Q368.7656,193.9375 368.7656,190.8125 Q368.7656,187.6875 370.0781,186.0313 Q371.4063,184.375 373.9063,184.375 Q374.6094,184.375 375.25,184.5313 Q375.9063,184.6875 376.4688,184.9844 L376.4688,187.7031 Q375.8438,187.125 375.25,186.8594 Q374.6563,186.5781 374.0313,186.5781 Q372.6875,186.5781 372,187.6563 Q371.3125,188.7188 371.3125,190.8125 Q371.3125,192.9063 372,193.9844 Q372.6875,195.0469 374.0313,195.0469 Q374.6563,195.0469 375.25,194.7813 Q375.8438,194.5 376.4688,193.9219 L376.4688,196.6406 Z " fill="#000000"/><text fill="#000000" font-family="sans-serif" font-size="12" lengthAdjust="spacing" textLength="66" x="387.5" y="195.1543">Parameter</text><!--MD5=[1df40e8b1f46a33bf0edebd1fdf5044b]
class OpenApi\\Attributes\\Patch--><rect codeLine="42" fill="#FEFECE" height="32" id="OpenApi\\Attributes\\Patch" style="stroke:#A80036;stroke-width:1.5;" width="68" x="591.5" y="443"/><ellipse cx="606.5" cy="459" fill="#ADD1B2" rx="11" ry="11" style="stroke:#A80036;stroke-width:1.0;"/><path d="M609.4688,464.6406 Q608.8906,464.9375 608.25,465.0781 Q607.6094,465.2344 606.9063,465.2344 Q604.4063,465.2344 603.0781,463.5938 Q601.7656,461.9375 601.7656,458.8125 Q601.7656,455.6875 603.0781,454.0313 Q604.4063,452.375 606.9063,452.375 Q607.6094,452.375 608.25,452.5313 Q608.9063,452.6875 609.4688,452.9844 L609.4688,455.7031 Q608.8438,455.125 608.25,454.8594 Q607.6563,454.5781 607.0313,454.5781 Q605.6875,454.5781 605,455.6563 Q604.3125,456.7188 604.3125,458.8125 Q604.3125,460.9063 605,461.9844 Q605.6875,463.0469 607.0313,463.0469 Q607.6563,463.0469 608.25,462.7813 Q608.8438,462.5 609.4688,461.9219 L609.4688,464.6406 Z " fill="#000000"/><text fill="#000000" font-family="sans-serif" font-size="12" lengthAdjust="spacing" textLength="36" x="620.5" y="463.1543">Patch</text><!--MD5=[a22f0e3b23e94c55774ccb8e500d8a5d]
class OpenApi\\Attributes\\Path--><rect codeLine="45" fill="#FEFECE" height="32" id="OpenApi\\Attributes\\Path" style="stroke:#A80036;stroke-width:1.5;" width="61" x="377" y="108"/><ellipse cx="392" cy="124" fill="#ADD1B2" rx="11" ry="11" style="stroke:#A80036;stroke-width:1.0;"/><path d="M394.9688,129.6406 Q394.3906,129.9375 393.75,130.0781 Q393.1094,130.2344 392.4063,130.2344 Q389.9063,130.2344 388.5781,128.5938 Q387.2656,126.9375 387.2656,123.8125 Q387.2656,120.6875 388.5781,119.0313 Q389.9063,117.375 392.4063,117.375 Q393.1094,117.375 393.75,117.5313 Q394.4063,117.6875 394.9688,117.9844 L394.9688,120.7031 Q394.3438,120.125 393.75,119.8594 Q393.1563,119.5781 392.5313,119.5781 Q391.1875,119.5781 390.5,120.6563 Q389.8125,121.7188 389.8125,123.8125 Q389.8125,125.9063 390.5,126.9844 Q391.1875,128.0469 392.5313,128.0469 Q393.1563,128.0469 393.75,127.7813 Q394.3438,127.5 394.9688,126.9219 L394.9688,129.6406 Z " fill="#000000"/><text fill="#000000" font-family="sans-serif" font-size="12" lengthAdjust="spacing" textLength="29" x="406" y="128.1543">Path</text><!--MD5=[de0c0e8207cd7a8071dfba02741e1bea]
class OpenApi\\Attributes\\Post--><rect codeLine="48" fill="#FEFECE" height="32" id="OpenApi\\Attributes\\Post" style="stroke:#A80036;stroke-width:1.5;" width="60" x="595.5" y="376"/><ellipse cx="610.5" cy="392" fill="#ADD1B2" rx="11" ry="11" style="stroke:#A80036;stroke-width:1.0;"/><path d="M613.4688,397.6406 Q612.8906,397.9375 612.25,398.0781 Q611.6094,398.2344 610.9063,398.2344 Q608.4063,398.2344 607.0781,396.5938 Q605.7656,394.9375 605.7656,391.8125 Q605.7656,388.6875 607.0781,387.0313 Q608.4063,385.375 610.9063,385.375 Q611.6094,385.375 612.25,385.5313 Q612.9063,385.6875 613.4688,385.9844 L613.4688,388.7031 Q612.8438,388.125 612.25,387.8594 Q611.6563,387.5781 611.0313,387.5781 Q609.6875,387.5781 609,388.6563 Q608.3125,389.7188 608.3125,391.8125 Q608.3125,393.9063 609,394.9844 Q609.6875,396.0469 611.0313,396.0469 Q611.6563,396.0469 612.25,395.7813 Q612.8438,395.5 613.4688,394.9219 L613.4688,397.6406 Z " fill="#000000"/><text fill="#000000" font-family="sans-serif" font-size="12" lengthAdjust="spacing" textLength="28" x="624.5" y="396.1543">Post</text><!--MD5=[c4f196d3e2525db47b9a2c45da99cdeb]
class OpenApi\\Attributes\\Produces--><rect codeLine="51" fill="#FEFECE" height="32" id="OpenApi\\Attributes\\Produces" style="stroke:#A80036;stroke-width:1.5;" width="91" x="362" y="41"/><ellipse cx="377" cy="57" fill="#ADD1B2" rx="11" ry="11" style="stroke:#A80036;stroke-width:1.0;"/><path d="M379.9688,62.6406 Q379.3906,62.9375 378.75,63.0781 Q378.1094,63.2344 377.4063,63.2344 Q374.9063,63.2344 373.5781,61.5938 Q372.2656,59.9375 372.2656,56.8125 Q372.2656,53.6875 373.5781,52.0313 Q374.9063,50.375 377.4063,50.375 Q378.1094,50.375 378.75,50.5313 Q379.4063,50.6875 379.9688,50.9844 L379.9688,53.7031 Q379.3438,53.125 378.75,52.8594 Q378.1563,52.5781 377.5313,52.5781 Q376.1875,52.5781 375.5,53.6563 Q374.8125,54.7188 374.8125,56.8125 Q374.8125,58.9063 375.5,59.9844 Q376.1875,61.0469 377.5313,61.0469 Q378.1563,61.0469 378.75,60.7813 Q379.3438,60.5 379.9688,59.9219 L379.9688,62.6406 Z " fill="#000000"/><text fill="#000000" font-family="sans-serif" font-size="12" lengthAdjust="spacing" textLength="59" x="391" y="61.1543">Produces</text><!--MD5=[7b586d7dcc3b191ccf382e0750d72c3a]
class OpenApi\\Attributes\\Put--><rect codeLine="54" fill="#FEFECE" height="32" id="OpenApi\\Attributes\\Put" style="stroke:#A80036;stroke-width:1.5;" width="53" x="599" y="309"/><ellipse cx="614" cy="325" fill="#ADD1B2" rx="11" ry="11" style="stroke:#A80036;stroke-width:1.0;"/><path d="M616.9688,330.6406 Q616.3906,330.9375 615.75,331.0781 Q615.1094,331.2344 614.4063,331.2344 Q611.9063,331.2344 610.5781,329.5938 Q609.2656,327.9375 609.2656,324.8125 Q609.2656,321.6875 610.5781,320.0313 Q611.9063,318.375 614.4063,318.375 Q615.1094,318.375 615.75,318.5313 Q616.4063,318.6875 616.9688,318.9844 L616.9688,321.7031 Q616.3438,321.125 615.75,320.8594 Q615.1563,320.5781 614.5313,320.5781 Q613.1875,320.5781 612.5,321.6563 Q611.8125,322.7188 611.8125,324.8125 Q611.8125,326.9063 612.5,327.9844 Q613.1875,329.0469 614.5313,329.0469 Q615.1563,329.0469 615.75,328.7813 Q616.3438,328.5 616.9688,327.9219 L616.9688,330.6406 Z " fill="#000000"/><text fill="#000000" font-family="sans-serif" font-size="12" lengthAdjust="spacing" textLength="21" x="628" y="329.1543">Put</text><!--MD5=[f510ca5da7569b1441806aa4c6043279]
class OpenApi\\Attributes\\Callbacks\\Callback--><rect codeLine="60" fill="#FEFECE" height="32" id="OpenApi\\Attributes\\Callbacks\\Callback" style="stroke:#A80036;stroke-width:1.5;" width="84" x="365.5" y="684"/><ellipse cx="380.5" cy="700" fill="#ADD1B2" rx="11" ry="11" style="stroke:#A80036;stroke-width:1.0;"/><path d="M383.4688,705.6406 Q382.8906,705.9375 382.25,706.0781 Q381.6094,706.2344 380.9063,706.2344 Q378.4063,706.2344 377.0781,704.5938 Q375.7656,702.9375 375.7656,699.8125 Q375.7656,696.6875 377.0781,695.0313 Q378.4063,693.375 380.9063,693.375 Q381.6094,693.375 382.25,693.5313 Q382.9063,693.6875 383.4688,693.9844 L383.4688,696.7031 Q382.8438,696.125 382.25,695.8594 Q381.6563,695.5781 381.0313,695.5781 Q379.6875,695.5781 379,696.6563 Q378.3125,697.7188 378.3125,699.8125 Q378.3125,701.9063 379,702.9844 Q379.6875,704.0469 381.0313,704.0469 Q381.6563,704.0469 382.25,703.7813 Q382.8438,703.5 383.4688,702.9219 L383.4688,705.6406 Z " fill="#000000"/><text fill="#000000" font-family="sans-serif" font-size="12" lengthAdjust="spacing" textLength="52" x="394.5" y="704.1543">Callback</text><!--MD5=[3fb021568a8083d210e11eef9c83d775]
class OpenApi\\Attributes\\Extensions\\Extension--><rect codeLine="63" fill="#FEFECE" height="32" id="OpenApi\\Attributes\\Extensions\\Extension" style="stroke:#A80036;stroke-width:1.5;" width="93" x="361" y="791"/><ellipse cx="376" cy="807" fill="#ADD1B2" rx="11" ry="11" style="stroke:#A80036;stroke-width:1.0;"/><path d="M378.9688,812.6406 Q378.3906,812.9375 377.75,813.0781 Q377.1094,813.2344 376.4063,813.2344 Q373.9063,813.2344 372.5781,811.5938 Q371.2656,809.9375 371.2656,806.8125 Q371.2656,803.6875 372.5781,802.0313 Q373.9063,800.375 376.4063,800.375 Q377.1094,800.375 377.75,800.5313 Q378.4063,800.6875 378.9688,800.9844 L378.9688,803.7031 Q378.3438,803.125 377.75,802.8594 Q377.1563,802.5781 376.5313,802.5781 Q375.1875,802.5781 374.5,803.6563 Q373.8125,804.7188 373.8125,806.8125 Q373.8125,808.9063 374.5,809.9844 Q375.1875,811.0469 376.5313,811.0469 Q377.1563,811.0469 377.75,810.7813 Q378.3438,810.5 378.9688,809.9219 L378.9688,812.6406 Z " fill="#000000"/><text fill="#000000" font-family="sans-serif" font-size="12" lengthAdjust="spacing" textLength="61" x="390" y="811.1543">Extension</text><!--MD5=[745b253646b0285267c61355513d0199]
class OpenApi\\Attributes\\Extensions\\ExtensionProperty--><rect codeLine="66" fill="#FEFECE" height="32" id="OpenApi\\Attributes\\Extensions\\ExtensionProperty" style="stroke:#A80036;stroke-width:1.5;" width="146" x="334.5" y="858"/><ellipse cx="349.5" cy="874" fill="#ADD1B2" rx="11" ry="11" style="stroke:#A80036;stroke-width:1.0;"/><path d="M352.4688,879.6406 Q351.8906,879.9375 351.25,880.0781 Q350.6094,880.2344 349.9063,880.2344 Q347.4063,880.2344 346.0781,878.5938 Q344.7656,876.9375 344.7656,873.8125 Q344.7656,870.6875 346.0781,869.0313 Q347.4063,867.375 349.9063,867.375 Q350.6094,867.375 351.25,867.5313 Q351.9063,867.6875 352.4688,867.9844 L352.4688,870.7031 Q351.8438,870.125 351.25,869.8594 Q350.6563,869.5781 350.0313,869.5781 Q348.6875,869.5781 348,870.6563 Q347.3125,871.7188 347.3125,873.8125 Q347.3125,875.9063 348,876.9844 Q348.6875,878.0469 350.0313,878.0469 Q350.6563,878.0469 351.25,877.7813 Q351.8438,877.5 352.4688,876.9219 L352.4688,879.6406 Z " fill="#000000"/><text fill="#000000" font-family="sans-serif" font-size="12" lengthAdjust="spacing" textLength="114" x="363.5" y="878.1543">ExtensionProperty</text><!--MD5=[9918aeebf66ce41c0d41c4a7ff4a08f6]
class OpenApi\\Attributes\\Headers\\Header--><rect codeLine="69" fill="#FEFECE" height="32" id="OpenApi\\Attributes\\Headers\\Header" style="stroke:#A80036;stroke-width:1.5;" width="78" x="368.5" y="965"/><ellipse cx="383.5" cy="981" fill="#ADD1B2" rx="11" ry="11" style="stroke:#A80036;stroke-width:1.0;"/><path d="M386.4688,986.6406 Q385.8906,986.9375 385.25,987.0781 Q384.6094,987.2344 383.9063,987.2344 Q381.4063,987.2344 380.0781,985.5938 Q378.7656,983.9375 378.7656,980.8125 Q378.7656,977.6875 380.0781,976.0313 Q381.4063,974.375 383.9063,974.375 Q384.6094,974.375 385.25,974.5313 Q385.9063,974.6875 386.4688,974.9844 L386.4688,977.7031 Q385.8438,977.125 385.25,976.8594 Q384.6563,976.5781 384.0313,976.5781 Q382.6875,976.5781 382,977.6563 Q381.3125,978.7188 381.3125,980.8125 Q381.3125,982.9063 382,983.9844 Q382.6875,985.0469 384.0313,985.0469 Q384.6563,985.0469 385.25,984.7813 Q385.8438,984.5 386.4688,983.9219 L386.4688,986.6406 Z " fill="#000000"/><text fill="#000000" font-family="sans-serif" font-size="12" lengthAdjust="spacing" textLength="46" x="397.5" y="985.1543">Header</text><!--MD5=[1e216b1adbe8501626db7874f0400615]
class OpenApi\\Attributes\\Info\\Contact--><rect codeLine="72" fill="#FEFECE" height="32" id="OpenApi\\Attributes\\Info\\Contact" style="stroke:#A80036;stroke-width:1.5;" width="81" x="367" y="1072"/><ellipse cx="382" cy="1088" fill="#ADD1B2" rx="11" ry="11" style="stroke:#A80036;stroke-width:1.0;"/><path d="M384.9688,1093.6406 Q384.3906,1093.9375 383.75,1094.0781 Q383.1094,1094.2344 382.4063,1094.2344 Q379.9063,1094.2344 378.5781,1092.5938 Q377.2656,1090.9375 377.2656,1087.8125 Q377.2656,1084.6875 378.5781,1083.0313 Q379.9063,1081.375 382.4063,1081.375 Q383.1094,1081.375 383.75,1081.5313 Q384.4063,1081.6875 384.9688,1081.9844 L384.9688,1084.7031 Q384.3438,1084.125 383.75,1083.8594 Q383.1563,1083.5781 382.5313,1083.5781 Q381.1875,1083.5781 380.5,1084.6563 Q379.8125,1085.7188 379.8125,1087.8125 Q379.8125,1089.9063 380.5,1090.9844 Q381.1875,1092.0469 382.5313,1092.0469 Q383.1563,1092.0469 383.75,1091.7813 Q384.3438,1091.5 384.9688,1090.9219 L384.9688,1093.6406 Z " fill="#000000"/><text fill="#000000" font-family="sans-serif" font-size="12" lengthAdjust="spacing" textLength="49" x="396" y="1092.1543">Contact</text><!--MD5=[5f78f6b61a27b2aa94aa4bbc11bb3ce1]
class OpenApi\\Attributes\\Info\\Info--><rect codeLine="75" fill="#FEFECE" height="32" id="OpenApi\\Attributes\\Info\\Info" style="stroke:#A80036;stroke-width:1.5;" width="55" x="380" y="1139"/><ellipse cx="395" cy="1155" fill="#ADD1B2" rx="11" ry="11" style="stroke:#A80036;stroke-width:1.0;"/><path d="M397.9688,1160.6406 Q397.3906,1160.9375 396.75,1161.0781 Q396.1094,1161.2344 395.4063,1161.2344 Q392.9063,1161.2344 391.5781,1159.5938 Q390.2656,1157.9375 390.2656,1154.8125 Q390.2656,1151.6875 391.5781,1150.0313 Q392.9063,1148.375 395.4063,1148.375 Q396.1094,1148.375 396.75,1148.5313 Q397.4063,1148.6875 397.9688,1148.9844 L397.9688,1151.7031 Q397.3438,1151.125 396.75,1150.8594 Q396.1563,1150.5781 395.5313,1150.5781 Q394.1875,1150.5781 393.5,1151.6563 Q392.8125,1152.7188 392.8125,1154.8125 Q392.8125,1156.9063 393.5,1157.9844 Q394.1875,1159.0469 395.5313,1159.0469 Q396.1563,1159.0469 396.75,1158.7813 Q397.3438,1158.5 397.9688,1157.9219 L397.9688,1160.6406 Z " fill="#000000"/><text fill="#000000" font-family="sans-serif" font-size="12" lengthAdjust="spacing" textLength="23" x="409" y="1159.1543">Info</text><!--MD5=[a0e150cb0b0c055e658bf837360defce]
class OpenApi\\Attributes\\Info\\License--><rect codeLine="78" fill="#FEFECE" height="32" id="OpenApi\\Attributes\\Info\\License" style="stroke:#A80036;stroke-width:1.5;" width="79" x="368" y="1206"/><ellipse cx="383" cy="1222" fill="#ADD1B2" rx="11" ry="11" style="stroke:#A80036;stroke-width:1.0;"/><path d="M385.9688,1227.6406 Q385.3906,1227.9375 384.75,1228.0781 Q384.1094,1228.2344 383.4063,1228.2344 Q380.9063,1228.2344 379.5781,1226.5938 Q378.2656,1224.9375 378.2656,1221.8125 Q378.2656,1218.6875 379.5781,1217.0313 Q380.9063,1215.375 383.4063,1215.375 Q384.1094,1215.375 384.75,1215.5313 Q385.4063,1215.6875 385.9688,1215.9844 L385.9688,1218.7031 Q385.3438,1218.125 384.75,1217.8594 Q384.1563,1217.5781 383.5313,1217.5781 Q382.1875,1217.5781 381.5,1218.6563 Q380.8125,1219.7188 380.8125,1221.8125 Q380.8125,1223.9063 381.5,1224.9844 Q382.1875,1226.0469 383.5313,1226.0469 Q384.1563,1226.0469 384.75,1225.7813 Q385.3438,1225.5 385.9688,1224.9219 L385.9688,1227.6406 Z " fill="#000000"/><text fill="#000000" font-family="sans-serif" font-size="12" lengthAdjust="spacing" textLength="47" x="397" y="1226.1543">License</text><!--MD5=[eb5905ca3c456799b048da2b1d34a3a5]
class OpenApi\\Attributes\\Links\\Link--><rect codeLine="81" fill="#FEFECE" height="32" id="OpenApi\\Attributes\\Links\\Link" style="stroke:#A80036;stroke-width:1.5;" width="56" x="379.5" y="1313"/><ellipse cx="394.5" cy="1329" fill="#ADD1B2" rx="11" ry="11" style="stroke:#A80036;stroke-width:1.0;"/><path d="M397.4688,1334.6406 Q396.8906,1334.9375 396.25,1335.0781 Q395.6094,1335.2344 394.9063,1335.2344 Q392.4063,1335.2344 391.0781,1333.5938 Q389.7656,1331.9375 389.7656,1328.8125 Q389.7656,1325.6875 391.0781,1324.0313 Q392.4063,1322.375 394.9063,1322.375 Q395.6094,1322.375 396.25,1322.5313 Q396.9063,1322.6875 397.4688,1322.9844 L397.4688,1325.7031 Q396.8438,1325.125 396.25,1324.8594 Q395.6563,1324.5781 395.0313,1324.5781 Q393.6875,1324.5781 393,1325.6563 Q392.3125,1326.7188 392.3125,1328.8125 Q392.3125,1330.9063 393,1331.9844 Q393.6875,1333.0469 395.0313,1333.0469 Q395.6563,1333.0469 396.25,1332.7813 Q396.8438,1332.5 397.4688,1331.9219 L397.4688,1334.6406 Z " fill="#000000"/><text fill="#000000" font-family="sans-serif" font-size="12" lengthAdjust="spacing" textLength="24" x="408.5" y="1333.1543">Link</text><!--MD5=[d242b8c4eb2a404e1ad222bc45c1d9f9]
class OpenApi\\Attributes\\Links\\LinkParameter--><rect codeLine="84" fill="#FEFECE" height="32" id="OpenApi\\Attributes\\Links\\LinkParameter" style="stroke:#A80036;stroke-width:1.5;" width="122" x="346.5" y="1380"/><ellipse cx="361.5" cy="1396" fill="#ADD1B2" rx="11" ry="11" style="stroke:#A80036;stroke-width:1.0;"/><path d="M364.4688,1401.6406 Q363.8906,1401.9375 363.25,1402.0781 Q362.6094,1402.2344 361.9063,1402.2344 Q359.4063,1402.2344 358.0781,1400.5938 Q356.7656,1398.9375 356.7656,1395.8125 Q356.7656,1392.6875 358.0781,1391.0313 Q359.4063,1389.375 361.9063,1389.375 Q362.6094,1389.375 363.25,1389.5313 Q363.9063,1389.6875 364.4688,1389.9844 L364.4688,1392.7031 Q363.8438,1392.125 363.25,1391.8594 Q362.6563,1391.5781 362.0313,1391.5781 Q360.6875,1391.5781 360,1392.6563 Q359.3125,1393.7188 359.3125,1395.8125 Q359.3125,1397.9063 360,1398.9844 Q360.6875,1400.0469 362.0313,1400.0469 Q362.6563,1400.0469 363.25,1399.7813 Q363.8438,1399.5 364.4688,1398.9219 L364.4688,1401.6406 Z " fill="#000000"/><text fill="#000000" font-family="sans-serif" font-size="12" lengthAdjust="spacing" textLength="90" x="375.5" y="1400.1543">LinkParameter</text><!--MD5=[f6a4f7237cb1cb091e0eb3f63e3af41d]
class OpenApi\\Attributes\\Media\\ArraySchema--><rect codeLine="87" fill="#FEFECE" height="32" id="OpenApi\\Attributes\\Media\\ArraySchema" style="stroke:#A80036;stroke-width:1.5;" width="114" x="350.5" y="1487"/><ellipse cx="365.5" cy="1503" fill="#ADD1B2" rx="11" ry="11" style="stroke:#A80036;stroke-width:1.0;"/><path d="M368.4688,1508.6406 Q367.8906,1508.9375 367.25,1509.0781 Q366.6094,1509.2344 365.9063,1509.2344 Q363.4063,1509.2344 362.0781,1507.5938 Q360.7656,1505.9375 360.7656,1502.8125 Q360.7656,1499.6875 362.0781,1498.0313 Q363.4063,1496.375 365.9063,1496.375 Q366.6094,1496.375 367.25,1496.5313 Q367.9063,1496.6875 368.4688,1496.9844 L368.4688,1499.7031 Q367.8438,1499.125 367.25,1498.8594 Q366.6563,1498.5781 366.0313,1498.5781 Q364.6875,1498.5781 364,1499.6563 Q363.3125,1500.7188 363.3125,1502.8125 Q363.3125,1504.9063 364,1505.9844 Q364.6875,1507.0469 366.0313,1507.0469 Q366.6563,1507.0469 367.25,1506.7813 Q367.8438,1506.5 368.4688,1505.9219 L368.4688,1508.6406 Z " fill="#000000"/><text fill="#000000" font-family="sans-serif" font-size="12" lengthAdjust="spacing" textLength="82" x="379.5" y="1507.1543">ArraySchema</text><!--MD5=[df63785f2664f96793176f0d36b85c0f]
class OpenApi\\Attributes\\Media\\Content--><rect codeLine="90" fill="#FEFECE" height="32" id="OpenApi\\Attributes\\Media\\Content" style="stroke:#A80036;stroke-width:1.5;" width="82" x="366.5" y="1554"/><ellipse cx="381.5" cy="1570" fill="#ADD1B2" rx="11" ry="11" style="stroke:#A80036;stroke-width:1.0;"/><path d="M384.4688,1575.6406 Q383.8906,1575.9375 383.25,1576.0781 Q382.6094,1576.2344 381.9063,1576.2344 Q379.4063,1576.2344 378.0781,1574.5938 Q376.7656,1572.9375 376.7656,1569.8125 Q376.7656,1566.6875 378.0781,1565.0313 Q379.4063,1563.375 381.9063,1563.375 Q382.6094,1563.375 383.25,1563.5313 Q383.9063,1563.6875 384.4688,1563.9844 L384.4688,1566.7031 Q383.8438,1566.125 383.25,1565.8594 Q382.6563,1565.5781 382.0313,1565.5781 Q380.6875,1565.5781 380,1566.6563 Q379.3125,1567.7188 379.3125,1569.8125 Q379.3125,1571.9063 380,1572.9844 Q380.6875,1574.0469 382.0313,1574.0469 Q382.6563,1574.0469 383.25,1573.7813 Q383.8438,1573.5 384.4688,1572.9219 L384.4688,1575.6406 Z " fill="#000000"/><text fill="#000000" font-family="sans-serif" font-size="12" lengthAdjust="spacing" textLength="50" x="395.5" y="1574.1543">Content</text><!--MD5=[7c5e5550b557017c416e2b122667c2d8]
class OpenApi\\Attributes\\Media\\DiscriminatorMapping--><rect codeLine="93" fill="#FEFECE" height="32" id="OpenApi\\Attributes\\Media\\DiscriminatorMapping" style="stroke:#A80036;stroke-width:1.5;" width="167" x="324" y="1621"/><ellipse cx="339" cy="1637" fill="#ADD1B2" rx="11" ry="11" style="stroke:#A80036;stroke-width:1.0;"/><path d="M341.9688,1642.6406 Q341.3906,1642.9375 340.75,1643.0781 Q340.1094,1643.2344 339.4063,1643.2344 Q336.9063,1643.2344 335.5781,1641.5938 Q334.2656,1639.9375 334.2656,1636.8125 Q334.2656,1633.6875 335.5781,1632.0313 Q336.9063,1630.375 339.4063,1630.375 Q340.1094,1630.375 340.75,1630.5313 Q341.4063,1630.6875 341.9688,1630.9844 L341.9688,1633.7031 Q341.3438,1633.125 340.75,1632.8594 Q340.1563,1632.5781 339.5313,1632.5781 Q338.1875,1632.5781 337.5,1633.6563 Q336.8125,1634.7188 336.8125,1636.8125 Q336.8125,1638.9063 337.5,1639.9844 Q338.1875,1641.0469 339.5313,1641.0469 Q340.1563,1641.0469 340.75,1640.7813 Q341.3438,1640.5 341.9688,1639.9219 L341.9688,1642.6406 Z " fill="#000000"/><text fill="#000000" font-family="sans-serif" font-size="12" lengthAdjust="spacing" textLength="135" x="353" y="1641.1543">DiscriminatorMapping</text><!--MD5=[b4623b77c64608be38baab16c97d5be2]
class OpenApi\\Attributes\\Media\\Encoding--><rect codeLine="96" fill="#FEFECE" height="32" id="OpenApi\\Attributes\\Media\\Encoding" style="stroke:#A80036;stroke-width:1.5;" width="90" x="362.5" y="1688"/><ellipse cx="377.5" cy="1704" fill="#ADD1B2" rx="11" ry="11" style="stroke:#A80036;stroke-width:1.0;"/><path d="M380.4688,1709.6406 Q379.8906,1709.9375 379.25,1710.0781 Q378.6094,1710.2344 377.9063,1710.2344 Q375.4063,1710.2344 374.0781,1708.5938 Q372.7656,1706.9375 372.7656,1703.8125 Q372.7656,1700.6875 374.0781,1699.0313 Q375.4063,1697.375 377.9063,1697.375 Q378.6094,1697.375 379.25,1697.5313 Q379.9063,1697.6875 380.4688,1697.9844 L380.4688,1700.7031 Q379.8438,1700.125 379.25,1699.8594 Q378.6563,1699.5781 378.0313,1699.5781 Q376.6875,1699.5781 376,1700.6563 Q375.3125,1701.7188 375.3125,1703.8125 Q375.3125,1705.9063 376,1706.9844 Q376.6875,1708.0469 378.0313,1708.0469 Q378.6563,1708.0469 379.25,1707.7813 Q379.8438,1707.5 380.4688,1706.9219 L380.4688,1709.6406 Z " fill="#000000"/><text fill="#000000" font-family="sans-serif" font-size="12" lengthAdjust="spacing" textLength="58" x="391.5" y="1708.1543">Encoding</text><!--MD5=[872d8a2b4984dafee8f9a145a9b338e8]
class OpenApi\\Attributes\\Media\\ExampleObject--><rect codeLine="99" fill="#FEFECE" height="32" id="OpenApi\\Attributes\\Media\\ExampleObject" style="stroke:#A80036;stroke-width:1.5;" width="124" x="345.5" y="1755"/><ellipse cx="360.5" cy="1771" fill="#ADD1B2" rx="11" ry="11" style="stroke:#A80036;stroke-width:1.0;"/><path d="M363.4688,1776.6406 Q362.8906,1776.9375 362.25,1777.0781 Q361.6094,1777.2344 360.9063,1777.2344 Q358.4063,1777.2344 357.0781,1775.5938 Q355.7656,1773.9375 355.7656,1770.8125 Q355.7656,1767.6875 357.0781,1766.0313 Q358.4063,1764.375 360.9063,1764.375 Q361.6094,1764.375 362.25,1764.5313 Q362.9063,1764.6875 363.4688,1764.9844 L363.4688,1767.7031 Q362.8438,1767.125 362.25,1766.8594 Q361.6563,1766.5781 361.0313,1766.5781 Q359.6875,1766.5781 359,1767.6563 Q358.3125,1768.7188 358.3125,1770.8125 Q358.3125,1772.9063 359,1773.9844 Q359.6875,1775.0469 361.0313,1775.0469 Q361.6563,1775.0469 362.25,1774.7813 Q362.8438,1774.5 363.4688,1773.9219 L363.4688,1776.6406 Z " fill="#000000"/><text fill="#000000" font-family="sans-serif" font-size="12" lengthAdjust="spacing" textLength="92" x="374.5" y="1775.1543">ExampleObject</text><!--MD5=[ab084ce7f0e877242a755da56faef21f]
class OpenApi\\Attributes\\Media\\Schema--><rect codeLine="102" fill="#FEFECE" height="32" id="OpenApi\\Attributes\\Media\\Schema" style="stroke:#A80036;stroke-width:1.5;" width="82" x="366.5" y="1822"/><ellipse cx="381.5" cy="1838" fill="#ADD1B2" rx="11" ry="11" style="stroke:#A80036;stroke-width:1.0;"/><path d="M384.4688,1843.6406 Q383.8906,1843.9375 383.25,1844.0781 Q382.6094,1844.2344 381.9063,1844.2344 Q379.4063,1844.2344 378.0781,1842.5938 Q376.7656,1840.9375 376.7656,1837.8125 Q376.7656,1834.6875 378.0781,1833.0313 Q379.4063,1831.375 381.9063,1831.375 Q382.6094,1831.375 383.25,1831.5313 Q383.9063,1831.6875 384.4688,1831.9844 L384.4688,1834.7031 Q383.8438,1834.125 383.25,1833.8594 Q382.6563,1833.5781 382.0313,1833.5781 Q380.6875,1833.5781 380,1834.6563 Q379.3125,1835.7188 379.3125,1837.8125 Q379.3125,1839.9063 380,1840.9844 Q380.6875,1842.0469 382.0313,1842.0469 Q382.6563,1842.0469 383.25,1841.7813 Q383.8438,1841.5 384.4688,1840.9219 L384.4688,1843.6406 Z " fill="#000000"/><text fill="#000000" font-family="sans-serif" font-size="12" lengthAdjust="spacing" textLength="50" x="395.5" y="1842.1543">Schema</text><!--MD5=[5ff6b4fb099132964e2c79b607be6314]
class OpenApi\\Attributes\\Parameters\\RequestBody--><rect codeLine="105" fill="#FEFECE" height="32" id="OpenApi\\Attributes\\Parameters\\RequestBody" style="stroke:#A80036;stroke-width:1.5;" width="114" x="350.5" y="1929"/><ellipse cx="365.5" cy="1945" fill="#ADD1B2" rx="11" ry="11" style="stroke:#A80036;stroke-width:1.0;"/><path d="M368.4688,1950.6406 Q367.8906,1950.9375 367.25,1951.0781 Q366.6094,1951.2344 365.9063,1951.2344 Q363.4063,1951.2344 362.0781,1949.5938 Q360.7656,1947.9375 360.7656,1944.8125 Q360.7656,1941.6875 362.0781,1940.0313 Q363.4063,1938.375 365.9063,1938.375 Q366.6094,1938.375 367.25,1938.5313 Q367.9063,1938.6875 368.4688,1938.9844 L368.4688,1941.7031 Q367.8438,1941.125 367.25,1940.8594 Q366.6563,1940.5781 366.0313,1940.5781 Q364.6875,1940.5781 364,1941.6563 Q363.3125,1942.7188 363.3125,1944.8125 Q363.3125,1946.9063 364,1947.9844 Q364.6875,1949.0469 366.0313,1949.0469 Q366.6563,1949.0469 367.25,1948.7813 Q367.8438,1948.5 368.4688,1947.9219 L368.4688,1950.6406 Z " fill="#000000"/><text fill="#000000" font-family="sans-serif" font-size="12" lengthAdjust="spacing" textLength="82" x="379.5" y="1949.1543">RequestBody</text><!--MD5=[912c95805522ad800c2597887091d006]
class OpenApi\\Attributes\\Responses\\ApiResponse--><rect codeLine="108" fill="#FEFECE" height="32" id="OpenApi\\Attributes\\Responses\\ApiResponse" style="stroke:#A80036;stroke-width:1.5;" width="113" x="351" y="2036"/><ellipse cx="366" cy="2052" fill="#ADD1B2" rx="11" ry="11" style="stroke:#A80036;stroke-width:1.0;"/><path d="M368.9688,2057.6406 Q368.3906,2057.9375 367.75,2058.0781 Q367.1094,2058.2344 366.4063,2058.2344 Q363.9063,2058.2344 362.5781,2056.5938 Q361.2656,2054.9375 361.2656,2051.8125 Q361.2656,2048.6875 362.5781,2047.0313 Q363.9063,2045.375 366.4063,2045.375 Q367.1094,2045.375 367.75,2045.5313 Q368.4063,2045.6875 368.9688,2045.9844 L368.9688,2048.7031 Q368.3438,2048.125 367.75,2047.8594 Q367.1563,2047.5781 366.5313,2047.5781 Q365.1875,2047.5781 364.5,2048.6563 Q363.8125,2049.7188 363.8125,2051.8125 Q363.8125,2053.9063 364.5,2054.9844 Q365.1875,2056.0469 366.5313,2056.0469 Q367.1563,2056.0469 367.75,2055.7813 Q368.3438,2055.5 368.9688,2054.9219 L368.9688,2057.6406 Z " fill="#000000"/><text fill="#000000" font-family="sans-serif" font-size="12" lengthAdjust="spacing" textLength="81" x="380" y="2056.1543">ApiResponse</text><!--MD5=[40c6eef08564c482cec8f573931056a9]
class OpenApi\\Attributes\\Security\\OAuthFlow--><rect codeLine="111" fill="#FEFECE" height="32" id="OpenApi\\Attributes\\Security\\OAuthFlow" style="stroke:#A80036;stroke-width:1.5;" width="97" x="359" y="2143"/><ellipse cx="374" cy="2159" fill="#ADD1B2" rx="11" ry="11" style="stroke:#A80036;stroke-width:1.0;"/><path d="M376.9688,2164.6406 Q376.3906,2164.9375 375.75,2165.0781 Q375.1094,2165.2344 374.4063,2165.2344 Q371.9063,2165.2344 370.5781,2163.5938 Q369.2656,2161.9375 369.2656,2158.8125 Q369.2656,2155.6875 370.5781,2154.0313 Q371.9063,2152.375 374.4063,2152.375 Q375.1094,2152.375 375.75,2152.5313 Q376.4063,2152.6875 376.9688,2152.9844 L376.9688,2155.7031 Q376.3438,2155.125 375.75,2154.8594 Q375.1563,2154.5781 374.5313,2154.5781 Q373.1875,2154.5781 372.5,2155.6563 Q371.8125,2156.7188 371.8125,2158.8125 Q371.8125,2160.9063 372.5,2161.9844 Q373.1875,2163.0469 374.5313,2163.0469 Q375.1563,2163.0469 375.75,2162.7813 Q376.3438,2162.5 376.9688,2161.9219 L376.9688,2164.6406 Z " fill="#000000"/><text fill="#000000" font-family="sans-serif" font-size="12" lengthAdjust="spacing" textLength="65" x="388" y="2163.1543">OAuthFlow</text><!--MD5=[f7ba939a552a55bb7871ffc29b1054b0]
class OpenApi\\Attributes\\Security\\OAuthFlows--><rect codeLine="114" fill="#FEFECE" height="32" id="OpenApi\\Attributes\\Security\\OAuthFlows" style="stroke:#A80036;stroke-width:1.5;" width="104" x="355.5" y="2210"/><ellipse cx="370.5" cy="2226" fill="#ADD1B2" rx="11" ry="11" style="stroke:#A80036;stroke-width:1.0;"/><path d="M373.4688,2231.6406 Q372.8906,2231.9375 372.25,2232.0781 Q371.6094,2232.2344 370.9063,2232.2344 Q368.4063,2232.2344 367.0781,2230.5938 Q365.7656,2228.9375 365.7656,2225.8125 Q365.7656,2222.6875 367.0781,2221.0313 Q368.4063,2219.375 370.9063,2219.375 Q371.6094,2219.375 372.25,2219.5313 Q372.9063,2219.6875 373.4688,2219.9844 L373.4688,2222.7031 Q372.8438,2222.125 372.25,2221.8594 Q371.6563,2221.5781 371.0313,2221.5781 Q369.6875,2221.5781 369,2222.6563 Q368.3125,2223.7188 368.3125,2225.8125 Q368.3125,2227.9063 369,2228.9844 Q369.6875,2230.0469 371.0313,2230.0469 Q371.6563,2230.0469 372.25,2229.7813 Q372.8438,2229.5 373.4688,2228.9219 L373.4688,2231.6406 Z " fill="#000000"/><text fill="#000000" font-family="sans-serif" font-size="12" lengthAdjust="spacing" textLength="72" x="384.5" y="2230.1543">OAuthFlows</text><!--MD5=[9c0f39f41c08e57a0997e2c0b0e6400a]
class OpenApi\\Attributes\\Security\\OAuthScope--><rect codeLine="117" fill="#FEFECE" height="32" id="OpenApi\\Attributes\\Security\\OAuthScope" style="stroke:#A80036;stroke-width:1.5;" width="109" x="353" y="2277"/><ellipse cx="368" cy="2293" fill="#ADD1B2" rx="11" ry="11" style="stroke:#A80036;stroke-width:1.0;"/><path d="M370.9688,2298.6406 Q370.3906,2298.9375 369.75,2299.0781 Q369.1094,2299.2344 368.4063,2299.2344 Q365.9063,2299.2344 364.5781,2297.5938 Q363.2656,2295.9375 363.2656,2292.8125 Q363.2656,2289.6875 364.5781,2288.0313 Q365.9063,2286.375 368.4063,2286.375 Q369.1094,2286.375 369.75,2286.5313 Q370.4063,2286.6875 370.9688,2286.9844 L370.9688,2289.7031 Q370.3438,2289.125 369.75,2288.8594 Q369.1563,2288.5781 368.5313,2288.5781 Q367.1875,2288.5781 366.5,2289.6563 Q365.8125,2290.7188 365.8125,2292.8125 Q365.8125,2294.9063 366.5,2295.9844 Q367.1875,2297.0469 368.5313,2297.0469 Q369.1563,2297.0469 369.75,2296.7813 Q370.3438,2296.5 370.9688,2295.9219 L370.9688,2298.6406 Z " fill="#000000"/><text fill="#000000" font-family="sans-serif" font-size="12" lengthAdjust="spacing" textLength="77" x="382" y="2297.1543">OAuthScope</text><!--MD5=[0c4909045f69305045c4501e0e967290]
class OpenApi\\Attributes\\Security\\SecurityRequirement--><rect codeLine="120" fill="#FEFECE" height="32" id="OpenApi\\Attributes\\Security\\SecurityRequirement" style="stroke:#A80036;stroke-width:1.5;" width="162" x="326.5" y="2344"/><ellipse cx="341.5" cy="2360" fill="#ADD1B2" rx="11" ry="11" style="stroke:#A80036;stroke-width:1.0;"/><path d="M344.4688,2365.6406 Q343.8906,2365.9375 343.25,2366.0781 Q342.6094,2366.2344 341.9063,2366.2344 Q339.4063,2366.2344 338.0781,2364.5938 Q336.7656,2362.9375 336.7656,2359.8125 Q336.7656,2356.6875 338.0781,2355.0313 Q339.4063,2353.375 341.9063,2353.375 Q342.6094,2353.375 343.25,2353.5313 Q343.9063,2353.6875 344.4688,2353.9844 L344.4688,2356.7031 Q343.8438,2356.125 343.25,2355.8594 Q342.6563,2355.5781 342.0313,2355.5781 Q340.6875,2355.5781 340,2356.6563 Q339.3125,2357.7188 339.3125,2359.8125 Q339.3125,2361.9063 340,2362.9844 Q340.6875,2364.0469 342.0313,2364.0469 Q342.6563,2364.0469 343.25,2363.7813 Q343.8438,2363.5 344.4688,2362.9219 L344.4688,2365.6406 Z " fill="#000000"/><text fill="#000000" font-family="sans-serif" font-size="12" lengthAdjust="spacing" textLength="130" x="355.5" y="2364.1543">SecurityRequirement</text><!--MD5=[c9ac8ffb3c9198de4b5173e636ede66e]
class OpenApi\\Attributes\\Security\\SecurityScheme--><rect codeLine="123" fill="#FEFECE" height="32" id="OpenApi\\Attributes\\Security\\SecurityScheme" style="stroke:#A80036;stroke-width:1.5;" width="132" x="341.5" y="2411"/><ellipse cx="356.5" cy="2427" fill="#ADD1B2" rx="11" ry="11" style="stroke:#A80036;stroke-width:1.0;"/><path d="M359.4688,2432.6406 Q358.8906,2432.9375 358.25,2433.0781 Q357.6094,2433.2344 356.9063,2433.2344 Q354.4063,2433.2344 353.0781,2431.5938 Q351.7656,2429.9375 351.7656,2426.8125 Q351.7656,2423.6875 353.0781,2422.0313 Q354.4063,2420.375 356.9063,2420.375 Q357.6094,2420.375 358.25,2420.5313 Q358.9063,2420.6875 359.4688,2420.9844 L359.4688,2423.7031 Q358.8438,2423.125 358.25,2422.8594 Q357.6563,2422.5781 357.0313,2422.5781 Q355.6875,2422.5781 355,2423.6563 Q354.3125,2424.7188 354.3125,2426.8125 Q354.3125,2428.9063 355,2429.9844 Q355.6875,2431.0469 357.0313,2431.0469 Q357.6563,2431.0469 358.25,2430.7813 Q358.8438,2430.5 359.4688,2429.9219 L359.4688,2432.6406 Z " fill="#000000"/><text fill="#000000" font-family="sans-serif" font-size="12" lengthAdjust="spacing" textLength="100" x="370.5" y="2431.1543">SecurityScheme</text><!--MD5=[dec30d8811a8d76068ebebd25925d5c2]
class OpenApi\\Attributes\\Servers\\Server--><rect codeLine="126" fill="#FEFECE" height="32" id="OpenApi\\Attributes\\Servers\\Server" style="stroke:#A80036;stroke-width:1.5;" width="72" x="371.5" y="2518"/><ellipse cx="386.5" cy="2534" fill="#ADD1B2" rx="11" ry="11" style="stroke:#A80036;stroke-width:1.0;"/><path d="M389.4688,2539.6406 Q388.8906,2539.9375 388.25,2540.0781 Q387.6094,2540.2344 386.9063,2540.2344 Q384.4063,2540.2344 383.0781,2538.5938 Q381.7656,2536.9375 381.7656,2533.8125 Q381.7656,2530.6875 383.0781,2529.0313 Q384.4063,2527.375 386.9063,2527.375 Q387.6094,2527.375 388.25,2527.5313 Q388.9063,2527.6875 389.4688,2527.9844 L389.4688,2530.7031 Q388.8438,2530.125 388.25,2529.8594 Q387.6563,2529.5781 387.0313,2529.5781 Q385.6875,2529.5781 385,2530.6563 Q384.3125,2531.7188 384.3125,2533.8125 Q384.3125,2535.9063 385,2536.9844 Q385.6875,2538.0469 387.0313,2538.0469 Q387.6563,2538.0469 388.25,2537.7813 Q388.8438,2537.5 389.4688,2536.9219 L389.4688,2539.6406 Z " fill="#000000"/><text fill="#000000" font-family="sans-serif" font-size="12" lengthAdjust="spacing" textLength="40" x="400.5" y="2538.1543">Server</text><!--MD5=[934feff4ce2502572955ee069cee6f2b]
class OpenApi\\Attributes\\Servers\\ServerVariable--><rect codeLine="129" fill="#FEFECE" height="32" id="OpenApi\\Attributes\\Servers\\ServerVariable" style="stroke:#A80036;stroke-width:1.5;" width="123" x="346" y="2585"/><ellipse cx="361" cy="2601" fill="#ADD1B2" rx="11" ry="11" style="stroke:#A80036;stroke-width:1.0;"/><path d="M363.9688,2606.6406 Q363.3906,2606.9375 362.75,2607.0781 Q362.1094,2607.2344 361.4063,2607.2344 Q358.9063,2607.2344 357.5781,2605.5938 Q356.2656,2603.9375 356.2656,2600.8125 Q356.2656,2597.6875 357.5781,2596.0313 Q358.9063,2594.375 361.4063,2594.375 Q362.1094,2594.375 362.75,2594.5313 Q363.4063,2594.6875 363.9688,2594.9844 L363.9688,2597.7031 Q363.3438,2597.125 362.75,2596.8594 Q362.1563,2596.5781 361.5313,2596.5781 Q360.1875,2596.5781 359.5,2597.6563 Q358.8125,2598.7188 358.8125,2600.8125 Q358.8125,2602.9063 359.5,2603.9844 Q360.1875,2605.0469 361.5313,2605.0469 Q362.1563,2605.0469 362.75,2604.7813 Q363.3438,2604.5 363.9688,2603.9219 L363.9688,2606.6406 Z " fill="#000000"/><text fill="#000000" font-family="sans-serif" font-size="12" lengthAdjust="spacing" textLength="91" x="375" y="2605.1543">ServerVariable</text><!--MD5=[734519e1f09e0f1715a0fe3c81a332f1]
class OpenApi\\Attributes\\Tags\\Tag--><rect codeLine="132" fill="#FEFECE" height="32" id="OpenApi\\Attributes\\Tags\\Tag" style="stroke:#A80036;stroke-width:1.5;" width="55" x="380" y="2692"/><ellipse cx="395" cy="2708" fill="#ADD1B2" rx="11" ry="11" style="stroke:#A80036;stroke-width:1.0;"/><path d="M397.9688,2713.6406 Q397.3906,2713.9375 396.75,2714.0781 Q396.1094,2714.2344 395.4063,2714.2344 Q392.9063,2714.2344 391.5781,2712.5938 Q390.2656,2710.9375 390.2656,2707.8125 Q390.2656,2704.6875 391.5781,2703.0313 Q392.9063,2701.375 395.4063,2701.375 Q396.1094,2701.375 396.75,2701.5313 Q397.4063,2701.6875 397.9688,2701.9844 L397.9688,2704.7031 Q397.3438,2704.125 396.75,2703.8594 Q396.1563,2703.5781 395.5313,2703.5781 Q394.1875,2703.5781 393.5,2704.6563 Q392.8125,2705.7188 392.8125,2707.8125 Q392.8125,2709.9063 393.5,2710.9844 Q394.1875,2712.0469 395.5313,2712.0469 Q396.1563,2712.0469 396.75,2711.7813 Q397.3438,2711.5 397.9688,2710.9219 L397.9688,2713.6406 Z " fill="#000000"/><text fill="#000000" font-family="sans-serif" font-size="12" lengthAdjust="spacing" textLength="23" x="409" y="2712.1543">Tag</text><!--MD5=[8ebd2b626a3693fc51d0abc029ce83b7]
reverse link OpenApi\\Attributes\\OpenApiAttributeInterface to OpenApi\\Attributes\\Consumes--><path d="M247.12,589.8 C247.12,589.8 358.86,589.8 358.86,589.8 " fill="none" id="OpenApi\\Attributes\\OpenApiAttributeInterface-backto-OpenApi\\Attributes\\Consumes" style="stroke:#516F42;stroke-width:1.0;stroke-dasharray:7.0,7.0;"/><polygon fill="none" points="247.12,596.8,227.12,589.8,247.12,582.8,247.12,596.8" style="stroke:#516F42;stroke-width:1.0;"/><!--MD5=[6bdab171a666c4a8dc061e3b79c76244]
reverse link OpenApi\\Attributes\\Method to OpenApi\\Attributes\\Delete--><path d="M467.23,536.67 C467.23,536.67 597,536.67 597,536.67 C597,536.67 597,560.07 597,576.71 " fill="none" id="OpenApi\\Attributes\\Method-backto-OpenApi\\Attributes\\Delete" style="stroke:#516F42;stroke-width:1.0;"/><polygon fill="none" points="467.23,543.67,447.23,536.67,467.23,529.67,467.23,543.67" style="stroke:#516F42;stroke-width:1.0;"/><!--MD5=[c3add067d03f54927ff25c86e9808562]
reverse link OpenApi\\Attributes\\OpenApiAttributeInterface to OpenApi\\Attributes\\ExternalDocumentation--><path d="M247,583.4 C247,583.4 331,583.4 331,583.4 C331,583.4 331,508.61 331,475.01 " fill="none" id="OpenApi\\Attributes\\OpenApiAttributeInterface-backto-OpenApi\\Attributes\\ExternalDocumentation" style="stroke:#516F42;stroke-width:1.0;stroke-dasharray:7.0,7.0;"/><polygon fill="none" points="247,590.4,227,583.4,247,576.4,247,590.4" style="stroke:#516F42;stroke-width:1.0;"/><!--MD5=[36d10c1011aece660d0f3a628a5c1917]
reverse link OpenApi\\Attributes\\Method to OpenApi\\Attributes\\Get--><path d="M467.23,531.33 C467.23,531.33 598.43,531.33 598.43,531.33 " fill="none" id="OpenApi\\Attributes\\Method-backto-OpenApi\\Attributes\\Get" style="stroke:#516F42;stroke-width:1.0;"/><polygon fill="none" points="467.23,538.33,447.23,531.33,467.23,524.33,467.23,538.33" style="stroke:#516F42;stroke-width:1.0;"/><!--MD5=[c1884eec3c8e7a1e10f859c604cd1b84]
reverse link OpenApi\\Attributes\\OpenApiAttributeInterface to OpenApi\\Attributes\\Hidden--><path d="M179,556.89 C179,556.89 179,392 179,392 C179,392 304.21,392 369.25,392 " fill="none" id="OpenApi\\Attributes\\OpenApiAttributeInterface-backto-OpenApi\\Attributes\\Hidden" style="stroke:#516F42;stroke-width:1.0;stroke-dasharray:7.0,7.0;"/><polygon fill="none" points="186,556.89,179,576.89,172,556.89,186,556.89" style="stroke:#516F42;stroke-width:1.0;"/><!--MD5=[2902cf43a3a3bea722f63c5895fd862e]
reverse link OpenApi\\Attributes\\OpenApiAttributeInterface to OpenApi\\Attributes\\Method--><path d="M203,556.78 C203,556.78 203,526 203,526 C203,526 308.07,526 367.58,526 " fill="none" id="OpenApi\\Attributes\\OpenApiAttributeInterface-backto-OpenApi\\Attributes\\Method" style="stroke:#516F42;stroke-width:1.0;stroke-dasharray:7.0,7.0;"/><polygon fill="none" points="210,556.78,203,576.78,196,556.78,210,556.78" style="stroke:#516F42;stroke-width:1.0;"/><!--MD5=[6f978909f700bf86a3c641624b98b42a]
reverse link OpenApi\\Attributes\\OpenApiAttributeInterface to OpenApi\\Attributes\\OpenAPIDefinition--><path d="M154,556.64 C154,556.64 154,325 154,325 C154,325 260.91,325 335.87,325 " fill="none" id="OpenApi\\Attributes\\OpenApiAttributeInterface-backto-OpenApi\\Attributes\\OpenAPIDefinition" style="stroke:#516F42;stroke-width:1.0;stroke-dasharray:7.0,7.0;"/><polygon fill="none" points="161,556.64,154,576.64,147,556.64,161,556.64" style="stroke:#516F42;stroke-width:1.0;"/><!--MD5=[c4ef2c3ac47198f6f6aa8835b0cf9d1d]
reverse link OpenApi\\Attributes\\OpenApiAttributeInterface to OpenApi\\Attributes\\Operation--><path d="M130,556.84 C130,556.84 130,258 130,258 C130,258 281.25,258 360.43,258 " fill="none" id="OpenApi\\Attributes\\OpenApiAttributeInterface-backto-OpenApi\\Attributes\\Operation" style="stroke:#516F42;stroke-width:1.0;stroke-dasharray:7.0,7.0;"/><polygon fill="none" points="137,556.84,130,576.84,123,556.84,137,556.84" style="stroke:#516F42;stroke-width:1.0;"/><!--MD5=[8db9b0231008744a49423f9c61234c80]
reverse link OpenApi\\Attributes\\OpenApiAttributeInterface to OpenApi\\Attributes\\Parameter--><path d="M106,556.74 C106,556.74 106,191 106,191 C106,191 272.95,191 358.39,191 " fill="none" id="OpenApi\\Attributes\\OpenApiAttributeInterface-backto-OpenApi\\Attributes\\Parameter" style="stroke:#516F42;stroke-width:1.0;stroke-dasharray:7.0,7.0;"/><polygon fill="none" points="113,556.74,106,576.74,99,556.74,113,556.74" style="stroke:#516F42;stroke-width:1.0;"/><!--MD5=[af1b1226bdf656bbf93f6cd11c294d26]
reverse link OpenApi\\Attributes\\Method to OpenApi\\Attributes\\Patch--><path d="M467.05,526 C467.05,526 594,526 594,526 C594,526 594,495.05 594,475.22 " fill="none" id="OpenApi\\Attributes\\Method-backto-OpenApi\\Attributes\\Patch" style="stroke:#516F42;stroke-width:1.0;"/><polygon fill="none" points="467.05,533,447.05,526,467.05,519,467.05,533" style="stroke:#516F42;stroke-width:1.0;"/><!--MD5=[c2876051e05536004a7de19445f776ea]
reverse link OpenApi\\Attributes\\OpenApiAttributeInterface to OpenApi\\Attributes\\Path--><path d="M81,556.86 C81,556.86 81,124 81,124 C81,124 295.51,124 376.78,124 " fill="none" id="OpenApi\\Attributes\\OpenApiAttributeInterface-backto-OpenApi\\Attributes\\Path" style="stroke:#516F42;stroke-width:1.0;stroke-dasharray:7.0,7.0;"/><polygon fill="none" points="88,556.86,81,576.86,74,556.86,88,556.86" style="stroke:#516F42;stroke-width:1.0;"/><!--MD5=[3e96e44f5c23976d6de614e490d5ccd9]
reverse link OpenApi\\Attributes\\Method to OpenApi\\Attributes\\Post--><path d="M467.3,520.67 C467.3,520.67 559,520.67 559,520.67 C559,520.67 559,392 559,392 C559,392 577.77,392 595.36,392 " fill="none" id="OpenApi\\Attributes\\Method-backto-OpenApi\\Attributes\\Post" style="stroke:#516F42;stroke-width:1.0;"/><polygon fill="none" points="467.3,527.67,447.3,520.67,467.3,513.67,467.3,527.67" style="stroke:#516F42;stroke-width:1.0;"/><!--MD5=[90ff10be3bbc8bd9d420a19e4f3bdd62]
reverse link OpenApi\\Attributes\\OpenApiAttributeInterface to OpenApi\\Attributes\\Produces--><path d="M57,556.96 C57,556.96 57,57 57,57 C57,57 266.67,57 361.68,57 " fill="none" id="OpenApi\\Attributes\\OpenApiAttributeInterface-backto-OpenApi\\Attributes\\Produces" style="stroke:#516F42;stroke-width:1.0;stroke-dasharray:7.0,7.0;"/><polygon fill="none" points="64,556.96,57,576.96,50,556.96,64,556.96" style="stroke:#516F42;stroke-width:1.0;"/><!--MD5=[fe09e979d672d797b19cc7d1b3edafea]
reverse link OpenApi\\Attributes\\Method to OpenApi\\Attributes\\Put--><path d="M467.29,515.33 C467.29,515.33 528,515.33 528,515.33 C528,515.33 528,325 528,325 C528,325 569.99,325 598.86,325 " fill="none" id="OpenApi\\Attributes\\Method-backto-OpenApi\\Attributes\\Put" style="stroke:#516F42;stroke-width:1.0;"/><polygon fill="none" points="467.29,522.33,447.29,515.33,467.29,508.33,467.29,522.33" style="stroke:#516F42;stroke-width:1.0;"/><!--MD5=[0c2fa3e1a89d34d6ac4fa8e48cdd43ae]
reverse link OpenApi\\Attributes\\OpenApiAttributeInterface to OpenApi\\Attributes\\Callbacks\\Callback--><path d="M219,629.25 C219,629.25 219,700 219,700 C219,700 309.62,700 365.2,700 " fill="none" id="OpenApi\\Attributes\\OpenApiAttributeInterface-backto-OpenApi\\Attributes\\Callbacks\\Callback" style="stroke:#516F42;stroke-width:1.0;stroke-dasharray:7.0,7.0;"/><polygon fill="none" points="212,629.25,219,609.25,226,629.25,212,629.25" style="stroke:#516F42;stroke-width:1.0;"/><!--MD5=[1a0423e7e14f637409aad565077dcb3e]
reverse link OpenApi\\Attributes\\OpenApiAttributeInterface to OpenApi\\Attributes\\Extensions\\Extension--><path d="M211,629.08 C211,629.08 211,807 211,807 C211,807 302.82,807 360.93,807 " fill="none" id="OpenApi\\Attributes\\OpenApiAttributeInterface-backto-OpenApi\\Attributes\\Extensions\\Extension" style="stroke:#516F42;stroke-width:1.0;stroke-dasharray:7.0,7.0;"/><polygon fill="none" points="204,629.08,211,609.08,218,629.08,204,629.08" style="stroke:#516F42;stroke-width:1.0;"/><!--MD5=[669f59ba63a7d50fdd94f4bc89c6d4af]
reverse link OpenApi\\Attributes\\OpenApiAttributeInterface to OpenApi\\Attributes\\Extensions\\ExtensionProperty--><path d="M247.12,596.2 C247.12,596.2 347,596.2 347,596.2 C347,596.2 347,798.57 347,857.86 " fill="none" id="OpenApi\\Attributes\\OpenApiAttributeInterface-backto-OpenApi\\Attributes\\Extensions\\ExtensionProperty" style="stroke:#516F42;stroke-width:1.0;stroke-dasharray:7.0,7.0;"/><polygon fill="none" points="247.12,603.2,227.12,596.2,247.12,589.2,247.12,603.2" style="stroke:#516F42;stroke-width:1.0;"/><!--MD5=[dbb0fde3c818d23b3f6f769ce53c1371]
reverse link OpenApi\\Attributes\\OpenApiAttributeInterface to OpenApi\\Attributes\\Headers\\Header--><path d="M203,629.18 C203,629.18 203,981 203,981 C203,981 308.65,981 368.07,981 " fill="none" id="OpenApi\\Attributes\\OpenApiAttributeInterface-backto-OpenApi\\Attributes\\Headers\\Header" style="stroke:#516F42;stroke-width:1.0;stroke-dasharray:7.0,7.0;"/><polygon fill="none" points="196,629.18,203,609.18,210,629.18,196,629.18" style="stroke:#516F42;stroke-width:1.0;"/><!--MD5=[ec146c0189ec87f2d78fc198ee956c39]
reverse link OpenApi\\Attributes\\OpenApiAttributeInterface to OpenApi\\Attributes\\Info\\Contact--><path d="M195,629.19 C195,629.19 195,1088 195,1088 C195,1088 305.08,1088 366.78,1088 " fill="none" id="OpenApi\\Attributes\\OpenApiAttributeInterface-backto-OpenApi\\Attributes\\Info\\Contact" style="stroke:#516F42;stroke-width:1.0;stroke-dasharray:7.0,7.0;"/><polygon fill="none" points="188,629.19,195,609.19,202,629.19,188,629.19" style="stroke:#516F42;stroke-width:1.0;"/><!--MD5=[937b41c48b0d71ab616b2ee37836d3c5]
reverse link OpenApi\\Attributes\\OpenApiAttributeInterface to OpenApi\\Attributes\\Info\\Info--><path d="M187,629.21 C187,629.21 187,1155 187,1155 C187,1155 320.24,1155 379.57,1155 " fill="none" id="OpenApi\\Attributes\\OpenApiAttributeInterface-backto-OpenApi\\Attributes\\Info\\Info" style="stroke:#516F42;stroke-width:1.0;stroke-dasharray:7.0,7.0;"/><polygon fill="none" points="180,629.21,187,609.21,194,629.21,180,629.21" style="stroke:#516F42;stroke-width:1.0;"/><!--MD5=[9daada1f477c905da7749847fe873703]
reverse link OpenApi\\Attributes\\OpenApiAttributeInterface to OpenApi\\Attributes\\Info\\License--><path d="M179,629.18 C179,629.18 179,1222 179,1222 C179,1222 302.56,1222 367.96,1222 " fill="none" id="OpenApi\\Attributes\\OpenApiAttributeInterface-backto-OpenApi\\Attributes\\Info\\License" style="stroke:#516F42;stroke-width:1.0;stroke-dasharray:7.0,7.0;"/><polygon fill="none" points="172,629.18,179,609.18,186,629.18,172,629.18" style="stroke:#516F42;stroke-width:1.0;"/><!--MD5=[a674556b855ad6f39dce98278e2defde]
reverse link OpenApi\\Attributes\\OpenApiAttributeInterface to OpenApi\\Attributes\\Links\\Link--><path d="M171,629.06 C171,629.06 171,1329 171,1329 C171,1329 316.8,1329 379.44,1329 " fill="none" id="OpenApi\\Attributes\\OpenApiAttributeInterface-backto-OpenApi\\Attributes\\Links\\Link" style="stroke:#516F42;stroke-width:1.0;stroke-dasharray:7.0,7.0;"/><polygon fill="none" points="164,629.06,171,609.06,178,629.06,164,629.06" style="stroke:#516F42;stroke-width:1.0;"/><!--MD5=[033e54f87891839b4bdca9539420ccf5]
reverse link OpenApi\\Attributes\\OpenApiAttributeInterface to OpenApi\\Attributes\\Links\\LinkParameter--><path d="M162,629.04 C162,629.04 162,1396 162,1396 C162,1396 273.79,1396 346.5,1396 " fill="none" id="OpenApi\\Attributes\\OpenApiAttributeInterface-backto-OpenApi\\Attributes\\Links\\LinkParameter" style="stroke:#516F42;stroke-width:1.0;stroke-dasharray:7.0,7.0;"/><polygon fill="none" points="155,629.04,162,609.04,169,629.04,155,629.04" style="stroke:#516F42;stroke-width:1.0;"/><!--MD5=[3d40f28476b738cf652c4df1656895de]
reverse link OpenApi\\Attributes\\OpenApiAttributeInterface to OpenApi\\Attributes\\Media\\ArraySchema--><path d="M154,629.18 C154,629.18 154,1503 154,1503 C154,1503 275.53,1503 350.29,1503 " fill="none" id="OpenApi\\Attributes\\OpenApiAttributeInterface-backto-OpenApi\\Attributes\\Media\\ArraySchema" style="stroke:#516F42;stroke-width:1.0;stroke-dasharray:7.0,7.0;"/><polygon fill="none" points="147,629.18,154,609.18,161,629.18,147,629.18" style="stroke:#516F42;stroke-width:1.0;"/><!--MD5=[44a7b639935587aa95856478fa8b0cda]
reverse link OpenApi\\Attributes\\OpenApiAttributeInterface to OpenApi\\Attributes\\Media\\Content--><path d="M146,629.14 C146,629.14 146,1570 146,1570 C146,1570 292.71,1570 366.35,1570 " fill="none" id="OpenApi\\Attributes\\OpenApiAttributeInterface-backto-OpenApi\\Attributes\\Media\\Content" style="stroke:#516F42;stroke-width:1.0;stroke-dasharray:7.0,7.0;"/><polygon fill="none" points="139,629.14,146,609.14,153,629.14,139,629.14" style="stroke:#516F42;stroke-width:1.0;"/><!--MD5=[d738da96696dfb21d5465defd053b00f]
reverse link OpenApi\\Attributes\\OpenApiAttributeInterface to OpenApi\\Attributes\\Media\\DiscriminatorMapping--><path d="M247.01,602.6 C247.01,602.6 328,602.6 328,602.6 C328,602.6 328,1489.15 328,1620.75 " fill="none" id="OpenApi\\Attributes\\OpenApiAttributeInterface-backto-OpenApi\\Attributes\\Media\\DiscriminatorMapping" style="stroke:#516F42;stroke-width:1.0;stroke-dasharray:7.0,7.0;"/><polygon fill="none" points="247.01,609.6,227.01,602.6,247.01,595.6,247.01,609.6" style="stroke:#516F42;stroke-width:1.0;"/><!--MD5=[44ab128cba0cbcefc59606bd69b98207]
reverse link OpenApi\\Attributes\\OpenApiAttributeInterface to OpenApi\\Attributes\\Media\\Encoding--><path d="M138,629.13 C138,629.13 138,1704 138,1704 C138,1704 285.67,1704 362.39,1704 " fill="none" id="OpenApi\\Attributes\\OpenApiAttributeInterface-backto-OpenApi\\Attributes\\Media\\Encoding" style="stroke:#516F42;stroke-width:1.0;stroke-dasharray:7.0,7.0;"/><polygon fill="none" points="131,629.13,138,609.13,145,629.13,131,629.13" style="stroke:#516F42;stroke-width:1.0;"/><!--MD5=[f319a3f1d1bd2dd5658ad8975cc31a28]
reverse link OpenApi\\Attributes\\OpenApiAttributeInterface to OpenApi\\Attributes\\Media\\ExampleObject--><path d="M130,629.2 C130,629.2 130,1771 130,1771 C130,1771 263.41,1771 345.22,1771 " fill="none" id="OpenApi\\Attributes\\OpenApiAttributeInterface-backto-OpenApi\\Attributes\\Media\\ExampleObject" style="stroke:#516F42;stroke-width:1.0;stroke-dasharray:7.0,7.0;"/><polygon fill="none" points="123,629.2,130,609.2,137,629.2,123,629.2" style="stroke:#516F42;stroke-width:1.0;"/><!--MD5=[f12ee90ba963633ceb9020ee1ea8378c]
reverse link OpenApi\\Attributes\\OpenApiAttributeInterface to OpenApi\\Attributes\\Media\\Schema--><path d="M122,629.2 C122,629.2 122,1838 122,1838 C122,1838 287.23,1838 366.29,1838 " fill="none" id="OpenApi\\Attributes\\OpenApiAttributeInterface-backto-OpenApi\\Attributes\\Media\\Schema" style="stroke:#516F42;stroke-width:1.0;stroke-dasharray:7.0,7.0;"/><polygon fill="none" points="115,629.2,122,609.2,129,629.2,115,629.2" style="stroke:#516F42;stroke-width:1.0;"/><!--MD5=[d279c1b2e9289aae194f0d0923caaa64]
reverse link OpenApi\\Attributes\\OpenApiAttributeInterface to OpenApi\\Attributes\\Parameters\\RequestBody--><path d="M114,629.13 C114,629.13 114,1945 114,1945 C114,1945 264.8,1945 350.21,1945 " fill="none" id="OpenApi\\Attributes\\OpenApiAttributeInterface-backto-OpenApi\\Attributes\\Parameters\\RequestBody" style="stroke:#516F42;stroke-width:1.0;stroke-dasharray:7.0,7.0;"/><polygon fill="none" points="107,629.13,114,609.13,121,629.13,107,629.13" style="stroke:#516F42;stroke-width:1.0;"/><!--MD5=[06b004fbdb3e5239dae298bb97739c1a]
reverse link OpenApi\\Attributes\\OpenApiAttributeInterface to OpenApi\\Attributes\\Responses\\ApiResponse--><path d="M106,629.39 C106,629.39 106,2052 106,2052 C106,2052 263.45,2052 350.79,2052 " fill="none" id="OpenApi\\Attributes\\OpenApiAttributeInterface-backto-OpenApi\\Attributes\\Responses\\ApiResponse" style="stroke:#516F42;stroke-width:1.0;stroke-dasharray:7.0,7.0;"/><polygon fill="none" points="99,629.39,106,609.39,113,629.39,99,629.39" style="stroke:#516F42;stroke-width:1.0;"/><!--MD5=[5dbcd53744594e4f8ecbee15ec54aa53]
reverse link OpenApi\\Attributes\\OpenApiAttributeInterface to OpenApi\\Attributes\\Security\\OAuthFlow--><path d="M97,629.01 C97,629.01 97,2159 97,2159 C97,2159 271.66,2159 358.98,2159 " fill="none" id="OpenApi\\Attributes\\OpenApiAttributeInterface-backto-OpenApi\\Attributes\\Security\\OAuthFlow" style="stroke:#516F42;stroke-width:1.0;stroke-dasharray:7.0,7.0;"/><polygon fill="none" points="90,629.01,97,609.01,104,629.01,90,629.01" style="stroke:#516F42;stroke-width:1.0;"/><!--MD5=[7340ee21eded0f6c32aecf0623af11ea]
reverse link OpenApi\\Attributes\\OpenApiAttributeInterface to OpenApi\\Attributes\\Security\\OAuthFlows--><path d="M89,629.16 C89,629.16 89,2226 89,2226 C89,2226 264.91,2226 355.26,2226 " fill="none" id="OpenApi\\Attributes\\OpenApiAttributeInterface-backto-OpenApi\\Attributes\\Security\\OAuthFlows" style="stroke:#516F42;stroke-width:1.0;stroke-dasharray:7.0,7.0;"/><polygon fill="none" points="82,629.16,89,609.16,96,629.16,82,629.16" style="stroke:#516F42;stroke-width:1.0;"/><!--MD5=[557ddc44e5db9f2d9cd96089900b9f4e]
reverse link OpenApi\\Attributes\\OpenApiAttributeInterface to OpenApi\\Attributes\\Security\\OAuthScope--><path d="M81,629.01 C81,629.01 81,2293 81,2293 C81,2293 259.9,2293 352.85,2293 " fill="none" id="OpenApi\\Attributes\\OpenApiAttributeInterface-backto-OpenApi\\Attributes\\Security\\OAuthScope" style="stroke:#516F42;stroke-width:1.0;stroke-dasharray:7.0,7.0;"/><polygon fill="none" points="74,629.01,81,609.01,88,629.01,74,629.01" style="stroke:#516F42;stroke-width:1.0;"/><!--MD5=[f1176a0b55dc9764982a775fef6015b9]
reverse link OpenApi\\Attributes\\OpenApiAttributeInterface to OpenApi\\Attributes\\Security\\SecurityRequirement--><path d="M73,629.09 C73,629.09 73,2360 73,2360 C73,2360 227.09,2360 326.1,2360 " fill="none" id="OpenApi\\Attributes\\OpenApiAttributeInterface-backto-OpenApi\\Attributes\\Security\\SecurityRequirement" style="stroke:#516F42;stroke-width:1.0;stroke-dasharray:7.0,7.0;"/><polygon fill="none" points="66,629.09,73,609.09,80,629.09,66,629.09" style="stroke:#516F42;stroke-width:1.0;"/><!--MD5=[e7549d851e3376d0c5398f7ebc072a1e]
reverse link OpenApi\\Attributes\\OpenApiAttributeInterface to OpenApi\\Attributes\\Security\\SecurityScheme--><path d="M65,629.13 C65,629.13 65,2427 65,2427 C65,2427 241.94,2427 341.46,2427 " fill="none" id="OpenApi\\Attributes\\OpenApiAttributeInterface-backto-OpenApi\\Attributes\\Security\\SecurityScheme" style="stroke:#516F42;stroke-width:1.0;stroke-dasharray:7.0,7.0;"/><polygon fill="none" points="58,629.13,65,609.13,72,629.13,58,629.13" style="stroke:#516F42;stroke-width:1.0;"/><!--MD5=[ce43c7f0a6aeab12257dd4ee8f1a08d9]
reverse link OpenApi\\Attributes\\OpenApiAttributeInterface to OpenApi\\Attributes\\Servers\\Server--><path d="M57,629.2 C57,629.2 57,2534 57,2534 C57,2534 281.76,2534 371.31,2534 " fill="none" id="OpenApi\\Attributes\\OpenApiAttributeInterface-backto-OpenApi\\Attributes\\Servers\\Server" style="stroke:#516F42;stroke-width:1.0;stroke-dasharray:7.0,7.0;"/><polygon fill="none" points="50,629.2,57,609.2,64,629.2,50,629.2" style="stroke:#516F42;stroke-width:1.0;"/><!--MD5=[b7291f4c3c977fe26018a5365bb8f2ae]
reverse link OpenApi\\Attributes\\OpenApiAttributeInterface to OpenApi\\Attributes\\Servers\\ServerVariable--><path d="M49,629.16 C49,629.16 49,2601 49,2601 C49,2601 243.37,2601 345.87,2601 " fill="none" id="OpenApi\\Attributes\\OpenApiAttributeInterface-backto-OpenApi\\Attributes\\Servers\\ServerVariable" style="stroke:#516F42;stroke-width:1.0;stroke-dasharray:7.0,7.0;"/><polygon fill="none" points="42,629.16,49,609.16,56,629.16,42,629.16" style="stroke:#516F42;stroke-width:1.0;"/><!--MD5=[53ebd794ea2cd8471941d168aeb30663]
reverse link OpenApi\\Attributes\\OpenApiAttributeInterface to OpenApi\\Attributes\\Tags\\Tag--><path d="M41,629.11 C41,629.11 41,2708 41,2708 C41,2708 294.72,2708 379.95,2708 " fill="none" id="OpenApi\\Attributes\\OpenApiAttributeInterface-backto-OpenApi\\Attributes\\Tags\\Tag" style="stroke:#516F42;stroke-width:1.0;stroke-dasharray:7.0,7.0;"/><polygon fill="none" points="34,629.11,41,609.11,48,629.11,34,629.11" style="stroke:#516F42;stroke-width:1.0;"/><!--MD5=[8882179b14017e031b7c102c8cfb0688]
@startuml
   skinparam ArrowColor #516f42
   skinparam activityBorderColor #516f42
   skinparam activityBackgroundColor #ffffff
   skinparam activityDiamondBorderColor #516f42
   skinparam activityDiamondBackgroundColor #ffffff
   skinparam shadowing false

skinparam shadowing false
skinparam linetype ortho
hide empty members
left to right direction
set namespaceSeparator \\


class \\OpenApi\\Attributes\\Consumes implements \\OpenApi\\Attributes\\OpenApiAttributeInterface {
}

class \\OpenApi\\Attributes\\Delete extends \\OpenApi\\Attributes\\Method {
}

class \\OpenApi\\Attributes\\ExternalDocumentation implements \\OpenApi\\Attributes\\OpenApiAttributeInterface {
}

class \\OpenApi\\Attributes\\Get extends \\OpenApi\\Attributes\\Method {
}

class \\OpenApi\\Attributes\\Hidden implements \\OpenApi\\Attributes\\OpenApiAttributeInterface {
}

abstract class \\OpenApi\\Attributes\\Method implements \\OpenApi\\Attributes\\OpenApiAttributeInterface {
}

class \\OpenApi\\Attributes\\OpenAPIDefinition implements \\OpenApi\\Attributes\\OpenApiAttributeInterface {
}

class \\OpenApi\\Attributes\\Operation implements \\OpenApi\\Attributes\\OpenApiAttributeInterface {
}

class \\OpenApi\\Attributes\\Parameter implements \\OpenApi\\Attributes\\OpenApiAttributeInterface {
}

class \\OpenApi\\Attributes\\Patch extends \\OpenApi\\Attributes\\Method {
}

class \\OpenApi\\Attributes\\Path implements \\OpenApi\\Attributes\\OpenApiAttributeInterface {
}

class \\OpenApi\\Attributes\\Post extends \\OpenApi\\Attributes\\Method {
}

class \\OpenApi\\Attributes\\Produces implements \\OpenApi\\Attributes\\OpenApiAttributeInterface {
}

class \\OpenApi\\Attributes\\Put extends \\OpenApi\\Attributes\\Method {
}

interface \\OpenApi\\Attributes\\OpenApiAttributeInterface {
}

class \\OpenApi\\Attributes\\Callbacks\\Callback implements \\OpenApi\\Attributes\\OpenApiAttributeInterface {
}

class \\OpenApi\\Attributes\\Extensions\\Extension implements \\OpenApi\\Attributes\\OpenApiAttributeInterface {
}

class \\OpenApi\\Attributes\\Extensions\\ExtensionProperty implements \\OpenApi\\Attributes\\OpenApiAttributeInterface {
}

class \\OpenApi\\Attributes\\Headers\\Header implements \\OpenApi\\Attributes\\OpenApiAttributeInterface {
}

class \\OpenApi\\Attributes\\Info\\Contact implements \\OpenApi\\Attributes\\OpenApiAttributeInterface {
}

class \\OpenApi\\Attributes\\Info\\Info implements \\OpenApi\\Attributes\\OpenApiAttributeInterface {
}

class \\OpenApi\\Attributes\\Info\\License implements \\OpenApi\\Attributes\\OpenApiAttributeInterface {
}

class \\OpenApi\\Attributes\\Links\\Link implements \\OpenApi\\Attributes\\OpenApiAttributeInterface {
}

class \\OpenApi\\Attributes\\Links\\LinkParameter implements \\OpenApi\\Attributes\\OpenApiAttributeInterface {
}

class \\OpenApi\\Attributes\\Media\\ArraySchema implements \\OpenApi\\Attributes\\OpenApiAttributeInterface {
}

class \\OpenApi\\Attributes\\Media\\Content implements \\OpenApi\\Attributes\\OpenApiAttributeInterface {
}

class \\OpenApi\\Attributes\\Media\\DiscriminatorMapping implements \\OpenApi\\Attributes\\OpenApiAttributeInterface {
}

class \\OpenApi\\Attributes\\Media\\Encoding implements \\OpenApi\\Attributes\\OpenApiAttributeInterface {
}

class \\OpenApi\\Attributes\\Media\\ExampleObject implements \\OpenApi\\Attributes\\OpenApiAttributeInterface {
}

class \\OpenApi\\Attributes\\Media\\Schema implements \\OpenApi\\Attributes\\OpenApiAttributeInterface {
}

class \\OpenApi\\Attributes\\Parameters\\RequestBody implements \\OpenApi\\Attributes\\OpenApiAttributeInterface {
}

class \\OpenApi\\Attributes\\Responses\\ApiResponse implements \\OpenApi\\Attributes\\OpenApiAttributeInterface {
}

class \\OpenApi\\Attributes\\Security\\OAuthFlow implements \\OpenApi\\Attributes\\OpenApiAttributeInterface {
}

class \\OpenApi\\Attributes\\Security\\OAuthFlows implements \\OpenApi\\Attributes\\OpenApiAttributeInterface {
}

class \\OpenApi\\Attributes\\Security\\OAuthScope implements \\OpenApi\\Attributes\\OpenApiAttributeInterface {
}

class \\OpenApi\\Attributes\\Security\\SecurityRequirement implements \\OpenApi\\Attributes\\OpenApiAttributeInterface {
}

class \\OpenApi\\Attributes\\Security\\SecurityScheme implements \\OpenApi\\Attributes\\OpenApiAttributeInterface {
}

class \\OpenApi\\Attributes\\Servers\\Server implements \\OpenApi\\Attributes\\OpenApiAttributeInterface {
}

class \\OpenApi\\Attributes\\Servers\\ServerVariable implements \\OpenApi\\Attributes\\OpenApiAttributeInterface {
}

class \\OpenApi\\Attributes\\Tags\\Tag implements \\OpenApi\\Attributes\\OpenApiAttributeInterface {
}

@enduml

PlantUML version 1.2021.16(Wed Dec 08 17:25:22 UTC 2021)
(GPL source distribution)
Java Runtime: OpenJDK Runtime Environment
JVM: OpenJDK 64-Bit Server VM
Default Encoding: ANSI_X3.4-1968
Language: en
Country: US
--></g></svg>