<?xml version="1.0" encoding="UTF-8" standalone="no"?><svg xmlns="http://www.w3.org/2000/svg" xmlns:xlink="http://www.w3.org/1999/xlink" contentScriptType="application/ecmascript" contentStyleType="text/css" height="2588px" preserveAspectRatio="none" style="width:695px;height:2588px;background:#FFFFFF;" version="1.1" viewBox="0 0 695 2588" width="695px" zoomAndPan="magnify"><defs/><g><!--MD5=[ec29e91dc25d1de100b0c34c5ff13c12]
cluster OpenApi\\Attributes--><polygon fill="#FFFFFF" points="16,6,173,6,180,28.2969,678,28.2969,678,609,16,609,16,6" style="stroke:#000000;stroke-width:1.5;"/><line style="stroke:#000000;stroke-width:1.5;" x1="16" x2="180" y1="28.2969" y2="28.2969"/><text fill="#000000" font-family="sans-serif" font-size="14" font-weight="bold" lengthAdjust="spacing" textLength="151" x="20" y="20.9951">OpenApi\Attributes</text><!--MD5=[f38fe2b8efeed6aaab9c82e65e6619ff]
cluster OpenApi\\Attributes\\Callbacks--><polygon fill="#FFFFFF" points="284.5,617,520.5,617,527.5,639.2969,530.5,639.2969,530.5,684,284.5,684,284.5,617" style="stroke:#000000;stroke-width:1.5;"/><line style="stroke:#000000;stroke-width:1.5;" x1="284.5" x2="527.5" y1="639.2969" y2="639.2969"/><text fill="#000000" font-family="sans-serif" font-size="14" font-weight="bold" lengthAdjust="spacing" textLength="230" x="288.5" y="631.9951">OpenApi\Attributes\Callbacks</text><!--MD5=[1f193eab66e7a0e81370fc87c14fcad8]
cluster OpenApi\\Attributes\\Enums--><polygon fill="#FFFFFF" points="49.5,2380,263.5,2380,270.5,2402.2969,496,2402.2969,496,2581,49.5,2581,49.5,2380" style="stroke:#000000;stroke-width:1.5;"/><line style="stroke:#000000;stroke-width:1.5;" x1="49.5" x2="270.5" y1="2402.2969" y2="2402.2969"/><text fill="#000000" font-family="sans-serif" font-size="14" font-weight="bold" lengthAdjust="spacing" textLength="208" x="53.5" y="2394.9951">OpenApi\Attributes\Enums</text><!--MD5=[c98838eaefeb483145f051830abb706f]
cluster OpenApi\\Attributes\\Extensions--><polygon fill="#FFFFFF" points="278.5,692,526.5,692,533.5,714.2969,536.5,714.2969,536.5,826,278.5,826,278.5,692" style="stroke:#000000;stroke-width:1.5;"/><line style="stroke:#000000;stroke-width:1.5;" x1="278.5" x2="533.5" y1="714.2969" y2="714.2969"/><text fill="#000000" font-family="sans-serif" font-size="14" font-weight="bold" lengthAdjust="spacing" textLength="242" x="282.5" y="706.9951">OpenApi\Attributes\Extensions</text><!--MD5=[4638ca63c5276de0124a6f211fea9d7b]
cluster OpenApi\\Attributes\\Headers--><polygon fill="#FFFFFF" points="288.5,834,516.5,834,523.5,856.2969,526.5,856.2969,526.5,901,288.5,901,288.5,834" style="stroke:#000000;stroke-width:1.5;"/><line style="stroke:#000000;stroke-width:1.5;" x1="288.5" x2="523.5" y1="856.2969" y2="856.2969"/><text fill="#000000" font-family="sans-serif" font-size="14" font-weight="bold" lengthAdjust="spacing" textLength="222" x="292.5" y="848.9951">OpenApi\Attributes\Headers</text><!--MD5=[9ef85838a6efa30b7dc06fd0b68cb717]
cluster OpenApi\\Attributes\\Info--><polygon fill="#FFFFFF" points="307,909,499,909,506,931.2969,509,931.2969,509,1110,307,1110,307,909" style="stroke:#000000;stroke-width:1.5;"/><line style="stroke:#000000;stroke-width:1.5;" x1="307" x2="506" y1="931.2969" y2="931.2969"/><text fill="#000000" font-family="sans-serif" font-size="14" font-weight="bold" lengthAdjust="spacing" textLength="186" x="311" y="923.9951">OpenApi\Attributes\Info</text><!--MD5=[db38a42e85fe28bb3f898e63ca4f2cdc]
cluster OpenApi\\Attributes\\Links--><polygon fill="#FFFFFF" points="301.5,1118,504.5,1118,511.5,1140.2969,514.5,1140.2969,514.5,1252,301.5,1252,301.5,1118" style="stroke:#000000;stroke-width:1.5;"/><line style="stroke:#000000;stroke-width:1.5;" x1="301.5" x2="511.5" y1="1140.2969" y2="1140.2969"/><text fill="#000000" font-family="sans-serif" font-size="14" font-weight="bold" lengthAdjust="spacing" textLength="197" x="305.5" y="1132.9951">OpenApi\Attributes\Links</text><!--MD5=[120bd557a5cec6b64d35af1c94606cf3]
cluster OpenApi\\Attributes\\Media--><polygon fill="#FFFFFF" points="299,1260,507,1260,514,1282.2969,517,1282.2969,517,1662,299,1662,299,1260" style="stroke:#000000;stroke-width:1.5;"/><line style="stroke:#000000;stroke-width:1.5;" x1="299" x2="514" y1="1282.2969" y2="1282.2969"/><text fill="#000000" font-family="sans-serif" font-size="14" font-weight="bold" lengthAdjust="spacing" textLength="202" x="303" y="1274.9951">OpenApi\Attributes\Media</text><!--MD5=[a774c0a463dc5171da9ef873451ff6eb]
cluster OpenApi\\Attributes\\Parameters--><polygon fill="#FFFFFF" points="276.5,1670,529.5,1670,536.5,1692.2969,539.5,1692.2969,539.5,1737,276.5,1737,276.5,1670" style="stroke:#000000;stroke-width:1.5;"/><line style="stroke:#000000;stroke-width:1.5;" x1="276.5" x2="536.5" y1="1692.2969" y2="1692.2969"/><text fill="#000000" font-family="sans-serif" font-size="14" font-weight="bold" lengthAdjust="spacing" textLength="247" x="280.5" y="1684.9951">OpenApi\Attributes\Parameters</text><!--MD5=[f6ccb1dcf5ce891051a7de0fb6161fba]
cluster OpenApi\\Attributes\\Responses--><polygon fill="#FFFFFF" points="278,1745,527,1745,534,1767.2969,537,1767.2969,537,1812,278,1812,278,1745" style="stroke:#000000;stroke-width:1.5;"/><line style="stroke:#000000;stroke-width:1.5;" x1="278" x2="534" y1="1767.2969" y2="1767.2969"/><text fill="#000000" font-family="sans-serif" font-size="14" font-weight="bold" lengthAdjust="spacing" textLength="243" x="282" y="1759.9951">OpenApi\Attributes\Responses</text><!--MD5=[b2bff33b9aa8709d1839afdda4dee180]
cluster OpenApi\\Attributes\\Security--><polygon fill="#FFFFFF" points="289.5,1820,516.5,1820,523.5,1842.2969,526.5,1842.2969,526.5,2155,289.5,2155,289.5,1820" style="stroke:#000000;stroke-width:1.5;"/><line style="stroke:#000000;stroke-width:1.5;" x1="289.5" x2="523.5" y1="1842.2969" y2="1842.2969"/><text fill="#000000" font-family="sans-serif" font-size="14" font-weight="bold" lengthAdjust="spacing" textLength="221" x="293.5" y="1834.9951">OpenApi\Attributes\Security</text><!--MD5=[9e32c22eec5fa62cdca5b46294083da6]
cluster OpenApi\\Attributes\\Servers--><polygon fill="#FFFFFF" points="291,2163,515,2163,522,2185.2969,525,2185.2969,525,2297,291,2297,291,2163" style="stroke:#000000;stroke-width:1.5;"/><line style="stroke:#000000;stroke-width:1.5;" x1="291" x2="522" y1="2185.2969" y2="2185.2969"/><text fill="#000000" font-family="sans-serif" font-size="14" font-weight="bold" lengthAdjust="spacing" textLength="218" x="295" y="2177.9951">OpenApi\Attributes\Servers</text><!--MD5=[709899edcc8d01b710a765be93975f5b]
cluster OpenApi\\Attributes\\Tags--><polygon fill="#FFFFFF" points="303,2305,503,2305,510,2327.2969,513,2327.2969,513,2372,303,2372,303,2305" style="stroke:#000000;stroke-width:1.5;"/><line style="stroke:#000000;stroke-width:1.5;" x1="303" x2="510" y1="2327.2969" y2="2327.2969"/><text fill="#000000" font-family="sans-serif" font-size="14" font-weight="bold" lengthAdjust="spacing" textLength="194" x="307" y="2319.9951">OpenApi\Attributes\Tags</text><!--MD5=[68a750ec0fd782a61e9c80a9f52a6b97]
class OpenApi\\Attributes\\Consumes--><rect codeLine="15" fill="#FEFECE" height="32" id="OpenApi\\Attributes\\Consumes" style="stroke:#A80036;stroke-width:1.5;" width="97" x="359" y="569"/><ellipse cx="374" cy="585" fill="#ADD1B2" rx="11" ry="11" style="stroke:#A80036;stroke-width:1.0;"/><path d="M376.9688,590.6406 Q376.3906,590.9375 375.75,591.0781 Q375.1094,591.2344 374.4063,591.2344 Q371.9063,591.2344 370.5781,589.5938 Q369.2656,587.9375 369.2656,584.8125 Q369.2656,581.6875 370.5781,580.0313 Q371.9063,578.375 374.4063,578.375 Q375.1094,578.375 375.75,578.5313 Q376.4063,578.6875 376.9688,578.9844 L376.9688,581.7031 Q376.3438,581.125 375.75,580.8594 Q375.1563,580.5781 374.5313,580.5781 Q373.1875,580.5781 372.5,581.6563 Q371.8125,582.7188 371.8125,584.8125 Q371.8125,586.9063 372.5,587.9844 Q373.1875,589.0469 374.5313,589.0469 Q375.1563,589.0469 375.75,588.7813 Q376.3438,588.5 376.9688,587.9219 L376.9688,590.6406 Z " fill="#000000"/><text fill="#000000" font-family="sans-serif" font-size="12" lengthAdjust="spacing" textLength="65" x="388" y="589.1543">Consumes</text><!--MD5=[5279190170e2fbbe46bb146660ee1769]
class OpenApi\\Attributes\\OpenApiAttributeInterface--><rect codeLine="57" fill="#FEFECE" height="32" id="OpenApi\\Attributes\\OpenApiAttributeInterface" style="stroke:#A80036;stroke-width:1.5;" width="195" x="24" y="569"/><ellipse cx="39" cy="585" fill="#B4A7E5" rx="11" ry="11" style="stroke:#A80036;stroke-width:1.0;"/><path d="M34.9219,580.7656 L34.9219,578.6094 L42.3125,578.6094 L42.3125,580.7656 L39.8438,580.7656 L39.8438,588.8438 L42.3125,588.8438 L42.3125,591 L34.9219,591 L34.9219,588.8438 L37.3906,588.8438 L37.3906,580.7656 L34.9219,580.7656 Z " fill="#000000"/><text fill="#000000" font-family="sans-serif" font-size="12" font-style="italic" lengthAdjust="spacing" textLength="163" x="53" y="589.1543">OpenApiAttributeInterface</text><!--MD5=[9973185b885642d0438426ebcf618140]
class OpenApi\\Attributes\\Delete--><rect codeLine="18" fill="#FEFECE" height="32" id="OpenApi\\Attributes\\Delete" style="stroke:#A80036;stroke-width:1.5;" width="73" x="597" y="569"/><ellipse cx="612" cy="585" fill="#ADD1B2" rx="11" ry="11" style="stroke:#A80036;stroke-width:1.0;"/><path d="M614.9688,590.6406 Q614.3906,590.9375 613.75,591.0781 Q613.1094,591.2344 612.4063,591.2344 Q609.9063,591.2344 608.5781,589.5938 Q607.2656,587.9375 607.2656,584.8125 Q607.2656,581.6875 608.5781,580.0313 Q609.9063,578.375 612.4063,578.375 Q613.1094,578.375 613.75,578.5313 Q614.4063,578.6875 614.9688,578.9844 L614.9688,581.7031 Q614.3438,581.125 613.75,580.8594 Q613.1563,580.5781 612.5313,580.5781 Q611.1875,580.5781 610.5,581.6563 Q609.8125,582.7188 609.8125,584.8125 Q609.8125,586.9063 610.5,587.9844 Q611.1875,589.0469 612.5313,589.0469 Q613.1563,589.0469 613.75,588.7813 Q614.3438,588.5 614.9688,587.9219 L614.9688,590.6406 Z " fill="#000000"/><text fill="#000000" font-family="sans-serif" font-size="12" lengthAdjust="spacing" textLength="41" x="626" y="589.1543">Delete</text><!--MD5=[24d56d94ccef5748bff76108c557e073]
class OpenApi\\Attributes\\Method--><rect codeLine="30" fill="#FEFECE" height="32" id="OpenApi\\Attributes\\Method" style="stroke:#A80036;stroke-width:1.5;" width="79" x="368" y="502"/><ellipse cx="383" cy="518" fill="#A9DCDF" rx="11" ry="11" style="stroke:#A80036;stroke-width:1.0;"/><path d="M383.1094,513.3438 L381.9531,518.4219 L384.2813,518.4219 L383.1094,513.3438 Z M381.625,511.1094 L384.6094,511.1094 L387.9688,523.5 L385.5156,523.5 L384.75,520.4375 L381.4688,520.4375 L380.7188,523.5 L378.2813,523.5 L381.625,511.1094 Z " fill="#000000"/><text fill="#000000" font-family="sans-serif" font-size="12" font-style="italic" lengthAdjust="spacing" textLength="47" x="397" y="522.1543">Method</text><!--MD5=[d767490dc2ede07ee9f3bf84ee0d913d]
class OpenApi\\Attributes\\ExternalDocumentation--><rect codeLine="21" fill="#FEFECE" height="32" id="OpenApi\\Attributes\\ExternalDocumentation" style="stroke:#A80036;stroke-width:1.5;" width="179" x="318" y="435"/><ellipse cx="333" cy="451" fill="#ADD1B2" rx="11" ry="11" style="stroke:#A80036;stroke-width:1.0;"/><path d="M335.9688,456.6406 Q335.3906,456.9375 334.75,457.0781 Q334.1094,457.2344 333.4063,457.2344 Q330.9063,457.2344 329.5781,455.5938 Q328.2656,453.9375 328.2656,450.8125 Q328.2656,447.6875 329.5781,446.0313 Q330.9063,444.375 333.4063,444.375 Q334.1094,444.375 334.75,444.5313 Q335.4063,444.6875 335.9688,444.9844 L335.9688,447.7031 Q335.3438,447.125 334.75,446.8594 Q334.1563,446.5781 333.5313,446.5781 Q332.1875,446.5781 331.5,447.6563 Q330.8125,448.7188 330.8125,450.8125 Q330.8125,452.9063 331.5,453.9844 Q332.1875,455.0469 333.5313,455.0469 Q334.1563,455.0469 334.75,454.7813 Q335.3438,454.5 335.9688,453.9219 L335.9688,456.6406 Z " fill="#000000"/><text fill="#000000" font-family="sans-serif" font-size="12" lengthAdjust="spacing" textLength="147" x="347" y="455.1543">ExternalDocumentation</text><!--MD5=[b7ff8c04a91f881ffea5d12bce9ac879]
class OpenApi\\Attributes\\Get--><rect codeLine="24" fill="#FEFECE" height="32" id="OpenApi\\Attributes\\Get" style="stroke:#A80036;stroke-width:1.5;" width="54" x="606.5" y="502"/><ellipse cx="621.5" cy="518" fill="#ADD1B2" rx="11" ry="11" style="stroke:#A80036;stroke-width:1.0;"/><path d="M624.4688,523.6406 Q623.8906,523.9375 623.25,524.0781 Q622.6094,524.2344 621.9063,524.2344 Q619.4063,524.2344 618.0781,522.5938 Q616.7656,520.9375 616.7656,517.8125 Q616.7656,514.6875 618.0781,513.0313 Q619.4063,511.375 621.9063,511.375 Q622.6094,511.375 623.25,511.5313 Q623.9063,511.6875 624.4688,511.9844 L624.4688,514.7031 Q623.8438,514.125 623.25,513.8594 Q622.6563,513.5781 622.0313,513.5781 Q620.6875,513.5781 620,514.6563 Q619.3125,515.7188 619.3125,517.8125 Q619.3125,519.9063 620,520.9844 Q620.6875,522.0469 622.0313,522.0469 Q622.6563,522.0469 623.25,521.7813 Q623.8438,521.5 624.4688,520.9219 L624.4688,523.6406 Z " fill="#000000"/><text fill="#000000" font-family="sans-serif" font-size="12" lengthAdjust="spacing" textLength="22" x="635.5" y="522.1543">Get</text><!--MD5=[891baf5b3d199a75f348ab9126795d04]
class OpenApi\\Attributes\\Hidden--><rect codeLine="27" fill="#FEFECE" height="32" id="OpenApi\\Attributes\\Hidden" style="stroke:#A80036;stroke-width:1.5;" width="76" x="369.5" y="368"/><ellipse cx="384.5" cy="384" fill="#ADD1B2" rx="11" ry="11" style="stroke:#A80036;stroke-width:1.0;"/><path d="M387.4688,389.6406 Q386.8906,389.9375 386.25,390.0781 Q385.6094,390.2344 384.9063,390.2344 Q382.4063,390.2344 381.0781,388.5938 Q379.7656,386.9375 379.7656,383.8125 Q379.7656,380.6875 381.0781,379.0313 Q382.4063,377.375 384.9063,377.375 Q385.6094,377.375 386.25,377.5313 Q386.9063,377.6875 387.4688,377.9844 L387.4688,380.7031 Q386.8438,380.125 386.25,379.8594 Q385.6563,379.5781 385.0313,379.5781 Q383.6875,379.5781 383,380.6563 Q382.3125,381.7188 382.3125,383.8125 Q382.3125,385.9063 383,386.9844 Q383.6875,388.0469 385.0313,388.0469 Q385.6563,388.0469 386.25,387.7813 Q386.8438,387.5 387.4688,386.9219 L387.4688,389.6406 Z " fill="#000000"/><text fill="#000000" font-family="sans-serif" font-size="12" lengthAdjust="spacing" textLength="44" x="398.5" y="388.1543">Hidden</text><!--MD5=[c706ccaf2f568111d9cd277fa9bc348e]
class OpenApi\\Attributes\\OpenAPIDefinition--><rect codeLine="33" fill="#FEFECE" height="32" id="OpenApi\\Attributes\\OpenAPIDefinition" style="stroke:#A80036;stroke-width:1.5;" width="143" x="336" y="301"/><ellipse cx="351" cy="317" fill="#ADD1B2" rx="11" ry="11" style="stroke:#A80036;stroke-width:1.0;"/><path d="M353.9688,322.6406 Q353.3906,322.9375 352.75,323.0781 Q352.1094,323.2344 351.4063,323.2344 Q348.9063,323.2344 347.5781,321.5938 Q346.2656,319.9375 346.2656,316.8125 Q346.2656,313.6875 347.5781,312.0313 Q348.9063,310.375 351.4063,310.375 Q352.1094,310.375 352.75,310.5313 Q353.4063,310.6875 353.9688,310.9844 L353.9688,313.7031 Q353.3438,313.125 352.75,312.8594 Q352.1563,312.5781 351.5313,312.5781 Q350.1875,312.5781 349.5,313.6563 Q348.8125,314.7188 348.8125,316.8125 Q348.8125,318.9063 349.5,319.9844 Q350.1875,321.0469 351.5313,321.0469 Q352.1563,321.0469 352.75,320.7813 Q353.3438,320.5 353.9688,319.9219 L353.9688,322.6406 Z " fill="#000000"/><text fill="#000000" font-family="sans-serif" font-size="12" lengthAdjust="spacing" textLength="111" x="365" y="321.1543">OpenAPIDefinition</text><!--MD5=[6a8b26bacf17adb1066f0fce51547dd0]
class OpenApi\\Attributes\\Operation--><rect codeLine="36" fill="#FEFECE" height="32" id="OpenApi\\Attributes\\Operation" style="stroke:#A80036;stroke-width:1.5;" width="94" x="360.5" y="234"/><ellipse cx="375.5" cy="250" fill="#ADD1B2" rx="11" ry="11" style="stroke:#A80036;stroke-width:1.0;"/><path d="M378.4688,255.6406 Q377.8906,255.9375 377.25,256.0781 Q376.6094,256.2344 375.9063,256.2344 Q373.4063,256.2344 372.0781,254.5938 Q370.7656,252.9375 370.7656,249.8125 Q370.7656,246.6875 372.0781,245.0313 Q373.4063,243.375 375.9063,243.375 Q376.6094,243.375 377.25,243.5313 Q377.9063,243.6875 378.4688,243.9844 L378.4688,246.7031 Q377.8438,246.125 377.25,245.8594 Q376.6563,245.5781 376.0313,245.5781 Q374.6875,245.5781 374,246.6563 Q373.3125,247.7188 373.3125,249.8125 Q373.3125,251.9063 374,252.9844 Q374.6875,254.0469 376.0313,254.0469 Q376.6563,254.0469 377.25,253.7813 Q377.8438,253.5 378.4688,252.9219 L378.4688,255.6406 Z " fill="#000000"/><text fill="#000000" font-family="sans-serif" font-size="12" lengthAdjust="spacing" textLength="62" x="389.5" y="254.1543">Operation</text><!--MD5=[2620a53753ba7f9a4132ed9d5468a5f9]
class OpenApi\\Attributes\\Parameter--><rect codeLine="39" fill="#FEFECE" height="32" id="OpenApi\\Attributes\\Parameter" style="stroke:#A80036;stroke-width:1.5;" width="98" x="358.5" y="167"/><ellipse cx="373.5" cy="183" fill="#ADD1B2" rx="11" ry="11" style="stroke:#A80036;stroke-width:1.0;"/><path d="M376.4688,188.6406 Q375.8906,188.9375 375.25,189.0781 Q374.6094,189.2344 373.9063,189.2344 Q371.4063,189.2344 370.0781,187.5938 Q368.7656,185.9375 368.7656,182.8125 Q368.7656,179.6875 370.0781,178.0313 Q371.4063,176.375 373.9063,176.375 Q374.6094,176.375 375.25,176.5313 Q375.9063,176.6875 376.4688,176.9844 L376.4688,179.7031 Q375.8438,179.125 375.25,178.8594 Q374.6563,178.5781 374.0313,178.5781 Q372.6875,178.5781 372,179.6563 Q371.3125,180.7188 371.3125,182.8125 Q371.3125,184.9063 372,185.9844 Q372.6875,187.0469 374.0313,187.0469 Q374.6563,187.0469 375.25,186.7813 Q375.8438,186.5 376.4688,185.9219 L376.4688,188.6406 Z " fill="#000000"/><text fill="#000000" font-family="sans-serif" font-size="12" lengthAdjust="spacing" textLength="66" x="387.5" y="187.1543">Parameter</text><!--MD5=[1df40e8b1f46a33bf0edebd1fdf5044b]
class OpenApi\\Attributes\\Patch--><rect codeLine="42" fill="#FEFECE" height="32" id="OpenApi\\Attributes\\Patch" style="stroke:#A80036;stroke-width:1.5;" width="68" x="599.5" y="435"/><ellipse cx="614.5" cy="451" fill="#ADD1B2" rx="11" ry="11" style="stroke:#A80036;stroke-width:1.0;"/><path d="M617.4688,456.6406 Q616.8906,456.9375 616.25,457.0781 Q615.6094,457.2344 614.9063,457.2344 Q612.4063,457.2344 611.0781,455.5938 Q609.7656,453.9375 609.7656,450.8125 Q609.7656,447.6875 611.0781,446.0313 Q612.4063,444.375 614.9063,444.375 Q615.6094,444.375 616.25,444.5313 Q616.9063,444.6875 617.4688,444.9844 L617.4688,447.7031 Q616.8438,447.125 616.25,446.8594 Q615.6563,446.5781 615.0313,446.5781 Q613.6875,446.5781 613,447.6563 Q612.3125,448.7188 612.3125,450.8125 Q612.3125,452.9063 613,453.9844 Q613.6875,455.0469 615.0313,455.0469 Q615.6563,455.0469 616.25,454.7813 Q616.8438,454.5 617.4688,453.9219 L617.4688,456.6406 Z " fill="#000000"/><text fill="#000000" font-family="sans-serif" font-size="12" lengthAdjust="spacing" textLength="36" x="628.5" y="455.1543">Patch</text><!--MD5=[a22f0e3b23e94c55774ccb8e500d8a5d]
class OpenApi\\Attributes\\Path--><rect codeLine="45" fill="#FEFECE" height="32" id="OpenApi\\Attributes\\Path" style="stroke:#A80036;stroke-width:1.5;" width="61" x="377" y="100"/><ellipse cx="392" cy="116" fill="#ADD1B2" rx="11" ry="11" style="stroke:#A80036;stroke-width:1.0;"/><path d="M394.9688,121.6406 Q394.3906,121.9375 393.75,122.0781 Q393.1094,122.2344 392.4063,122.2344 Q389.9063,122.2344 388.5781,120.5938 Q387.2656,118.9375 387.2656,115.8125 Q387.2656,112.6875 388.5781,111.0313 Q389.9063,109.375 392.4063,109.375 Q393.1094,109.375 393.75,109.5313 Q394.4063,109.6875 394.9688,109.9844 L394.9688,112.7031 Q394.3438,112.125 393.75,111.8594 Q393.1563,111.5781 392.5313,111.5781 Q391.1875,111.5781 390.5,112.6563 Q389.8125,113.7188 389.8125,115.8125 Q389.8125,117.9063 390.5,118.9844 Q391.1875,120.0469 392.5313,120.0469 Q393.1563,120.0469 393.75,119.7813 Q394.3438,119.5 394.9688,118.9219 L394.9688,121.6406 Z " fill="#000000"/><text fill="#000000" font-family="sans-serif" font-size="12" lengthAdjust="spacing" textLength="29" x="406" y="120.1543">Path</text><!--MD5=[de0c0e8207cd7a8071dfba02741e1bea]
class OpenApi\\Attributes\\Post--><rect codeLine="48" fill="#FEFECE" height="32" id="OpenApi\\Attributes\\Post" style="stroke:#A80036;stroke-width:1.5;" width="60" x="603.5" y="368"/><ellipse cx="618.5" cy="384" fill="#ADD1B2" rx="11" ry="11" style="stroke:#A80036;stroke-width:1.0;"/><path d="M621.4688,389.6406 Q620.8906,389.9375 620.25,390.0781 Q619.6094,390.2344 618.9063,390.2344 Q616.4063,390.2344 615.0781,388.5938 Q613.7656,386.9375 613.7656,383.8125 Q613.7656,380.6875 615.0781,379.0313 Q616.4063,377.375 618.9063,377.375 Q619.6094,377.375 620.25,377.5313 Q620.9063,377.6875 621.4688,377.9844 L621.4688,380.7031 Q620.8438,380.125 620.25,379.8594 Q619.6563,379.5781 619.0313,379.5781 Q617.6875,379.5781 617,380.6563 Q616.3125,381.7188 616.3125,383.8125 Q616.3125,385.9063 617,386.9844 Q617.6875,388.0469 619.0313,388.0469 Q619.6563,388.0469 620.25,387.7813 Q620.8438,387.5 621.4688,386.9219 L621.4688,389.6406 Z " fill="#000000"/><text fill="#000000" font-family="sans-serif" font-size="12" lengthAdjust="spacing" textLength="28" x="632.5" y="388.1543">Post</text><!--MD5=[c4f196d3e2525db47b9a2c45da99cdeb]
class OpenApi\\Attributes\\Produces--><rect codeLine="51" fill="#FEFECE" height="32" id="OpenApi\\Attributes\\Produces" style="stroke:#A80036;stroke-width:1.5;" width="91" x="362" y="33"/><ellipse cx="377" cy="49" fill="#ADD1B2" rx="11" ry="11" style="stroke:#A80036;stroke-width:1.0;"/><path d="M379.9688,54.6406 Q379.3906,54.9375 378.75,55.0781 Q378.1094,55.2344 377.4063,55.2344 Q374.9063,55.2344 373.5781,53.5938 Q372.2656,51.9375 372.2656,48.8125 Q372.2656,45.6875 373.5781,44.0313 Q374.9063,42.375 377.4063,42.375 Q378.1094,42.375 378.75,42.5313 Q379.4063,42.6875 379.9688,42.9844 L379.9688,45.7031 Q379.3438,45.125 378.75,44.8594 Q378.1563,44.5781 377.5313,44.5781 Q376.1875,44.5781 375.5,45.6563 Q374.8125,46.7188 374.8125,48.8125 Q374.8125,50.9063 375.5,51.9844 Q376.1875,53.0469 377.5313,53.0469 Q378.1563,53.0469 378.75,52.7813 Q379.3438,52.5 379.9688,51.9219 L379.9688,54.6406 Z " fill="#000000"/><text fill="#000000" font-family="sans-serif" font-size="12" lengthAdjust="spacing" textLength="59" x="391" y="53.1543">Produces</text><!--MD5=[7b586d7dcc3b191ccf382e0750d72c3a]
class OpenApi\\Attributes\\Put--><rect codeLine="54" fill="#FEFECE" height="32" id="OpenApi\\Attributes\\Put" style="stroke:#A80036;stroke-width:1.5;" width="53" x="607" y="301"/><ellipse cx="622" cy="317" fill="#ADD1B2" rx="11" ry="11" style="stroke:#A80036;stroke-width:1.0;"/><path d="M624.9688,322.6406 Q624.3906,322.9375 623.75,323.0781 Q623.1094,323.2344 622.4063,323.2344 Q619.9063,323.2344 618.5781,321.5938 Q617.2656,319.9375 617.2656,316.8125 Q617.2656,313.6875 618.5781,312.0313 Q619.9063,310.375 622.4063,310.375 Q623.1094,310.375 623.75,310.5313 Q624.4063,310.6875 624.9688,310.9844 L624.9688,313.7031 Q624.3438,313.125 623.75,312.8594 Q623.1563,312.5781 622.5313,312.5781 Q621.1875,312.5781 620.5,313.6563 Q619.8125,314.7188 619.8125,316.8125 Q619.8125,318.9063 620.5,319.9844 Q621.1875,321.0469 622.5313,321.0469 Q623.1563,321.0469 623.75,320.7813 Q624.3438,320.5 624.9688,319.9219 L624.9688,322.6406 Z " fill="#000000"/><text fill="#000000" font-family="sans-serif" font-size="12" lengthAdjust="spacing" textLength="21" x="636" y="321.1543">Put</text><!--MD5=[f510ca5da7569b1441806aa4c6043279]
class OpenApi\\Attributes\\Callbacks\\Callback--><rect codeLine="60" fill="#FEFECE" height="32" id="OpenApi\\Attributes\\Callbacks\\Callback" style="stroke:#A80036;stroke-width:1.5;" width="84" x="365.5" y="644"/><ellipse cx="380.5" cy="660" fill="#ADD1B2" rx="11" ry="11" style="stroke:#A80036;stroke-width:1.0;"/><path d="M383.4688,665.6406 Q382.8906,665.9375 382.25,666.0781 Q381.6094,666.2344 380.9063,666.2344 Q378.4063,666.2344 377.0781,664.5938 Q375.7656,662.9375 375.7656,659.8125 Q375.7656,656.6875 377.0781,655.0313 Q378.4063,653.375 380.9063,653.375 Q381.6094,653.375 382.25,653.5313 Q382.9063,653.6875 383.4688,653.9844 L383.4688,656.7031 Q382.8438,656.125 382.25,655.8594 Q381.6563,655.5781 381.0313,655.5781 Q379.6875,655.5781 379,656.6563 Q378.3125,657.7188 378.3125,659.8125 Q378.3125,661.9063 379,662.9844 Q379.6875,664.0469 381.0313,664.0469 Q381.6563,664.0469 382.25,663.7813 Q382.8438,663.5 383.4688,662.9219 L383.4688,665.6406 Z " fill="#000000"/><text fill="#000000" font-family="sans-serif" font-size="12" lengthAdjust="spacing" textLength="52" x="394.5" y="664.1543">Callback</text><!--MD5=[fbfa5eddc3fca770cd4d9cfc66643be3]
class OpenApi\\Attributes\\Enums\\AccessMode--><rect codeLine="63" fill="#FEFECE" height="32" id="OpenApi\\Attributes\\Enums\\AccessMode" style="stroke:#A80036;stroke-width:1.5;" width="110" x="66.5" y="2541"/><ellipse cx="81.5" cy="2557" fill="#ADD1B2" rx="11" ry="11" style="stroke:#A80036;stroke-width:1.0;"/><path d="M84.4688,2562.6406 Q83.8906,2562.9375 83.25,2563.0781 Q82.6094,2563.2344 81.9063,2563.2344 Q79.4063,2563.2344 78.0781,2561.5938 Q76.7656,2559.9375 76.7656,2556.8125 Q76.7656,2553.6875 78.0781,2552.0313 Q79.4063,2550.375 81.9063,2550.375 Q82.6094,2550.375 83.25,2550.5313 Q83.9063,2550.6875 84.4688,2550.9844 L84.4688,2553.7031 Q83.8438,2553.125 83.25,2552.8594 Q82.6563,2552.5781 82.0313,2552.5781 Q80.6875,2552.5781 80,2553.6563 Q79.3125,2554.7188 79.3125,2556.8125 Q79.3125,2558.9063 80,2559.9844 Q80.6875,2561.0469 82.0313,2561.0469 Q82.6563,2561.0469 83.25,2560.7813 Q83.8438,2560.5 84.4688,2559.9219 L84.4688,2562.6406 Z " fill="#000000"/><text fill="#000000" font-family="sans-serif" font-size="12" lengthAdjust="spacing" textLength="78" x="95.5" y="2561.1543">AccessMode</text><!--MD5=[179ae6b3921ac55d6c58fefc2bc0acf9]
class OpenApi\\Attributes\\Enums\\ParameterIn--><rect codeLine="66" fill="#FEFECE" height="32" id="OpenApi\\Attributes\\Enums\\ParameterIn" style="stroke:#A80036;stroke-width:1.5;" width="109" x="67" y="2474"/><ellipse cx="82" cy="2490" fill="#ADD1B2" rx="11" ry="11" style="stroke:#A80036;stroke-width:1.0;"/><path d="M84.9688,2495.6406 Q84.3906,2495.9375 83.75,2496.0781 Q83.1094,2496.2344 82.4063,2496.2344 Q79.9063,2496.2344 78.5781,2494.5938 Q77.2656,2492.9375 77.2656,2489.8125 Q77.2656,2486.6875 78.5781,2485.0313 Q79.9063,2483.375 82.4063,2483.375 Q83.1094,2483.375 83.75,2483.5313 Q84.4063,2483.6875 84.9688,2483.9844 L84.9688,2486.7031 Q84.3438,2486.125 83.75,2485.8594 Q83.1563,2485.5781 82.5313,2485.5781 Q81.1875,2485.5781 80.5,2486.6563 Q79.8125,2487.7188 79.8125,2489.8125 Q79.8125,2491.9063 80.5,2492.9844 Q81.1875,2494.0469 82.5313,2494.0469 Q83.1563,2494.0469 83.75,2493.7813 Q84.3438,2493.5 84.9688,2492.9219 L84.9688,2495.6406 Z " fill="#000000"/><text fill="#000000" font-family="sans-serif" font-size="12" lengthAdjust="spacing" textLength="77" x="96" y="2494.1543">ParameterIn</text><!--MD5=[655606a6fca600eeae004e3d52c73201]
class OpenApi\\Attributes\\Enums\\ParameterStyle--><rect codeLine="69" fill="#FEFECE" height="32" id="OpenApi\\Attributes\\Enums\\ParameterStyle" style="stroke:#A80036;stroke-width:1.5;" width="128" x="57.5" y="2407"/><ellipse cx="72.5" cy="2423" fill="#ADD1B2" rx="11" ry="11" style="stroke:#A80036;stroke-width:1.0;"/><path d="M75.4688,2428.6406 Q74.8906,2428.9375 74.25,2429.0781 Q73.6094,2429.2344 72.9063,2429.2344 Q70.4063,2429.2344 69.0781,2427.5938 Q67.7656,2425.9375 67.7656,2422.8125 Q67.7656,2419.6875 69.0781,2418.0313 Q70.4063,2416.375 72.9063,2416.375 Q73.6094,2416.375 74.25,2416.5313 Q74.9063,2416.6875 75.4688,2416.9844 L75.4688,2419.7031 Q74.8438,2419.125 74.25,2418.8594 Q73.6563,2418.5781 73.0313,2418.5781 Q71.6875,2418.5781 71,2419.6563 Q70.3125,2420.7188 70.3125,2422.8125 Q70.3125,2424.9063 71,2425.9844 Q71.6875,2427.0469 73.0313,2427.0469 Q73.6563,2427.0469 74.25,2426.7813 Q74.8438,2426.5 75.4688,2425.9219 L75.4688,2428.6406 Z " fill="#000000"/><text fill="#000000" font-family="sans-serif" font-size="12" lengthAdjust="spacing" textLength="96" x="86.5" y="2427.1543">ParameterStyle</text><!--MD5=[84693a6cdfa0306af66c05dd044755f0]
class OpenApi\\Attributes\\Enums\\SecuritySchemeIn--><rect codeLine="72" fill="#FEFECE" height="32" id="OpenApi\\Attributes\\Enums\\SecuritySchemeIn" style="stroke:#A80036;stroke-width:1.5;" width="143" x="336" y="2541"/><ellipse cx="351" cy="2557" fill="#ADD1B2" rx="11" ry="11" style="stroke:#A80036;stroke-width:1.0;"/><path d="M353.9688,2562.6406 Q353.3906,2562.9375 352.75,2563.0781 Q352.1094,2563.2344 351.4063,2563.2344 Q348.9063,2563.2344 347.5781,2561.5938 Q346.2656,2559.9375 346.2656,2556.8125 Q346.2656,2553.6875 347.5781,2552.0313 Q348.9063,2550.375 351.4063,2550.375 Q352.1094,2550.375 352.75,2550.5313 Q353.4063,2550.6875 353.9688,2550.9844 L353.9688,2553.7031 Q353.3438,2553.125 352.75,2552.8594 Q352.1563,2552.5781 351.5313,2552.5781 Q350.1875,2552.5781 349.5,2553.6563 Q348.8125,2554.7188 348.8125,2556.8125 Q348.8125,2558.9063 349.5,2559.9844 Q350.1875,2561.0469 351.5313,2561.0469 Q352.1563,2561.0469 352.75,2560.7813 Q353.3438,2560.5 353.9688,2559.9219 L353.9688,2562.6406 Z " fill="#000000"/><text fill="#000000" font-family="sans-serif" font-size="12" lengthAdjust="spacing" textLength="111" x="365" y="2561.1543">SecuritySchemeIn</text><!--MD5=[21b2e7b9113019a3015a466ad30376a1]
class OpenApi\\Attributes\\Enums\\SecuritySchemeType--><rect codeLine="75" fill="#FEFECE" height="32" id="OpenApi\\Attributes\\Enums\\SecuritySchemeType" style="stroke:#A80036;stroke-width:1.5;" width="161" x="327" y="2474"/><ellipse cx="342" cy="2490" fill="#ADD1B2" rx="11" ry="11" style="stroke:#A80036;stroke-width:1.0;"/><path d="M344.9688,2495.6406 Q344.3906,2495.9375 343.75,2496.0781 Q343.1094,2496.2344 342.4063,2496.2344 Q339.9063,2496.2344 338.5781,2494.5938 Q337.2656,2492.9375 337.2656,2489.8125 Q337.2656,2486.6875 338.5781,2485.0313 Q339.9063,2483.375 342.4063,2483.375 Q343.1094,2483.375 343.75,2483.5313 Q344.4063,2483.6875 344.9688,2483.9844 L344.9688,2486.7031 Q344.3438,2486.125 343.75,2485.8594 Q343.1563,2485.5781 342.5313,2485.5781 Q341.1875,2485.5781 340.5,2486.6563 Q339.8125,2487.7188 339.8125,2489.8125 Q339.8125,2491.9063 340.5,2492.9844 Q341.1875,2494.0469 342.5313,2494.0469 Q343.1563,2494.0469 343.75,2493.7813 Q344.3438,2493.5 344.9688,2492.9219 L344.9688,2495.6406 Z " fill="#000000"/><text fill="#000000" font-family="sans-serif" font-size="12" lengthAdjust="spacing" textLength="129" x="356" y="2494.1543">SecuritySchemeType</text><!--MD5=[3fb021568a8083d210e11eef9c83d775]
class OpenApi\\Attributes\\Extensions\\Extension--><rect codeLine="78" fill="#FEFECE" height="32" id="OpenApi\\Attributes\\Extensions\\Extension" style="stroke:#A80036;stroke-width:1.5;" width="93" x="361" y="719"/><ellipse cx="376" cy="735" fill="#ADD1B2" rx="11" ry="11" style="stroke:#A80036;stroke-width:1.0;"/><path d="M378.9688,740.6406 Q378.3906,740.9375 377.75,741.0781 Q377.1094,741.2344 376.4063,741.2344 Q373.9063,741.2344 372.5781,739.5938 Q371.2656,737.9375 371.2656,734.8125 Q371.2656,731.6875 372.5781,730.0313 Q373.9063,728.375 376.4063,728.375 Q377.1094,728.375 377.75,728.5313 Q378.4063,728.6875 378.9688,728.9844 L378.9688,731.7031 Q378.3438,731.125 377.75,730.8594 Q377.1563,730.5781 376.5313,730.5781 Q375.1875,730.5781 374.5,731.6563 Q373.8125,732.7188 373.8125,734.8125 Q373.8125,736.9063 374.5,737.9844 Q375.1875,739.0469 376.5313,739.0469 Q377.1563,739.0469 377.75,738.7813 Q378.3438,738.5 378.9688,737.9219 L378.9688,740.6406 Z " fill="#000000"/><text fill="#000000" font-family="sans-serif" font-size="12" lengthAdjust="spacing" textLength="61" x="390" y="739.1543">Extension</text><!--MD5=[745b253646b0285267c61355513d0199]
class OpenApi\\Attributes\\Extensions\\ExtensionProperty--><rect codeLine="81" fill="#FEFECE" height="32" id="OpenApi\\Attributes\\Extensions\\ExtensionProperty" style="stroke:#A80036;stroke-width:1.5;" width="146" x="334.5" y="786"/><ellipse cx="349.5" cy="802" fill="#ADD1B2" rx="11" ry="11" style="stroke:#A80036;stroke-width:1.0;"/><path d="M352.4688,807.6406 Q351.8906,807.9375 351.25,808.0781 Q350.6094,808.2344 349.9063,808.2344 Q347.4063,808.2344 346.0781,806.5938 Q344.7656,804.9375 344.7656,801.8125 Q344.7656,798.6875 346.0781,797.0313 Q347.4063,795.375 349.9063,795.375 Q350.6094,795.375 351.25,795.5313 Q351.9063,795.6875 352.4688,795.9844 L352.4688,798.7031 Q351.8438,798.125 351.25,797.8594 Q350.6563,797.5781 350.0313,797.5781 Q348.6875,797.5781 348,798.6563 Q347.3125,799.7188 347.3125,801.8125 Q347.3125,803.9063 348,804.9844 Q348.6875,806.0469 350.0313,806.0469 Q350.6563,806.0469 351.25,805.7813 Q351.8438,805.5 352.4688,804.9219 L352.4688,807.6406 Z " fill="#000000"/><text fill="#000000" font-family="sans-serif" font-size="12" lengthAdjust="spacing" textLength="114" x="363.5" y="806.1543">ExtensionProperty</text><!--MD5=[9918aeebf66ce41c0d41c4a7ff4a08f6]
class OpenApi\\Attributes\\Headers\\Header--><rect codeLine="84" fill="#FEFECE" height="32" id="OpenApi\\Attributes\\Headers\\Header" style="stroke:#A80036;stroke-width:1.5;" width="78" x="368.5" y="861"/><ellipse cx="383.5" cy="877" fill="#ADD1B2" rx="11" ry="11" style="stroke:#A80036;stroke-width:1.0;"/><path d="M386.4688,882.6406 Q385.8906,882.9375 385.25,883.0781 Q384.6094,883.2344 383.9063,883.2344 Q381.4063,883.2344 380.0781,881.5938 Q378.7656,879.9375 378.7656,876.8125 Q378.7656,873.6875 380.0781,872.0313 Q381.4063,870.375 383.9063,870.375 Q384.6094,870.375 385.25,870.5313 Q385.9063,870.6875 386.4688,870.9844 L386.4688,873.7031 Q385.8438,873.125 385.25,872.8594 Q384.6563,872.5781 384.0313,872.5781 Q382.6875,872.5781 382,873.6563 Q381.3125,874.7188 381.3125,876.8125 Q381.3125,878.9063 382,879.9844 Q382.6875,881.0469 384.0313,881.0469 Q384.6563,881.0469 385.25,880.7813 Q385.8438,880.5 386.4688,879.9219 L386.4688,882.6406 Z " fill="#000000"/><text fill="#000000" font-family="sans-serif" font-size="12" lengthAdjust="spacing" textLength="46" x="397.5" y="881.1543">Header</text><!--MD5=[1e216b1adbe8501626db7874f0400615]
class OpenApi\\Attributes\\Info\\Contact--><rect codeLine="87" fill="#FEFECE" height="32" id="OpenApi\\Attributes\\Info\\Contact" style="stroke:#A80036;stroke-width:1.5;" width="81" x="367" y="936"/><ellipse cx="382" cy="952" fill="#ADD1B2" rx="11" ry="11" style="stroke:#A80036;stroke-width:1.0;"/><path d="M384.9688,957.6406 Q384.3906,957.9375 383.75,958.0781 Q383.1094,958.2344 382.4063,958.2344 Q379.9063,958.2344 378.5781,956.5938 Q377.2656,954.9375 377.2656,951.8125 Q377.2656,948.6875 378.5781,947.0313 Q379.9063,945.375 382.4063,945.375 Q383.1094,945.375 383.75,945.5313 Q384.4063,945.6875 384.9688,945.9844 L384.9688,948.7031 Q384.3438,948.125 383.75,947.8594 Q383.1563,947.5781 382.5313,947.5781 Q381.1875,947.5781 380.5,948.6563 Q379.8125,949.7188 379.8125,951.8125 Q379.8125,953.9063 380.5,954.9844 Q381.1875,956.0469 382.5313,956.0469 Q383.1563,956.0469 383.75,955.7813 Q384.3438,955.5 384.9688,954.9219 L384.9688,957.6406 Z " fill="#000000"/><text fill="#000000" font-family="sans-serif" font-size="12" lengthAdjust="spacing" textLength="49" x="396" y="956.1543">Contact</text><!--MD5=[5f78f6b61a27b2aa94aa4bbc11bb3ce1]
class OpenApi\\Attributes\\Info\\Info--><rect codeLine="90" fill="#FEFECE" height="32" id="OpenApi\\Attributes\\Info\\Info" style="stroke:#A80036;stroke-width:1.5;" width="55" x="380" y="1003"/><ellipse cx="395" cy="1019" fill="#ADD1B2" rx="11" ry="11" style="stroke:#A80036;stroke-width:1.0;"/><path d="M397.9688,1024.6406 Q397.3906,1024.9375 396.75,1025.0781 Q396.1094,1025.2344 395.4063,1025.2344 Q392.9063,1025.2344 391.5781,1023.5938 Q390.2656,1021.9375 390.2656,1018.8125 Q390.2656,1015.6875 391.5781,1014.0313 Q392.9063,1012.375 395.4063,1012.375 Q396.1094,1012.375 396.75,1012.5313 Q397.4063,1012.6875 397.9688,1012.9844 L397.9688,1015.7031 Q397.3438,1015.125 396.75,1014.8594 Q396.1563,1014.5781 395.5313,1014.5781 Q394.1875,1014.5781 393.5,1015.6563 Q392.8125,1016.7188 392.8125,1018.8125 Q392.8125,1020.9063 393.5,1021.9844 Q394.1875,1023.0469 395.5313,1023.0469 Q396.1563,1023.0469 396.75,1022.7813 Q397.3438,1022.5 397.9688,1021.9219 L397.9688,1024.6406 Z " fill="#000000"/><text fill="#000000" font-family="sans-serif" font-size="12" lengthAdjust="spacing" textLength="23" x="409" y="1023.1543">Info</text><!--MD5=[a0e150cb0b0c055e658bf837360defce]
class OpenApi\\Attributes\\Info\\License--><rect codeLine="93" fill="#FEFECE" height="32" id="OpenApi\\Attributes\\Info\\License" style="stroke:#A80036;stroke-width:1.5;" width="79" x="368" y="1070"/><ellipse cx="383" cy="1086" fill="#ADD1B2" rx="11" ry="11" style="stroke:#A80036;stroke-width:1.0;"/><path d="M385.9688,1091.6406 Q385.3906,1091.9375 384.75,1092.0781 Q384.1094,1092.2344 383.4063,1092.2344 Q380.9063,1092.2344 379.5781,1090.5938 Q378.2656,1088.9375 378.2656,1085.8125 Q378.2656,1082.6875 379.5781,1081.0313 Q380.9063,1079.375 383.4063,1079.375 Q384.1094,1079.375 384.75,1079.5313 Q385.4063,1079.6875 385.9688,1079.9844 L385.9688,1082.7031 Q385.3438,1082.125 384.75,1081.8594 Q384.1563,1081.5781 383.5313,1081.5781 Q382.1875,1081.5781 381.5,1082.6563 Q380.8125,1083.7188 380.8125,1085.8125 Q380.8125,1087.9063 381.5,1088.9844 Q382.1875,1090.0469 383.5313,1090.0469 Q384.1563,1090.0469 384.75,1089.7813 Q385.3438,1089.5 385.9688,1088.9219 L385.9688,1091.6406 Z " fill="#000000"/><text fill="#000000" font-family="sans-serif" font-size="12" lengthAdjust="spacing" textLength="47" x="397" y="1090.1543">License</text><!--MD5=[eb5905ca3c456799b048da2b1d34a3a5]
class OpenApi\\Attributes\\Links\\Link--><rect codeLine="96" fill="#FEFECE" height="32" id="OpenApi\\Attributes\\Links\\Link" style="stroke:#A80036;stroke-width:1.5;" width="56" x="379.5" y="1145"/><ellipse cx="394.5" cy="1161" fill="#ADD1B2" rx="11" ry="11" style="stroke:#A80036;stroke-width:1.0;"/><path d="M397.4688,1166.6406 Q396.8906,1166.9375 396.25,1167.0781 Q395.6094,1167.2344 394.9063,1167.2344 Q392.4063,1167.2344 391.0781,1165.5938 Q389.7656,1163.9375 389.7656,1160.8125 Q389.7656,1157.6875 391.0781,1156.0313 Q392.4063,1154.375 394.9063,1154.375 Q395.6094,1154.375 396.25,1154.5313 Q396.9063,1154.6875 397.4688,1154.9844 L397.4688,1157.7031 Q396.8438,1157.125 396.25,1156.8594 Q395.6563,1156.5781 395.0313,1156.5781 Q393.6875,1156.5781 393,1157.6563 Q392.3125,1158.7188 392.3125,1160.8125 Q392.3125,1162.9063 393,1163.9844 Q393.6875,1165.0469 395.0313,1165.0469 Q395.6563,1165.0469 396.25,1164.7813 Q396.8438,1164.5 397.4688,1163.9219 L397.4688,1166.6406 Z " fill="#000000"/><text fill="#000000" font-family="sans-serif" font-size="12" lengthAdjust="spacing" textLength="24" x="408.5" y="1165.1543">Link</text><!--MD5=[d242b8c4eb2a404e1ad222bc45c1d9f9]
class OpenApi\\Attributes\\Links\\LinkParameter--><rect codeLine="99" fill="#FEFECE" height="32" id="OpenApi\\Attributes\\Links\\LinkParameter" style="stroke:#A80036;stroke-width:1.5;" width="122" x="346.5" y="1212"/><ellipse cx="361.5" cy="1228" fill="#ADD1B2" rx="11" ry="11" style="stroke:#A80036;stroke-width:1.0;"/><path d="M364.4688,1233.6406 Q363.8906,1233.9375 363.25,1234.0781 Q362.6094,1234.2344 361.9063,1234.2344 Q359.4063,1234.2344 358.0781,1232.5938 Q356.7656,1230.9375 356.7656,1227.8125 Q356.7656,1224.6875 358.0781,1223.0313 Q359.4063,1221.375 361.9063,1221.375 Q362.6094,1221.375 363.25,1221.5313 Q363.9063,1221.6875 364.4688,1221.9844 L364.4688,1224.7031 Q363.8438,1224.125 363.25,1223.8594 Q362.6563,1223.5781 362.0313,1223.5781 Q360.6875,1223.5781 360,1224.6563 Q359.3125,1225.7188 359.3125,1227.8125 Q359.3125,1229.9063 360,1230.9844 Q360.6875,1232.0469 362.0313,1232.0469 Q362.6563,1232.0469 363.25,1231.7813 Q363.8438,1231.5 364.4688,1230.9219 L364.4688,1233.6406 Z " fill="#000000"/><text fill="#000000" font-family="sans-serif" font-size="12" lengthAdjust="spacing" textLength="90" x="375.5" y="1232.1543">LinkParameter</text><!--MD5=[f6a4f7237cb1cb091e0eb3f63e3af41d]
class OpenApi\\Attributes\\Media\\ArraySchema--><rect codeLine="102" fill="#FEFECE" height="32" id="OpenApi\\Attributes\\Media\\ArraySchema" style="stroke:#A80036;stroke-width:1.5;" width="114" x="350.5" y="1287"/><ellipse cx="365.5" cy="1303" fill="#ADD1B2" rx="11" ry="11" style="stroke:#A80036;stroke-width:1.0;"/><path d="M368.4688,1308.6406 Q367.8906,1308.9375 367.25,1309.0781 Q366.6094,1309.2344 365.9063,1309.2344 Q363.4063,1309.2344 362.0781,1307.5938 Q360.7656,1305.9375 360.7656,1302.8125 Q360.7656,1299.6875 362.0781,1298.0313 Q363.4063,1296.375 365.9063,1296.375 Q366.6094,1296.375 367.25,1296.5313 Q367.9063,1296.6875 368.4688,1296.9844 L368.4688,1299.7031 Q367.8438,1299.125 367.25,1298.8594 Q366.6563,1298.5781 366.0313,1298.5781 Q364.6875,1298.5781 364,1299.6563 Q363.3125,1300.7188 363.3125,1302.8125 Q363.3125,1304.9063 364,1305.9844 Q364.6875,1307.0469 366.0313,1307.0469 Q366.6563,1307.0469 367.25,1306.7813 Q367.8438,1306.5 368.4688,1305.9219 L368.4688,1308.6406 Z " fill="#000000"/><text fill="#000000" font-family="sans-serif" font-size="12" lengthAdjust="spacing" textLength="82" x="379.5" y="1307.1543">ArraySchema</text><!--MD5=[df63785f2664f96793176f0d36b85c0f]
class OpenApi\\Attributes\\Media\\Content--><rect codeLine="105" fill="#FEFECE" height="32" id="OpenApi\\Attributes\\Media\\Content" style="stroke:#A80036;stroke-width:1.5;" width="82" x="366.5" y="1354"/><ellipse cx="381.5" cy="1370" fill="#ADD1B2" rx="11" ry="11" style="stroke:#A80036;stroke-width:1.0;"/><path d="M384.4688,1375.6406 Q383.8906,1375.9375 383.25,1376.0781 Q382.6094,1376.2344 381.9063,1376.2344 Q379.4063,1376.2344 378.0781,1374.5938 Q376.7656,1372.9375 376.7656,1369.8125 Q376.7656,1366.6875 378.0781,1365.0313 Q379.4063,1363.375 381.9063,1363.375 Q382.6094,1363.375 383.25,1363.5313 Q383.9063,1363.6875 384.4688,1363.9844 L384.4688,1366.7031 Q383.8438,1366.125 383.25,1365.8594 Q382.6563,1365.5781 382.0313,1365.5781 Q380.6875,1365.5781 380,1366.6563 Q379.3125,1367.7188 379.3125,1369.8125 Q379.3125,1371.9063 380,1372.9844 Q380.6875,1374.0469 382.0313,1374.0469 Q382.6563,1374.0469 383.25,1373.7813 Q383.8438,1373.5 384.4688,1372.9219 L384.4688,1375.6406 Z " fill="#000000"/><text fill="#000000" font-family="sans-serif" font-size="12" lengthAdjust="spacing" textLength="50" x="395.5" y="1374.1543">Content</text><!--MD5=[7c5e5550b557017c416e2b122667c2d8]
class OpenApi\\Attributes\\Media\\DiscriminatorMapping--><rect codeLine="108" fill="#FEFECE" height="32" id="OpenApi\\Attributes\\Media\\DiscriminatorMapping" style="stroke:#A80036;stroke-width:1.5;" width="167" x="324" y="1421"/><ellipse cx="339" cy="1437" fill="#ADD1B2" rx="11" ry="11" style="stroke:#A80036;stroke-width:1.0;"/><path d="M341.9688,1442.6406 Q341.3906,1442.9375 340.75,1443.0781 Q340.1094,1443.2344 339.4063,1443.2344 Q336.9063,1443.2344 335.5781,1441.5938 Q334.2656,1439.9375 334.2656,1436.8125 Q334.2656,1433.6875 335.5781,1432.0313 Q336.9063,1430.375 339.4063,1430.375 Q340.1094,1430.375 340.75,1430.5313 Q341.4063,1430.6875 341.9688,1430.9844 L341.9688,1433.7031 Q341.3438,1433.125 340.75,1432.8594 Q340.1563,1432.5781 339.5313,1432.5781 Q338.1875,1432.5781 337.5,1433.6563 Q336.8125,1434.7188 336.8125,1436.8125 Q336.8125,1438.9063 337.5,1439.9844 Q338.1875,1441.0469 339.5313,1441.0469 Q340.1563,1441.0469 340.75,1440.7813 Q341.3438,1440.5 341.9688,1439.9219 L341.9688,1442.6406 Z " fill="#000000"/><text fill="#000000" font-family="sans-serif" font-size="12" lengthAdjust="spacing" textLength="135" x="353" y="1441.1543">DiscriminatorMapping</text><!--MD5=[b4623b77c64608be38baab16c97d5be2]
class OpenApi\\Attributes\\Media\\Encoding--><rect codeLine="111" fill="#FEFECE" height="32" id="OpenApi\\Attributes\\Media\\Encoding" style="stroke:#A80036;stroke-width:1.5;" width="90" x="362.5" y="1488"/><ellipse cx="377.5" cy="1504" fill="#ADD1B2" rx="11" ry="11" style="stroke:#A80036;stroke-width:1.0;"/><path d="M380.4688,1509.6406 Q379.8906,1509.9375 379.25,1510.0781 Q378.6094,1510.2344 377.9063,1510.2344 Q375.4063,1510.2344 374.0781,1508.5938 Q372.7656,1506.9375 372.7656,1503.8125 Q372.7656,1500.6875 374.0781,1499.0313 Q375.4063,1497.375 377.9063,1497.375 Q378.6094,1497.375 379.25,1497.5313 Q379.9063,1497.6875 380.4688,1497.9844 L380.4688,1500.7031 Q379.8438,1500.125 379.25,1499.8594 Q378.6563,1499.5781 378.0313,1499.5781 Q376.6875,1499.5781 376,1500.6563 Q375.3125,1501.7188 375.3125,1503.8125 Q375.3125,1505.9063 376,1506.9844 Q376.6875,1508.0469 378.0313,1508.0469 Q378.6563,1508.0469 379.25,1507.7813 Q379.8438,1507.5 380.4688,1506.9219 L380.4688,1509.6406 Z " fill="#000000"/><text fill="#000000" font-family="sans-serif" font-size="12" lengthAdjust="spacing" textLength="58" x="391.5" y="1508.1543">Encoding</text><!--MD5=[872d8a2b4984dafee8f9a145a9b338e8]
class OpenApi\\Attributes\\Media\\ExampleObject--><rect codeLine="114" fill="#FEFECE" height="32" id="OpenApi\\Attributes\\Media\\ExampleObject" style="stroke:#A80036;stroke-width:1.5;" width="124" x="345.5" y="1555"/><ellipse cx="360.5" cy="1571" fill="#ADD1B2" rx="11" ry="11" style="stroke:#A80036;stroke-width:1.0;"/><path d="M363.4688,1576.6406 Q362.8906,1576.9375 362.25,1577.0781 Q361.6094,1577.2344 360.9063,1577.2344 Q358.4063,1577.2344 357.0781,1575.5938 Q355.7656,1573.9375 355.7656,1570.8125 Q355.7656,1567.6875 357.0781,1566.0313 Q358.4063,1564.375 360.9063,1564.375 Q361.6094,1564.375 362.25,1564.5313 Q362.9063,1564.6875 363.4688,1564.9844 L363.4688,1567.7031 Q362.8438,1567.125 362.25,1566.8594 Q361.6563,1566.5781 361.0313,1566.5781 Q359.6875,1566.5781 359,1567.6563 Q358.3125,1568.7188 358.3125,1570.8125 Q358.3125,1572.9063 359,1573.9844 Q359.6875,1575.0469 361.0313,1575.0469 Q361.6563,1575.0469 362.25,1574.7813 Q362.8438,1574.5 363.4688,1573.9219 L363.4688,1576.6406 Z " fill="#000000"/><text fill="#000000" font-family="sans-serif" font-size="12" lengthAdjust="spacing" textLength="92" x="374.5" y="1575.1543">ExampleObject</text><!--MD5=[ab084ce7f0e877242a755da56faef21f]
class OpenApi\\Attributes\\Media\\Schema--><rect codeLine="117" fill="#FEFECE" height="32" id="OpenApi\\Attributes\\Media\\Schema" style="stroke:#A80036;stroke-width:1.5;" width="82" x="366.5" y="1622"/><ellipse cx="381.5" cy="1638" fill="#ADD1B2" rx="11" ry="11" style="stroke:#A80036;stroke-width:1.0;"/><path d="M384.4688,1643.6406 Q383.8906,1643.9375 383.25,1644.0781 Q382.6094,1644.2344 381.9063,1644.2344 Q379.4063,1644.2344 378.0781,1642.5938 Q376.7656,1640.9375 376.7656,1637.8125 Q376.7656,1634.6875 378.0781,1633.0313 Q379.4063,1631.375 381.9063,1631.375 Q382.6094,1631.375 383.25,1631.5313 Q383.9063,1631.6875 384.4688,1631.9844 L384.4688,1634.7031 Q383.8438,1634.125 383.25,1633.8594 Q382.6563,1633.5781 382.0313,1633.5781 Q380.6875,1633.5781 380,1634.6563 Q379.3125,1635.7188 379.3125,1637.8125 Q379.3125,1639.9063 380,1640.9844 Q380.6875,1642.0469 382.0313,1642.0469 Q382.6563,1642.0469 383.25,1641.7813 Q383.8438,1641.5 384.4688,1640.9219 L384.4688,1643.6406 Z " fill="#000000"/><text fill="#000000" font-family="sans-serif" font-size="12" lengthAdjust="spacing" textLength="50" x="395.5" y="1642.1543">Schema</text><!--MD5=[5ff6b4fb099132964e2c79b607be6314]
class OpenApi\\Attributes\\Parameters\\RequestBody--><rect codeLine="120" fill="#FEFECE" height="32" id="OpenApi\\Attributes\\Parameters\\RequestBody" style="stroke:#A80036;stroke-width:1.5;" width="114" x="350.5" y="1697"/><ellipse cx="365.5" cy="1713" fill="#ADD1B2" rx="11" ry="11" style="stroke:#A80036;stroke-width:1.0;"/><path d="M368.4688,1718.6406 Q367.8906,1718.9375 367.25,1719.0781 Q366.6094,1719.2344 365.9063,1719.2344 Q363.4063,1719.2344 362.0781,1717.5938 Q360.7656,1715.9375 360.7656,1712.8125 Q360.7656,1709.6875 362.0781,1708.0313 Q363.4063,1706.375 365.9063,1706.375 Q366.6094,1706.375 367.25,1706.5313 Q367.9063,1706.6875 368.4688,1706.9844 L368.4688,1709.7031 Q367.8438,1709.125 367.25,1708.8594 Q366.6563,1708.5781 366.0313,1708.5781 Q364.6875,1708.5781 364,1709.6563 Q363.3125,1710.7188 363.3125,1712.8125 Q363.3125,1714.9063 364,1715.9844 Q364.6875,1717.0469 366.0313,1717.0469 Q366.6563,1717.0469 367.25,1716.7813 Q367.8438,1716.5 368.4688,1715.9219 L368.4688,1718.6406 Z " fill="#000000"/><text fill="#000000" font-family="sans-serif" font-size="12" lengthAdjust="spacing" textLength="82" x="379.5" y="1717.1543">RequestBody</text><!--MD5=[912c95805522ad800c2597887091d006]
class OpenApi\\Attributes\\Responses\\ApiResponse--><rect codeLine="123" fill="#FEFECE" height="32" id="OpenApi\\Attributes\\Responses\\ApiResponse" style="stroke:#A80036;stroke-width:1.5;" width="113" x="351" y="1772"/><ellipse cx="366" cy="1788" fill="#ADD1B2" rx="11" ry="11" style="stroke:#A80036;stroke-width:1.0;"/><path d="M368.9688,1793.6406 Q368.3906,1793.9375 367.75,1794.0781 Q367.1094,1794.2344 366.4063,1794.2344 Q363.9063,1794.2344 362.5781,1792.5938 Q361.2656,1790.9375 361.2656,1787.8125 Q361.2656,1784.6875 362.5781,1783.0313 Q363.9063,1781.375 366.4063,1781.375 Q367.1094,1781.375 367.75,1781.5313 Q368.4063,1781.6875 368.9688,1781.9844 L368.9688,1784.7031 Q368.3438,1784.125 367.75,1783.8594 Q367.1563,1783.5781 366.5313,1783.5781 Q365.1875,1783.5781 364.5,1784.6563 Q363.8125,1785.7188 363.8125,1787.8125 Q363.8125,1789.9063 364.5,1790.9844 Q365.1875,1792.0469 366.5313,1792.0469 Q367.1563,1792.0469 367.75,1791.7813 Q368.3438,1791.5 368.9688,1790.9219 L368.9688,1793.6406 Z " fill="#000000"/><text fill="#000000" font-family="sans-serif" font-size="12" lengthAdjust="spacing" textLength="81" x="380" y="1792.1543">ApiResponse</text><!--MD5=[40c6eef08564c482cec8f573931056a9]
class OpenApi\\Attributes\\Security\\OAuthFlow--><rect codeLine="126" fill="#FEFECE" height="32" id="OpenApi\\Attributes\\Security\\OAuthFlow" style="stroke:#A80036;stroke-width:1.5;" width="97" x="359" y="1847"/><ellipse cx="374" cy="1863" fill="#ADD1B2" rx="11" ry="11" style="stroke:#A80036;stroke-width:1.0;"/><path d="M376.9688,1868.6406 Q376.3906,1868.9375 375.75,1869.0781 Q375.1094,1869.2344 374.4063,1869.2344 Q371.9063,1869.2344 370.5781,1867.5938 Q369.2656,1865.9375 369.2656,1862.8125 Q369.2656,1859.6875 370.5781,1858.0313 Q371.9063,1856.375 374.4063,1856.375 Q375.1094,1856.375 375.75,1856.5313 Q376.4063,1856.6875 376.9688,1856.9844 L376.9688,1859.7031 Q376.3438,1859.125 375.75,1858.8594 Q375.1563,1858.5781 374.5313,1858.5781 Q373.1875,1858.5781 372.5,1859.6563 Q371.8125,1860.7188 371.8125,1862.8125 Q371.8125,1864.9063 372.5,1865.9844 Q373.1875,1867.0469 374.5313,1867.0469 Q375.1563,1867.0469 375.75,1866.7813 Q376.3438,1866.5 376.9688,1865.9219 L376.9688,1868.6406 Z " fill="#000000"/><text fill="#000000" font-family="sans-serif" font-size="12" lengthAdjust="spacing" textLength="65" x="388" y="1867.1543">OAuthFlow</text><!--MD5=[f7ba939a552a55bb7871ffc29b1054b0]
class OpenApi\\Attributes\\Security\\OAuthFlows--><rect codeLine="129" fill="#FEFECE" height="32" id="OpenApi\\Attributes\\Security\\OAuthFlows" style="stroke:#A80036;stroke-width:1.5;" width="104" x="355.5" y="1914"/><ellipse cx="370.5" cy="1930" fill="#ADD1B2" rx="11" ry="11" style="stroke:#A80036;stroke-width:1.0;"/><path d="M373.4688,1935.6406 Q372.8906,1935.9375 372.25,1936.0781 Q371.6094,1936.2344 370.9063,1936.2344 Q368.4063,1936.2344 367.0781,1934.5938 Q365.7656,1932.9375 365.7656,1929.8125 Q365.7656,1926.6875 367.0781,1925.0313 Q368.4063,1923.375 370.9063,1923.375 Q371.6094,1923.375 372.25,1923.5313 Q372.9063,1923.6875 373.4688,1923.9844 L373.4688,1926.7031 Q372.8438,1926.125 372.25,1925.8594 Q371.6563,1925.5781 371.0313,1925.5781 Q369.6875,1925.5781 369,1926.6563 Q368.3125,1927.7188 368.3125,1929.8125 Q368.3125,1931.9063 369,1932.9844 Q369.6875,1934.0469 371.0313,1934.0469 Q371.6563,1934.0469 372.25,1933.7813 Q372.8438,1933.5 373.4688,1932.9219 L373.4688,1935.6406 Z " fill="#000000"/><text fill="#000000" font-family="sans-serif" font-size="12" lengthAdjust="spacing" textLength="72" x="384.5" y="1934.1543">OAuthFlows</text><!--MD5=[9c0f39f41c08e57a0997e2c0b0e6400a]
class OpenApi\\Attributes\\Security\\OAuthScope--><rect codeLine="132" fill="#FEFECE" height="32" id="OpenApi\\Attributes\\Security\\OAuthScope" style="stroke:#A80036;stroke-width:1.5;" width="109" x="353" y="1981"/><ellipse cx="368" cy="1997" fill="#ADD1B2" rx="11" ry="11" style="stroke:#A80036;stroke-width:1.0;"/><path d="M370.9688,2002.6406 Q370.3906,2002.9375 369.75,2003.0781 Q369.1094,2003.2344 368.4063,2003.2344 Q365.9063,2003.2344 364.5781,2001.5938 Q363.2656,1999.9375 363.2656,1996.8125 Q363.2656,1993.6875 364.5781,1992.0313 Q365.9063,1990.375 368.4063,1990.375 Q369.1094,1990.375 369.75,1990.5313 Q370.4063,1990.6875 370.9688,1990.9844 L370.9688,1993.7031 Q370.3438,1993.125 369.75,1992.8594 Q369.1563,1992.5781 368.5313,1992.5781 Q367.1875,1992.5781 366.5,1993.6563 Q365.8125,1994.7188 365.8125,1996.8125 Q365.8125,1998.9063 366.5,1999.9844 Q367.1875,2001.0469 368.5313,2001.0469 Q369.1563,2001.0469 369.75,2000.7813 Q370.3438,2000.5 370.9688,1999.9219 L370.9688,2002.6406 Z " fill="#000000"/><text fill="#000000" font-family="sans-serif" font-size="12" lengthAdjust="spacing" textLength="77" x="382" y="2001.1543">OAuthScope</text><!--MD5=[0c4909045f69305045c4501e0e967290]
class OpenApi\\Attributes\\Security\\SecurityRequirement--><rect codeLine="135" fill="#FEFECE" height="32" id="OpenApi\\Attributes\\Security\\SecurityRequirement" style="stroke:#A80036;stroke-width:1.5;" width="162" x="326.5" y="2048"/><ellipse cx="341.5" cy="2064" fill="#ADD1B2" rx="11" ry="11" style="stroke:#A80036;stroke-width:1.0;"/><path d="M344.4688,2069.6406 Q343.8906,2069.9375 343.25,2070.0781 Q342.6094,2070.2344 341.9063,2070.2344 Q339.4063,2070.2344 338.0781,2068.5938 Q336.7656,2066.9375 336.7656,2063.8125 Q336.7656,2060.6875 338.0781,2059.0313 Q339.4063,2057.375 341.9063,2057.375 Q342.6094,2057.375 343.25,2057.5313 Q343.9063,2057.6875 344.4688,2057.9844 L344.4688,2060.7031 Q343.8438,2060.125 343.25,2059.8594 Q342.6563,2059.5781 342.0313,2059.5781 Q340.6875,2059.5781 340,2060.6563 Q339.3125,2061.7188 339.3125,2063.8125 Q339.3125,2065.9063 340,2066.9844 Q340.6875,2068.0469 342.0313,2068.0469 Q342.6563,2068.0469 343.25,2067.7813 Q343.8438,2067.5 344.4688,2066.9219 L344.4688,2069.6406 Z " fill="#000000"/><text fill="#000000" font-family="sans-serif" font-size="12" lengthAdjust="spacing" textLength="130" x="355.5" y="2068.1543">SecurityRequirement</text><!--MD5=[c9ac8ffb3c9198de4b5173e636ede66e]
class OpenApi\\Attributes\\Security\\SecurityScheme--><rect codeLine="138" fill="#FEFECE" height="32" id="OpenApi\\Attributes\\Security\\SecurityScheme" style="stroke:#A80036;stroke-width:1.5;" width="132" x="341.5" y="2115"/><ellipse cx="356.5" cy="2131" fill="#ADD1B2" rx="11" ry="11" style="stroke:#A80036;stroke-width:1.0;"/><path d="M359.4688,2136.6406 Q358.8906,2136.9375 358.25,2137.0781 Q357.6094,2137.2344 356.9063,2137.2344 Q354.4063,2137.2344 353.0781,2135.5938 Q351.7656,2133.9375 351.7656,2130.8125 Q351.7656,2127.6875 353.0781,2126.0313 Q354.4063,2124.375 356.9063,2124.375 Q357.6094,2124.375 358.25,2124.5313 Q358.9063,2124.6875 359.4688,2124.9844 L359.4688,2127.7031 Q358.8438,2127.125 358.25,2126.8594 Q357.6563,2126.5781 357.0313,2126.5781 Q355.6875,2126.5781 355,2127.6563 Q354.3125,2128.7188 354.3125,2130.8125 Q354.3125,2132.9063 355,2133.9844 Q355.6875,2135.0469 357.0313,2135.0469 Q357.6563,2135.0469 358.25,2134.7813 Q358.8438,2134.5 359.4688,2133.9219 L359.4688,2136.6406 Z " fill="#000000"/><text fill="#000000" font-family="sans-serif" font-size="12" lengthAdjust="spacing" textLength="100" x="370.5" y="2135.1543">SecurityScheme</text><!--MD5=[dec30d8811a8d76068ebebd25925d5c2]
class OpenApi\\Attributes\\Servers\\Server--><rect codeLine="141" fill="#FEFECE" height="32" id="OpenApi\\Attributes\\Servers\\Server" style="stroke:#A80036;stroke-width:1.5;" width="72" x="371.5" y="2190"/><ellipse cx="386.5" cy="2206" fill="#ADD1B2" rx="11" ry="11" style="stroke:#A80036;stroke-width:1.0;"/><path d="M389.4688,2211.6406 Q388.8906,2211.9375 388.25,2212.0781 Q387.6094,2212.2344 386.9063,2212.2344 Q384.4063,2212.2344 383.0781,2210.5938 Q381.7656,2208.9375 381.7656,2205.8125 Q381.7656,2202.6875 383.0781,2201.0313 Q384.4063,2199.375 386.9063,2199.375 Q387.6094,2199.375 388.25,2199.5313 Q388.9063,2199.6875 389.4688,2199.9844 L389.4688,2202.7031 Q388.8438,2202.125 388.25,2201.8594 Q387.6563,2201.5781 387.0313,2201.5781 Q385.6875,2201.5781 385,2202.6563 Q384.3125,2203.7188 384.3125,2205.8125 Q384.3125,2207.9063 385,2208.9844 Q385.6875,2210.0469 387.0313,2210.0469 Q387.6563,2210.0469 388.25,2209.7813 Q388.8438,2209.5 389.4688,2208.9219 L389.4688,2211.6406 Z " fill="#000000"/><text fill="#000000" font-family="sans-serif" font-size="12" lengthAdjust="spacing" textLength="40" x="400.5" y="2210.1543">Server</text><!--MD5=[934feff4ce2502572955ee069cee6f2b]
class OpenApi\\Attributes\\Servers\\ServerVariable--><rect codeLine="144" fill="#FEFECE" height="32" id="OpenApi\\Attributes\\Servers\\ServerVariable" style="stroke:#A80036;stroke-width:1.5;" width="123" x="346" y="2257"/><ellipse cx="361" cy="2273" fill="#ADD1B2" rx="11" ry="11" style="stroke:#A80036;stroke-width:1.0;"/><path d="M363.9688,2278.6406 Q363.3906,2278.9375 362.75,2279.0781 Q362.1094,2279.2344 361.4063,2279.2344 Q358.9063,2279.2344 357.5781,2277.5938 Q356.2656,2275.9375 356.2656,2272.8125 Q356.2656,2269.6875 357.5781,2268.0313 Q358.9063,2266.375 361.4063,2266.375 Q362.1094,2266.375 362.75,2266.5313 Q363.4063,2266.6875 363.9688,2266.9844 L363.9688,2269.7031 Q363.3438,2269.125 362.75,2268.8594 Q362.1563,2268.5781 361.5313,2268.5781 Q360.1875,2268.5781 359.5,2269.6563 Q358.8125,2270.7188 358.8125,2272.8125 Q358.8125,2274.9063 359.5,2275.9844 Q360.1875,2277.0469 361.5313,2277.0469 Q362.1563,2277.0469 362.75,2276.7813 Q363.3438,2276.5 363.9688,2275.9219 L363.9688,2278.6406 Z " fill="#000000"/><text fill="#000000" font-family="sans-serif" font-size="12" lengthAdjust="spacing" textLength="91" x="375" y="2277.1543">ServerVariable</text><!--MD5=[734519e1f09e0f1715a0fe3c81a332f1]
class OpenApi\\Attributes\\Tags\\Tag--><rect codeLine="147" fill="#FEFECE" height="32" id="OpenApi\\Attributes\\Tags\\Tag" style="stroke:#A80036;stroke-width:1.5;" width="55" x="380" y="2332"/><ellipse cx="395" cy="2348" fill="#ADD1B2" rx="11" ry="11" style="stroke:#A80036;stroke-width:1.0;"/><path d="M397.9688,2353.6406 Q397.3906,2353.9375 396.75,2354.0781 Q396.1094,2354.2344 395.4063,2354.2344 Q392.9063,2354.2344 391.5781,2352.5938 Q390.2656,2350.9375 390.2656,2347.8125 Q390.2656,2344.6875 391.5781,2343.0313 Q392.9063,2341.375 395.4063,2341.375 Q396.1094,2341.375 396.75,2341.5313 Q397.4063,2341.6875 397.9688,2341.9844 L397.9688,2344.7031 Q397.3438,2344.125 396.75,2343.8594 Q396.1563,2343.5781 395.5313,2343.5781 Q394.1875,2343.5781 393.5,2344.6563 Q392.8125,2345.7188 392.8125,2347.8125 Q392.8125,2349.9063 393.5,2350.9844 Q394.1875,2352.0469 395.5313,2352.0469 Q396.1563,2352.0469 396.75,2351.7813 Q397.3438,2351.5 397.9688,2350.9219 L397.9688,2353.6406 Z " fill="#000000"/><text fill="#000000" font-family="sans-serif" font-size="12" lengthAdjust="spacing" textLength="23" x="409" y="2352.1543">Tag</text><!--MD5=[8ebd2b626a3693fc51d0abc029ce83b7]
reverse link OpenApi\\Attributes\\OpenApiAttributeInterface to OpenApi\\Attributes\\Consumes--><path d="M239.1251,581.8 C239.1251,581.8 358.8283,581.8 358.8283,581.8 " fill="none" id="OpenApi\\Attributes\\OpenApiAttributeInterface-backto-OpenApi\\Attributes\\Consumes" style="stroke:#516F42;stroke-width:1.0;stroke-dasharray:7.0,7.0;"/><polygon fill="none" points="239.1251,588.7999,219.1251,581.8,239.125,574.7999,239.1251,588.7999" style="stroke:#516F42;stroke-width:1.0;"/><!--MD5=[6bdab171a666c4a8dc061e3b79c76244]
reverse link OpenApi\\Attributes\\Method to OpenApi\\Attributes\\Delete--><path d="M467.4671,528.6667 C467.4671,528.6667 605,528.6667 605,528.6667 C605,528.6667 605,552.0687 605,568.7061 " fill="none" id="OpenApi\\Attributes\\Method-backto-OpenApi\\Attributes\\Delete" style="stroke:#516F42;stroke-width:1.0;"/><polygon fill="none" points="467.4671,535.6666,447.4671,528.6667,467.467,521.6666,467.4671,535.6666" style="stroke:#516F42;stroke-width:1.0;"/><!--MD5=[c3add067d03f54927ff25c86e9808562]
reverse link OpenApi\\Attributes\\OpenApiAttributeInterface to OpenApi\\Attributes\\ExternalDocumentation--><path d="M239.1964,575.4 C239.1964,575.4 331,575.4 331,575.4 C331,575.4 331,500.6069 331,467.0085 " fill="none" id="OpenApi\\Attributes\\OpenApiAttributeInterface-backto-OpenApi\\Attributes\\ExternalDocumentation" style="stroke:#516F42;stroke-width:1.0;stroke-dasharray:7.0,7.0;"/><polygon fill="none" points="239.1964,582.3999,219.1964,575.4,239.1964,568.3999,239.1964,582.3999" style="stroke:#516F42;stroke-width:1.0;"/><!--MD5=[36d10c1011aece660d0f3a628a5c1917]
reverse link OpenApi\\Attributes\\Method to OpenApi\\Attributes\\Get--><path d="M467.1248,523.3333 C467.1248,523.3333 606.3545,523.3333 606.3545,523.3333 " fill="none" id="OpenApi\\Attributes\\Method-backto-OpenApi\\Attributes\\Get" style="stroke:#516F42;stroke-width:1.0;"/><polygon fill="none" points="467.1248,530.3332,447.1248,523.3333,467.1248,516.3332,467.1248,530.3332" style="stroke:#516F42;stroke-width:1.0;"/><!--MD5=[c1884eec3c8e7a1e10f859c604cd1b84]
reverse link OpenApi\\Attributes\\OpenApiAttributeInterface to OpenApi\\Attributes\\Hidden--><path d="M171,548.8911 C171,548.8911 171,384 171,384 C171,384 302.3047,384 369.2393,384 " fill="none" id="OpenApi\\Attributes\\OpenApiAttributeInterface-backto-OpenApi\\Attributes\\Hidden" style="stroke:#516F42;stroke-width:1.0;stroke-dasharray:7.0,7.0;"/><polygon fill="none" points="178.0001,548.8911,171,568.8911,164.0001,548.8911,178.0001,548.8911" style="stroke:#516F42;stroke-width:1.0;"/><!--MD5=[2902cf43a3a3bea722f63c5895fd862e]
reverse link OpenApi\\Attributes\\OpenApiAttributeInterface to OpenApi\\Attributes\\Method--><path d="M195,548.7812 C195,548.7812 195,518 195,518 C195,518 305.9743,518 367.5304,518 " fill="none" id="OpenApi\\Attributes\\OpenApiAttributeInterface-backto-OpenApi\\Attributes\\Method" style="stroke:#516F42;stroke-width:1.0;stroke-dasharray:7.0,7.0;"/><polygon fill="none" points="202.0001,548.7812,195,568.7812,188.0001,548.7811,202.0001,548.7812" style="stroke:#516F42;stroke-width:1.0;"/><!--MD5=[6f978909f700bf86a3c641624b98b42a]
reverse link OpenApi\\Attributes\\OpenApiAttributeInterface to OpenApi\\Attributes\\OpenAPIDefinition--><path d="M146,548.6388 C146,548.6388 146,317 146,317 C146,317 258.2837,317 335.6981,317 " fill="none" id="OpenApi\\Attributes\\OpenApiAttributeInterface-backto-OpenApi\\Attributes\\OpenAPIDefinition" style="stroke:#516F42;stroke-width:1.0;stroke-dasharray:7.0,7.0;"/><polygon fill="none" points="153.0001,548.6389,146,568.6388,139.0001,548.6388,153.0001,548.6389" style="stroke:#516F42;stroke-width:1.0;"/><!--MD5=[c4ef2c3ac47198f6f6aa8835b0cf9d1d]
reverse link OpenApi\\Attributes\\OpenApiAttributeInterface to OpenApi\\Attributes\\Operation--><path d="M122,548.8423 C122,548.8423 122,250 122,250 C122,250 279.2655,250 360.3555,250 " fill="none" id="OpenApi\\Attributes\\OpenApiAttributeInterface-backto-OpenApi\\Attributes\\Operation" style="stroke:#516F42;stroke-width:1.0;stroke-dasharray:7.0,7.0;"/><polygon fill="none" points="129.0001,548.8423,122,568.8423,115.0001,548.8422,129.0001,548.8423" style="stroke:#516F42;stroke-width:1.0;"/><!--MD5=[8db9b0231008744a49423f9c61234c80]
reverse link OpenApi\\Attributes\\OpenApiAttributeInterface to OpenApi\\Attributes\\Parameter--><path d="M98,548.7432 C98,548.7432 98,183 98,183 C98,183 271.1882,183 358.4588,183 " fill="none" id="OpenApi\\Attributes\\OpenApiAttributeInterface-backto-OpenApi\\Attributes\\Parameter" style="stroke:#516F42;stroke-width:1.0;stroke-dasharray:7.0,7.0;"/><polygon fill="none" points="105.0001,548.7433,98,568.7432,91.0001,548.7432,105.0001,548.7433" style="stroke:#516F42;stroke-width:1.0;"/><!--MD5=[af1b1226bdf656bbf93f6cd11c294d26]
reverse link OpenApi\\Attributes\\Method to OpenApi\\Attributes\\Patch--><path d="M467.3293,518 C467.3293,518 602,518 602,518 C602,518 602,487.0477 602,467.2188 " fill="none" id="OpenApi\\Attributes\\Method-backto-OpenApi\\Attributes\\Patch" style="stroke:#516F42;stroke-width:1.0;"/><polygon fill="none" points="467.3294,524.9999,447.3293,518,467.3293,510.9999,467.3294,524.9999" style="stroke:#516F42;stroke-width:1.0;"/><!--MD5=[c2876051e05536004a7de19445f776ea]
reverse link OpenApi\\Attributes\\OpenApiAttributeInterface to OpenApi\\Attributes\\Path--><path d="M73,548.856 C73,548.856 73,116 73,116 C73,116 294.3534,116 376.9286,116 " fill="none" id="OpenApi\\Attributes\\OpenApiAttributeInterface-backto-OpenApi\\Attributes\\Path" style="stroke:#516F42;stroke-width:1.0;stroke-dasharray:7.0,7.0;"/><polygon fill="none" points="80.0001,548.856,73,568.856,66.0001,548.8559,80.0001,548.856" style="stroke:#516F42;stroke-width:1.0;"/><!--MD5=[3e96e44f5c23976d6de614e490d5ccd9]
reverse link OpenApi\\Attributes\\Method to OpenApi\\Attributes\\Post--><path d="M467.3965,512.6667 C467.3965,512.6667 564,512.6667 564,512.6667 C564,512.6667 564,384 564,384 C564,384 584.4896,384 603.2185,384 " fill="none" id="OpenApi\\Attributes\\Method-backto-OpenApi\\Attributes\\Post" style="stroke:#516F42;stroke-width:1.0;"/><polygon fill="none" points="467.3965,519.6666,447.3965,512.6667,467.3965,505.6666,467.3965,519.6666" style="stroke:#516F42;stroke-width:1.0;"/><!--MD5=[90ff10be3bbc8bd9d420a19e4f3bdd62]
reverse link OpenApi\\Attributes\\OpenApiAttributeInterface to OpenApi\\Attributes\\Produces--><path d="M49,548.9586 C49,548.9586 49,49 49,49 C49,49 265.0844,49 361.7316,49 " fill="none" id="OpenApi\\Attributes\\OpenApiAttributeInterface-backto-OpenApi\\Attributes\\Produces" style="stroke:#516F42;stroke-width:1.0;stroke-dasharray:7.0,7.0;"/><polygon fill="none" points="56.0001,548.9586,49,568.9586,42.0001,548.9585,56.0001,548.9586" style="stroke:#516F42;stroke-width:1.0;"/><!--MD5=[fe09e979d672d797b19cc7d1b3edafea]
reverse link OpenApi\\Attributes\\Method to OpenApi\\Attributes\\Put--><path d="M467.256,507.3333 C467.256,507.3333 531,507.3333 531,507.3333 C531,507.3333 531,317 531,317 C531,317 576.4666,317 606.8369,317 " fill="none" id="OpenApi\\Attributes\\Method-backto-OpenApi\\Attributes\\Put" style="stroke:#516F42;stroke-width:1.0;"/><polygon fill="none" points="467.256,514.3332,447.256,507.3333,467.2559,500.3332,467.256,514.3332" style="stroke:#516F42;stroke-width:1.0;"/><!--MD5=[0c2fa3e1a89d34d6ac4fa8e48cdd43ae]
reverse link OpenApi\\Attributes\\OpenApiAttributeInterface to OpenApi\\Attributes\\Callbacks\\Callback--><path d="M218,621.2739 C218,621.2739 218,660 218,660 C218,660 309.6156,660 365.4438,660 " fill="none" id="OpenApi\\Attributes\\OpenApiAttributeInterface-backto-OpenApi\\Attributes\\Callbacks\\Callback" style="stroke:#516F42;stroke-width:1.0;stroke-dasharray:7.0,7.0;"/><polygon fill="none" points="211.0001,621.2739,218,601.2739,225.0001,621.2738,211.0001,621.2739" style="stroke:#516F42;stroke-width:1.0;"/><!--MD5=[1a0423e7e14f637409aad565077dcb3e]
reverse link OpenApi\\Attributes\\OpenApiAttributeInterface to OpenApi\\Attributes\\Extensions\\Extension--><path d="M216,621.0526 C216,621.0526 216,735 216,735 C216,735 303.9605,735 360.6538,735 " fill="none" id="OpenApi\\Attributes\\OpenApiAttributeInterface-backto-OpenApi\\Attributes\\Extensions\\Extension" style="stroke:#516F42;stroke-width:1.0;stroke-dasharray:7.0,7.0;"/><polygon fill="none" points="209.0001,621.0527,216,601.0526,223.0001,621.0526,209.0001,621.0527" style="stroke:#516F42;stroke-width:1.0;"/><!--MD5=[669f59ba63a7d50fdd94f4bc89c6d4af]
reverse link OpenApi\\Attributes\\OpenApiAttributeInterface to OpenApi\\Attributes\\Extensions\\ExtensionProperty--><path d="M239.0961,588.2 C239.0961,588.2 347,588.2 347,588.2 C347,588.2 347,736.2086 347,785.9303 " fill="none" id="OpenApi\\Attributes\\OpenApiAttributeInterface-backto-OpenApi\\Attributes\\Extensions\\ExtensionProperty" style="stroke:#516F42;stroke-width:1.0;stroke-dasharray:7.0,7.0;"/><polygon fill="none" points="239.0961,595.1999,219.0961,588.2,239.096,581.1999,239.0961,595.1999" style="stroke:#516F42;stroke-width:1.0;"/><!--MD5=[dbb0fde3c818d23b3f6f769ce53c1371]
reverse link OpenApi\\Attributes\\OpenApiAttributeInterface to OpenApi\\Attributes\\Headers\\Header--><path d="M214,621.1151 C214,621.1151 214,877 214,877 C214,877 311.8011,877 368.3424,877 " fill="none" id="OpenApi\\Attributes\\OpenApiAttributeInterface-backto-OpenApi\\Attributes\\Headers\\Header" style="stroke:#516F42;stroke-width:1.0;stroke-dasharray:7.0,7.0;"/><polygon fill="none" points="207.0001,621.1152,214,601.1151,221.0001,621.1151,207.0001,621.1152" style="stroke:#516F42;stroke-width:1.0;"/><!--MD5=[ec146c0189ec87f2d78fc198ee956c39]
reverse link OpenApi\\Attributes\\OpenApiAttributeInterface to OpenApi\\Attributes\\Info\\Contact--><path d="M212,621.2431 C212,621.2431 212,952 212,952 C212,952 309.7291,952 366.9923,952 " fill="none" id="OpenApi\\Attributes\\OpenApiAttributeInterface-backto-OpenApi\\Attributes\\Info\\Contact" style="stroke:#516F42;stroke-width:1.0;stroke-dasharray:7.0,7.0;"/><polygon fill="none" points="205.0001,621.2431,212,601.2431,219.0001,621.243,205.0001,621.2431" style="stroke:#516F42;stroke-width:1.0;"/><!--MD5=[937b41c48b0d71ab616b2ee37836d3c5]
reverse link OpenApi\\Attributes\\OpenApiAttributeInterface to OpenApi\\Attributes\\Info\\Info--><path d="M210,621.2212 C210,621.2212 210,1019 210,1019 C210,1019 325.181,1019 379.622,1019 " fill="none" id="OpenApi\\Attributes\\OpenApiAttributeInterface-backto-OpenApi\\Attributes\\Info\\Info" style="stroke:#516F42;stroke-width:1.0;stroke-dasharray:7.0,7.0;"/><polygon fill="none" points="203.0001,621.2213,210,601.2212,217.0001,621.2212,203.0001,621.2213" style="stroke:#516F42;stroke-width:1.0;"/><!--MD5=[9daada1f477c905da7749847fe873703]
reverse link OpenApi\\Attributes\\OpenApiAttributeInterface to OpenApi\\Attributes\\Info\\License--><path d="M208,621.1017 C208,621.1017 208,1086 208,1086 C208,1086 309.3885,1086 367.6077,1086 " fill="none" id="OpenApi\\Attributes\\OpenApiAttributeInterface-backto-OpenApi\\Attributes\\Info\\License" style="stroke:#516F42;stroke-width:1.0;stroke-dasharray:7.0,7.0;"/><polygon fill="none" points="201.0001,621.1018,208,601.1017,215.0001,621.1017,201.0001,621.1018" style="stroke:#516F42;stroke-width:1.0;"/><!--MD5=[a674556b855ad6f39dce98278e2defde]
reverse link OpenApi\\Attributes\\OpenApiAttributeInterface to OpenApi\\Attributes\\Links\\Link--><path d="M206,621.0067 C206,621.0067 206,1161 206,1161 C206,1161 324.1156,1161 379.4823,1161 " fill="none" id="OpenApi\\Attributes\\OpenApiAttributeInterface-backto-OpenApi\\Attributes\\Links\\Link" style="stroke:#516F42;stroke-width:1.0;stroke-dasharray:7.0,7.0;"/><polygon fill="none" points="199.0001,621.0067,206,601.0067,213.0001,621.0067,199.0001,621.0067" style="stroke:#516F42;stroke-width:1.0;"/><!--MD5=[033e54f87891839b4bdca9539420ccf5]
reverse link OpenApi\\Attributes\\OpenApiAttributeInterface to OpenApi\\Attributes\\Links\\LinkParameter--><path d="M204,621.2161 C204,621.2161 204,1228 204,1228 C204,1228 286.5011,1228 346.4433,1228 " fill="none" id="OpenApi\\Attributes\\OpenApiAttributeInterface-backto-OpenApi\\Attributes\\Links\\LinkParameter" style="stroke:#516F42;stroke-width:1.0;stroke-dasharray:7.0,7.0;"/><polygon fill="none" points="197.0001,621.2161,204,601.2161,211.0001,621.216,197.0001,621.2161" style="stroke:#516F42;stroke-width:1.0;"/><!--MD5=[3d40f28476b738cf652c4df1656895de]
reverse link OpenApi\\Attributes\\OpenApiAttributeInterface to OpenApi\\Attributes\\Media\\ArraySchema--><path d="M202,621.0031 C202,621.0031 202,1303 202,1303 C202,1303 289.451,1303 350.2568,1303 " fill="none" id="OpenApi\\Attributes\\OpenApiAttributeInterface-backto-OpenApi\\Attributes\\Media\\ArraySchema" style="stroke:#516F42;stroke-width:1.0;stroke-dasharray:7.0,7.0;"/><polygon fill="none" points="195.0001,621.0032,202,601.0031,209.0001,621.0031,195.0001,621.0032" style="stroke:#516F42;stroke-width:1.0;"/><!--MD5=[44a7b639935587aa95856478fa8b0cda]
reverse link OpenApi\\Attributes\\OpenApiAttributeInterface to OpenApi\\Attributes\\Media\\Content--><path d="M200,621.0364 C200,621.0364 200,1370 200,1370 C200,1370 305.4542,1370 366.008,1370 " fill="none" id="OpenApi\\Attributes\\OpenApiAttributeInterface-backto-OpenApi\\Attributes\\Media\\Content" style="stroke:#516F42;stroke-width:1.0;stroke-dasharray:7.0,7.0;"/><polygon fill="none" points="193.0001,621.0364,200,601.0364,207.0001,621.0364,193.0001,621.0364" style="stroke:#516F42;stroke-width:1.0;"/><!--MD5=[d738da96696dfb21d5465defd053b00f]
reverse link OpenApi\\Attributes\\OpenApiAttributeInterface to OpenApi\\Attributes\\Media\\DiscriminatorMapping--><path d="M239.0053,594.6 C239.0053,594.6 328,594.6 328,594.6 C328,594.6 328,1304.4624 328,1420.9242 " fill="none" id="OpenApi\\Attributes\\OpenApiAttributeInterface-backto-OpenApi\\Attributes\\Media\\DiscriminatorMapping" style="stroke:#516F42;stroke-width:1.0;stroke-dasharray:7.0,7.0;"/><polygon fill="none" points="239.0054,601.5999,219.0053,594.6,239.0053,587.5999,239.0054,601.5999" style="stroke:#516F42;stroke-width:1.0;"/><!--MD5=[44ab128cba0cbcefc59606bd69b98207]
reverse link OpenApi\\Attributes\\OpenApiAttributeInterface to OpenApi\\Attributes\\Media\\Encoding--><path d="M198,621.341 C198,621.341 198,1504 198,1504 C198,1504 300.7123,1504 362.2995,1504 " fill="none" id="OpenApi\\Attributes\\OpenApiAttributeInterface-backto-OpenApi\\Attributes\\Media\\Encoding" style="stroke:#516F42;stroke-width:1.0;stroke-dasharray:7.0,7.0;"/><polygon fill="none" points="191.0001,621.341,198,601.341,205.0001,621.341,191.0001,621.341" style="stroke:#516F42;stroke-width:1.0;"/><!--MD5=[f319a3f1d1bd2dd5658ad8975cc31a28]
reverse link OpenApi\\Attributes\\OpenApiAttributeInterface to OpenApi\\Attributes\\Media\\ExampleObject--><path d="M196,621.2912 C196,621.2912 196,1571 196,1571 C196,1571 283.0645,1571 345.4721,1571 " fill="none" id="OpenApi\\Attributes\\OpenApiAttributeInterface-backto-OpenApi\\Attributes\\Media\\ExampleObject" style="stroke:#516F42;stroke-width:1.0;stroke-dasharray:7.0,7.0;"/><polygon fill="none" points="189.0001,621.2913,196,601.2912,203.0001,621.2912,189.0001,621.2913" style="stroke:#516F42;stroke-width:1.0;"/><!--MD5=[f12ee90ba963633ceb9020ee1ea8378c]
reverse link OpenApi\\Attributes\\OpenApiAttributeInterface to OpenApi\\Attributes\\Media\\Schema--><path d="M194,621.1187 C194,621.1187 194,1638 194,1638 C194,1638 304.2944,1638 366.3351,1638 " fill="none" id="OpenApi\\Attributes\\OpenApiAttributeInterface-backto-OpenApi\\Attributes\\Media\\Schema" style="stroke:#516F42;stroke-width:1.0;stroke-dasharray:7.0,7.0;"/><polygon fill="none" points="187.0001,621.1188,194,601.1187,201.0001,621.1187,187.0001,621.1188" style="stroke:#516F42;stroke-width:1.0;"/><!--MD5=[d279c1b2e9289aae194f0d0923caaa64]
reverse link OpenApi\\Attributes\\OpenApiAttributeInterface to OpenApi\\Attributes\\Parameters\\RequestBody--><path d="M192,621.3806 C192,621.3806 192,1713 192,1713 C192,1713 286.4728,1713 350.3157,1713 " fill="none" id="OpenApi\\Attributes\\OpenApiAttributeInterface-backto-OpenApi\\Attributes\\Parameters\\RequestBody" style="stroke:#516F42;stroke-width:1.0;stroke-dasharray:7.0,7.0;"/><polygon fill="none" points="185.0001,621.3806,192,601.3806,199.0001,621.3805,185.0001,621.3806" style="stroke:#516F42;stroke-width:1.0;"/><!--MD5=[06b004fbdb3e5239dae298bb97739c1a]
reverse link OpenApi\\Attributes\\OpenApiAttributeInterface to OpenApi\\Attributes\\Responses\\ApiResponse--><path d="M190,621.0963 C190,621.0963 190,1788 190,1788 C190,1788 286.478,1788 350.9222,1788 " fill="none" id="OpenApi\\Attributes\\OpenApiAttributeInterface-backto-OpenApi\\Attributes\\Responses\\ApiResponse" style="stroke:#516F42;stroke-width:1.0;stroke-dasharray:7.0,7.0;"/><polygon fill="none" points="183.0001,621.0963,190,601.0963,197.0001,621.0963,183.0001,621.0963" style="stroke:#516F42;stroke-width:1.0;"/><!--MD5=[5dbcd53744594e4f8ecbee15ec54aa53]
reverse link OpenApi\\Attributes\\OpenApiAttributeInterface to OpenApi\\Attributes\\Security\\OAuthFlow--><path d="M188,621.1586 C188,621.1586 188,1863 188,1863 C188,1863 294.1194,1863 358.7858,1863 " fill="none" id="OpenApi\\Attributes\\OpenApiAttributeInterface-backto-OpenApi\\Attributes\\Security\\OAuthFlow" style="stroke:#516F42;stroke-width:1.0;stroke-dasharray:7.0,7.0;"/><polygon fill="none" points="181.0001,621.1587,188,601.1586,195.0001,621.1586,181.0001,621.1587" style="stroke:#516F42;stroke-width:1.0;"/><!--MD5=[7340ee21eded0f6c32aecf0623af11ea]
reverse link OpenApi\\Attributes\\OpenApiAttributeInterface to OpenApi\\Attributes\\Security\\OAuthFlows--><path d="M170,621.042 C170,621.042 170,1930 170,1930 C170,1930 285.4676,1930 355.3796,1930 " fill="none" id="OpenApi\\Attributes\\OpenApiAttributeInterface-backto-OpenApi\\Attributes\\Security\\OAuthFlows" style="stroke:#516F42;stroke-width:1.0;stroke-dasharray:7.0,7.0;"/><polygon fill="none" points="163.0001,621.042,170,601.042,177.0001,621.0419,163.0001,621.042" style="stroke:#516F42;stroke-width:1.0;"/><!--MD5=[557ddc44e5db9f2d9cd96089900b9f4e]
reverse link OpenApi\\Attributes\\OpenApiAttributeInterface to OpenApi\\Attributes\\Security\\OAuthScope--><path d="M154,621.3457 C154,621.3457 154,1997 154,1997 C154,1997 278.2843,1997 352.8064,1997 " fill="none" id="OpenApi\\Attributes\\OpenApiAttributeInterface-backto-OpenApi\\Attributes\\Security\\OAuthScope" style="stroke:#516F42;stroke-width:1.0;stroke-dasharray:7.0,7.0;"/><polygon fill="none" points="147.0001,621.3458,154,601.3457,161.0001,621.3457,147.0001,621.3458" style="stroke:#516F42;stroke-width:1.0;"/><!--MD5=[f1176a0b55dc9764982a775fef6015b9]
reverse link OpenApi\\Attributes\\OpenApiAttributeInterface to OpenApi\\Attributes\\Security\\SecurityRequirement--><path d="M138,621.1058 C138,621.1058 138,2064 138,2064 C138,2064 246.9233,2064 326.2756,2064 " fill="none" id="OpenApi\\Attributes\\OpenApiAttributeInterface-backto-OpenApi\\Attributes\\Security\\SecurityRequirement" style="stroke:#516F42;stroke-width:1.0;stroke-dasharray:7.0,7.0;"/><polygon fill="none" points="131.0001,621.1058,138,601.1058,145.0001,621.1058,131.0001,621.1058" style="stroke:#516F42;stroke-width:1.0;"/><!--MD5=[e7549d851e3376d0c5398f7ebc072a1e]
reverse link OpenApi\\Attributes\\OpenApiAttributeInterface to OpenApi\\Attributes\\Security\\SecurityScheme--><path d="M122,621.0596 C122,621.0596 122,2131 122,2131 C122,2131 256.9434,2131 341.283,2131 " fill="none" id="OpenApi\\Attributes\\OpenApiAttributeInterface-backto-OpenApi\\Attributes\\Security\\SecurityScheme" style="stroke:#516F42;stroke-width:1.0;stroke-dasharray:7.0,7.0;"/><polygon fill="none" points="115.0001,621.0596,122,601.0596,129.0001,621.0596,115.0001,621.0596" style="stroke:#516F42;stroke-width:1.0;"/><!--MD5=[ce43c7f0a6aeab12257dd4ee8f1a08d9]
reverse link OpenApi\\Attributes\\OpenApiAttributeInterface to OpenApi\\Attributes\\Servers\\Server--><path d="M106,621.0436 C106,621.0436 106,2206 106,2206 C106,2206 291.4037,2206 371.4315,2206 " fill="none" id="OpenApi\\Attributes\\OpenApiAttributeInterface-backto-OpenApi\\Attributes\\Servers\\Server" style="stroke:#516F42;stroke-width:1.0;stroke-dasharray:7.0,7.0;"/><polygon fill="none" points="99.0001,621.0436,106,601.0436,113.0001,621.0436,99.0001,621.0436" style="stroke:#516F42;stroke-width:1.0;"/><!--MD5=[b7291f4c3c977fe26018a5365bb8f2ae]
reverse link OpenApi\\Attributes\\OpenApiAttributeInterface to OpenApi\\Attributes\\Servers\\ServerVariable--><path d="M90,621.1654 C90,621.1654 90,2273 90,2273 C90,2273 253.5756,2273 345.9063,2273 " fill="none" id="OpenApi\\Attributes\\OpenApiAttributeInterface-backto-OpenApi\\Attributes\\Servers\\ServerVariable" style="stroke:#516F42;stroke-width:1.0;stroke-dasharray:7.0,7.0;"/><polygon fill="none" points="83.0001,621.1655,90,601.1654,97.0001,621.1654,83.0001,621.1655" style="stroke:#516F42;stroke-width:1.0;"/><!--MD5=[53ebd794ea2cd8471941d168aeb30663]
reverse link OpenApi\\Attributes\\OpenApiAttributeInterface to OpenApi\\Attributes\\Tags\\Tag--><path d="M74,621.0524 C74,621.0524 74,2348 74,2348 C74,2348 300.0222,2348 379.9246,2348 " fill="none" id="OpenApi\\Attributes\\OpenApiAttributeInterface-backto-OpenApi\\Attributes\\Tags\\Tag" style="stroke:#516F42;stroke-width:1.0;stroke-dasharray:7.0,7.0;"/><polygon fill="none" points="67.0001,621.0524,74,601.0524,81.0001,621.0523,67.0001,621.0524" style="stroke:#516F42;stroke-width:1.0;"/><!--MD5=[0988b9421e087665b415857759b86ffe]
link OpenApi\\Attributes\\Enums\\AccessMode to OpenApi\\Attributes\\Enums\\ParameterIn--><!--MD5=[65f59b435570318dc19d00281a6d69f0]
link OpenApi\\Attributes\\Enums\\ParameterIn to OpenApi\\Attributes\\Enums\\ParameterStyle--><!--MD5=[cddab8e769e48bb5c2a5194a214ea4ad]
link OpenApi\\Attributes\\Enums\\AccessMode to OpenApi\\Attributes\\Enums\\SecuritySchemeIn--><!--MD5=[04b07c2d17af789f7afa30946ba4682c]
link OpenApi\\Attributes\\Enums\\SecuritySchemeIn to OpenApi\\Attributes\\Enums\\SecuritySchemeType--><!--MD5=[d69f2425c0230ca6e543faa011ade411]
@startuml
   skinparam ArrowColor #516f42
   skinparam activityBorderColor #516f42
   skinparam activityBackgroundColor #ffffff
   skinparam activityDiamondBorderColor #516f42
   skinparam activityDiamondBackgroundColor #ffffff
   skinparam shadowing false

skinparam shadowing false
skinparam linetype ortho
hide empty members
left to right direction
set namespaceSeparator \\


class \\OpenApi\\Attributes\\Consumes implements \\OpenApi\\Attributes\\OpenApiAttributeInterface {
}

class \\OpenApi\\Attributes\\Delete extends \\OpenApi\\Attributes\\Method {
}

class \\OpenApi\\Attributes\\ExternalDocumentation implements \\OpenApi\\Attributes\\OpenApiAttributeInterface {
}

class \\OpenApi\\Attributes\\Get extends \\OpenApi\\Attributes\\Method {
}

class \\OpenApi\\Attributes\\Hidden implements \\OpenApi\\Attributes\\OpenApiAttributeInterface {
}

abstract class \\OpenApi\\Attributes\\Method implements \\OpenApi\\Attributes\\OpenApiAttributeInterface {
}

class \\OpenApi\\Attributes\\OpenAPIDefinition implements \\OpenApi\\Attributes\\OpenApiAttributeInterface {
}

class \\OpenApi\\Attributes\\Operation implements \\OpenApi\\Attributes\\OpenApiAttributeInterface {
}

class \\OpenApi\\Attributes\\Parameter implements \\OpenApi\\Attributes\\OpenApiAttributeInterface {
}

class \\OpenApi\\Attributes\\Patch extends \\OpenApi\\Attributes\\Method {
}

class \\OpenApi\\Attributes\\Path implements \\OpenApi\\Attributes\\OpenApiAttributeInterface {
}

class \\OpenApi\\Attributes\\Post extends \\OpenApi\\Attributes\\Method {
}

class \\OpenApi\\Attributes\\Produces implements \\OpenApi\\Attributes\\OpenApiAttributeInterface {
}

class \\OpenApi\\Attributes\\Put extends \\OpenApi\\Attributes\\Method {
}

interface \\OpenApi\\Attributes\\OpenApiAttributeInterface {
}

class \\OpenApi\\Attributes\\Callbacks\\Callback implements \\OpenApi\\Attributes\\OpenApiAttributeInterface {
}

class \\OpenApi\\Attributes\\Enums\\AccessMode {
}

class \\OpenApi\\Attributes\\Enums\\ParameterIn {
}

class \\OpenApi\\Attributes\\Enums\\ParameterStyle {
}

class \\OpenApi\\Attributes\\Enums\\SecuritySchemeIn {
}

class \\OpenApi\\Attributes\\Enums\\SecuritySchemeType {
}

class \\OpenApi\\Attributes\\Extensions\\Extension implements \\OpenApi\\Attributes\\OpenApiAttributeInterface {
}

class \\OpenApi\\Attributes\\Extensions\\ExtensionProperty implements \\OpenApi\\Attributes\\OpenApiAttributeInterface {
}

class \\OpenApi\\Attributes\\Headers\\Header implements \\OpenApi\\Attributes\\OpenApiAttributeInterface {
}

class \\OpenApi\\Attributes\\Info\\Contact implements \\OpenApi\\Attributes\\OpenApiAttributeInterface {
}

class \\OpenApi\\Attributes\\Info\\Info implements \\OpenApi\\Attributes\\OpenApiAttributeInterface {
}

class \\OpenApi\\Attributes\\Info\\License implements \\OpenApi\\Attributes\\OpenApiAttributeInterface {
}

class \\OpenApi\\Attributes\\Links\\Link implements \\OpenApi\\Attributes\\OpenApiAttributeInterface {
}

class \\OpenApi\\Attributes\\Links\\LinkParameter implements \\OpenApi\\Attributes\\OpenApiAttributeInterface {
}

class \\OpenApi\\Attributes\\Media\\ArraySchema implements \\OpenApi\\Attributes\\OpenApiAttributeInterface {
}

class \\OpenApi\\Attributes\\Media\\Content implements \\OpenApi\\Attributes\\OpenApiAttributeInterface {
}

class \\OpenApi\\Attributes\\Media\\DiscriminatorMapping implements \\OpenApi\\Attributes\\OpenApiAttributeInterface {
}

class \\OpenApi\\Attributes\\Media\\Encoding implements \\OpenApi\\Attributes\\OpenApiAttributeInterface {
}

class \\OpenApi\\Attributes\\Media\\ExampleObject implements \\OpenApi\\Attributes\\OpenApiAttributeInterface {
}

class \\OpenApi\\Attributes\\Media\\Schema implements \\OpenApi\\Attributes\\OpenApiAttributeInterface {
}

class \\OpenApi\\Attributes\\Parameters\\RequestBody implements \\OpenApi\\Attributes\\OpenApiAttributeInterface {
}

class \\OpenApi\\Attributes\\Responses\\ApiResponse implements \\OpenApi\\Attributes\\OpenApiAttributeInterface {
}

class \\OpenApi\\Attributes\\Security\\OAuthFlow implements \\OpenApi\\Attributes\\OpenApiAttributeInterface {
}

class \\OpenApi\\Attributes\\Security\\OAuthFlows implements \\OpenApi\\Attributes\\OpenApiAttributeInterface {
}

class \\OpenApi\\Attributes\\Security\\OAuthScope implements \\OpenApi\\Attributes\\OpenApiAttributeInterface {
}

class \\OpenApi\\Attributes\\Security\\SecurityRequirement implements \\OpenApi\\Attributes\\OpenApiAttributeInterface {
}

class \\OpenApi\\Attributes\\Security\\SecurityScheme implements \\OpenApi\\Attributes\\OpenApiAttributeInterface {
}

class \\OpenApi\\Attributes\\Servers\\Server implements \\OpenApi\\Attributes\\OpenApiAttributeInterface {
}

class \\OpenApi\\Attributes\\Servers\\ServerVariable implements \\OpenApi\\Attributes\\OpenApiAttributeInterface {
}

class \\OpenApi\\Attributes\\Tags\\Tag implements \\OpenApi\\Attributes\\OpenApiAttributeInterface {
}

@enduml

PlantUML version 1.2021.14(Fri Nov 12 16:46:50 UTC 2021)
(GPL source distribution)
Java Runtime: OpenJDK Runtime Environment
JVM: OpenJDK 64-Bit Server VM
Default Encoding: ANSI_X3.4-1968
Language: en
Country: US
--></g></svg>